<svg fill="none" viewBox="14 10.35 40 40" xmlns="http://www.w3.org/2000/svg" xmlns:xlink="http://www.w3.org/1999/xlink"><filter id="a" color-interpolation-filters="sRGB" filterUnits="userSpaceOnUse" height="68" width="68" x="0" y=".347656"><feFlood flood-opacity="0" result="BackgroundImageFix"/><feColorMatrix in="SourceAlpha" result="hardAlpha" type="matrix" values="0 0 0 0 0 0 0 0 0 0 0 0 0 0 0 0 0 0 127 0"/><feOffset dy="4"/><feGaussianBlur stdDeviation="7"/><feComposite in2="hardAlpha" operator="out"/><feColorMatrix type="matrix" values="0 0 0 0 0.235294 0 0 0 0 0.737255 0 0 0 0 0.898039 0 0 0 0.2 0"/><feBlend in2="BackgroundImageFix" mode="normal" result="effect1_dropShadow_3101_9776"/><feBlend in="SourceGraphic" in2="effect1_dropShadow_3101_9776" mode="normal" result="shape"/></filter><g filter="url(#a)"><rect fill="#33393f" height="40" rx="8" width="40" x="14" y="10.3477"/><rect fill="#3cbce5" height="40" rx="8" width="40" x="14" y="10.3477"/><path d="m36.5505 19.852c1.0899-.0682 2.2828.1476 3.226.7146.7219.4338 1.2427 1.0119 1.4479 1.8465.1779.7237.055 1.4986-.3351 2.1329-.4181.68-1.1836 1.1484-1.9736 1.2423-.1722.0205-.3484.0187-.5216.0278-.2601.0138-.5176.048-.7708.1095-.9721.2362-1.7768.8589-2.2939 1.707.1023.0604.2078.1138.3078.1787.4013.2603.7131.6.9667 1.0023.1207-.0222.2378-.0647.3551-.1003 1.6713-.5081 3.7102-.6161 5.2926.2348 1.016.5463 1.6687 1.4187 1.9969 2.514.4274 1.4268.3426 3.1735-.3745 4.4962-.4135.7628-.973 1.3663-1.8294 1.618-.6952.2043-1.4516.1178-2.0862-.2323-.7701-.4247-1.2992-1.2076-1.3976-2.0819-.0199-.1769-.0168-.3566-.0261-.5343-.0153-.297-.0603-.5906-.1434-.8764-.257-.8845-.8657-1.7207-1.6799-2.1674-.2863.5456-.6761.9424-1.1895 1.2768.2737.7696.4445 1.5952.4892 2.4112.0783 1.4286-.2252 2.957-1.2075 4.0477-.8449.938-2.0442 1.3647-3.2825 1.4255-.3367.0098-.6744.0142-1.0104-.0141-.8117-.0684-1.6527-.3084-2.3496-.7362-.6707-.4118-1.2081-1.0269-1.3909-1.8065-.1718-.7328-.0707-1.4848.3288-2.1275.4416-.7103 1.1907-1.1743 2.0225-1.2575.1903-.0191.383-.0159.574-.0264.2095-.0115.4175-.0427.6217-.0906.991-.2327 1.816-.8615 2.3498-1.7208-.3953-.2206-.7398-.4732-1.0253-.8293-.0537-.0669-.1965-.2986-.2473-.3399-.0804-.0218-.3991.1078-.4985.1379-1.5517.4711-3.7304.4855-5.191-.2997-.9901-.5324-1.6374-1.4347-1.9559-2.4985-.4231-1.4133-.3393-3.1844.3706-4.4953.4096-.7565.9663-1.3354 1.8144-1.5843.7229-.2121 1.4998-.1258 2.1591.2386.769.425 1.2557 1.2303 1.3495 2.0957.0184.1696.0137.3419.0223.5122.0144.2864.062.5703.1421.8457.2565.8817.869 1.7205 1.6808 2.1656.2733-.5242.6594-.9814 1.1828-1.2696-.0622-.2355-.1417-.4658-.2028-.7018-.136-.5248-.2246-1.061-.2685-1.6013-.1159-1.4258.1576-2.983 1.1126-4.0955.876-1.0205 2.1391-1.3985 3.4386-1.4941zm-2.6621 9.1984c-.3689.0441-.6771.1929-.9096.4898-.2155.2751-.31.6378-.2636.9835.0465.3474.2344.6655.5147.8754.2573.1927.5762.2787.8957.2506.378-.0585.69-.2243.92-.5371.2088-.2839.2858-.643.2288-.9892-.056-.3409-.2539-.6491-.536-.8474-.2297-.1615-.5674-.2729-.85-.2256z" fill="#fefdfd"/><path d="m33.9683 29.7895c.1217-.0046.2479.0291.3488.0974.1245.0843.2085.2194.2314.3678.0229.1491-.0112.304-.101.426-.1016.138-.2371.2042-.4025.2282-.1244.0038-.242-.0252-.346-.0949-.1273-.0852-.2136-.2165-.2384-.3679-.0253-.1548.0139-.3198.1094-.4446.1029-.1346.2363-.1875.3983-.212z" fill="#33393f"/></g></svg>