<svg fill="none" height="26" viewBox="0 0 27 26" width="27" xmlns="http://www.w3.org/2000/svg"><g fill="#474c52"><path d="m14.309 12.625c.2303.0199.4742.0051.706.0052l1.3444.0001 4.6103-.0002 1.4773-.0002c.2931 0 .5911-.0106.8835.0093l-.0005 6.3377.0005 1.6357c.0001.4625.0304.9413-.0642 1.3961-.1167.5611-.4005 1.0457-.7934 1.4569-.3922.3806-.8666.6573-1.4008.7831-.5466.1287-1.2971.08-1.866.0796l-3.3043.0001-1.0615.0012c-.1726.0003-.3511-.0114-.5227.0031l-.0135.0013c-.0148-.8704-.0023-1.7431-.0022-2.6138l.0002-4.9673.0001-2.7521-.0008-.8604c-.0001-.1708-.0076-.3453.0076-.5154z"/><path d="m3.70163 12.6308c.4112-.0112.82468-.0028 1.23608-.0027l2.27647.0001 5.48252.0019.0019 7.5886-.0001 2.7073.0001.847c.0006.153.0079.3091.0004.4618-.002.0401-.0025.0598-.0289.0905-.3482.0141-.7014.0018-1.0502.0017l-2.04802-.0003-1.97256.0003c-.35023 0-.70439.0121-1.05402-.004-.82434-.0381-1.57135-.355-2.12961-.9722-.36601-.4047-.60704-.9047-.70301-1.4412-.08633-.4825-.04799-1.1769-.04772-1.6759l.00016-2.7372-.00011-3.2263-.00082-1.0167c-.00009-.1826-.01053-.3735.00474-.5554.00299-.0355.00506-.0447.0327-.0673z"/><path d="m9.61192 1.50168c.42188-.03256.84098.01679 1.23428.17706.9053.36889 1.5017 1.18819 1.9893 1.99687.1401.23239.2849.46751.4034.71169.1164.23993.2134.49271.3171.73852.101-.24936.161-.52293.2515-.77782.2672-.75252.6945-1.5016 1.2968-2.03659.6849-.6083 1.5154-.84984 2.4201-.79484.8888.05403 1.7319.47677 2.3194 1.14307.542.61455.887 1.48251.8292 2.30855-.0511.73023-.4329 1.3521-.9779 1.8239.2745-.00105.5517-.00862.8258.00288.7627.03208 1.5068.36687 2.0245.93075.4332.4719.7049 1.06498.7659 1.70382.0231.2417.0147.48879.0147.73136 0 .2955.0056.5927-.008.8879l-2.3783.0011h-11.69504-3.72639-1.18652c-.22068-.0001-.44781-.0111-.66769.0064.01628-.1438.00641-.2953.00634-.4401-.00019-.3863-.01875-.78349.01641-1.16833.07026-.76898.44312-1.48617 1.03702-1.98083.63988-.53296 1.30081-.67665 2.11288-.67715.18099-.0001.36317-.00443.54351.0125-.53973-.46632-.93598-1.08195-.99704-1.8053-.06629-.78514.19932-1.58089.70464-2.18259.64193-.7644 1.53035-1.22507 2.5241-1.31282zm7.64358 1.58214c-.5113.00709-.8761.15069-1.2371.52268-.5003.51568-.7046 1.18493-.9155 1.85087-.0825.26033-.1691.51901-.2578.7773-.0605.17591-.1124.36925-.1936.53575.566-.01649 1.1161-.0637 1.6719-.1773.8019-.16441 2.0799-.63716 2.5422-1.33766.1605-.24328.1917-.48302.1319-.76505-.099-.46639-.3898-.87786-.7908-1.13444-.2801-.17922-.6177-.28167-.9512-.27215zm-7.68955.01152c-.42891.08351-.7639.22591-1.08798.52663-.11017.10221-.21461.2093-.29938.33388-.17735.26069-.30156.63029-.23801.94701.08332.41535.45207.73156.7896.9511.67929.44182 1.39312.64159 2.18302.78114.5106.0778 1.0103.11625 1.5257.13756l-.0052-.0124c-.0726-.17556-.1185-.36517-.182-.54471-.112-.31666-.2397-.62301-.3703-.93205-.023-.05444-.0366-.14767-.0759-.18905-.0321.00059-.0555.00802-.0802-.0172-.0603-.06174-.1599-.30173-.2084-.38969-.3285-.59459-.8058-1.44402-1.52761-1.58261-.14139-.02714-.2805-.01825-.42334-.00961z"/></g></svg>