<svg fill="none" height="41" viewBox="0 0 40 41" width="40" xmlns="http://www.w3.org/2000/svg"><path d="m28.8889.851562c6.1364 0 11.1111 4.974618 11.1111 11.111138v17.7778c0 6.1364-4.9747 11.1111-11.1111 11.1111h-17.7778c-6.13648 0-11.1111-4.9747-11.1111-11.1111v-17.7778c0-6.13652 4.97462-11.111138 11.1111-11.111138zm-8.8889 11.111138c-4.9092 0-8.8889 3.9797-8.8889 8.8889 0 4.9091 3.9797 8.8889 8.8889 8.8889 4.9091 0 8.8889-3.9798 8.8889-8.8889 0-4.9092-3.9798-8.8889-8.8889-8.8889zm0 4.4444c2.4547 0 4.4444 1.9898 4.4444 4.4445 0 2.4546-1.9897 4.4444-4.4444 4.4444s-4.4444-1.9898-4.4444-4.4444c0-2.4547 1.9897-4.4445 4.4444-4.4445zm10-7.77776c-1.2273 0-2.2222.99493-2.2222 2.22226 0 1.2273.9949 2.2222 2.2222 2.2222s2.2222-.9949 2.2222-2.2222c0-1.22733-.9949-2.22226-2.2222-2.22226z" fill="#fefdfd"/></svg>