<svg fill="none" height="40" viewBox="0 0 40 40" width="40" xmlns="http://www.w3.org/2000/svg"><rect fill="#33393f" height="40" rx="8" width="40"/><path d="m24.4444 10c3.0683 0 5.5556 2.4873 5.5556 5.5556v8.8888c0 3.0683-2.4873 5.5556-5.5556 5.5556h-8.8888c-3.0683 0-5.5556-2.4873-5.5556-5.5556v-8.8888c0-3.0683 2.4873-5.5556 5.5556-5.5556zm-4.4444 5.5556c-2.4546 0-4.4444 1.9898-4.4444 4.4444s1.9898 4.4444 4.4444 4.4444 4.4444-1.9898 4.4444-4.4444-1.9898-4.4444-4.4444-4.4444zm0 2.2222c1.2273 0 2.2222.9949 2.2222 2.2222s-.9949 2.2222-2.2222 2.2222-2.2222-.9949-2.2222-2.2222.9949-2.2222 2.2222-2.2222zm5-3.8889c-.6137 0-1.1111.4975-1.1111 1.1111s.4974 1.1111 1.1111 1.1111 1.1111-.4975 1.1111-1.1111-.4974-1.1111-1.1111-1.1111z" fill="#fefdfd"/></svg>