<svg width="286" height="285" viewBox="0 0 286 285" fill="none" xmlns="http://www.w3.org/2000/svg">
<path d="M52.4548 195.495C51.7476 194.281 50.9681 193.032 49.9993 192.003C48.813 190.743 47.4219 189.655 46.4088 188.245C43.7502 184.543 40.0379 173.308 38.7985 168.682C30.5896 138.041 34.8335 106.575 51.13 79.2182C67.1606 52.3066 93.6651 33.2322 124.284 25.4376C132.419 23.3668 140.741 22.4309 149.134 22.4014C151.489 22.3932 153.896 22.3429 156.223 22.7406C159.139 23.2392 162.004 24.3932 164.813 25.3027C166.627 25.8903 168.803 26.2421 170.447 27.1917C145.198 23.488 116.885 28.9074 94.8335 41.5206C68.4843 56.592 49.1595 81.6388 41.3562 110.59C34.1257 137.417 38.5703 170.079 52.7648 194.074L52.6627 195.452L52.4548 195.495Z" fill="#E58A3C"/>
<path d="M239.337 146.118L238.611 146.576L236.551 146.374C235.441 145.971 233.633 145.105 233.211 143.927C233.023 143.404 233.218 143.15 233.442 142.694C233.932 143.726 237.221 145.471 238.343 145.865L239.337 146.118Z" fill="#D69051"/>
<path d="M103.071 79.1926C105.356 78.4408 114.273 77.0896 116.291 78.014L117.156 78.3504C110.94 79.1633 105.074 80.454 99.1228 82.391C97.5704 82.8958 95.9427 83.346 94.4775 84.0662L97.571 80.3161L98.8797 78.9931L103.071 79.1926Z" fill="url(#paint0_linear_1417_133)"/>
<path d="M98.859 78.9958L103.05 79.1954C102.052 79.5094 98.4863 80.8653 97.6506 80.3916L97.5503 80.3189L98.859 78.9958Z" fill="#D69051"/>
<path d="M233.439 142.694C235.939 139.347 239.826 137.994 242.818 135.22C242.764 138.108 242.151 143.729 239.859 145.757L239.334 146.117L238.34 145.865C237.219 145.47 233.929 143.725 233.439 142.694Z" fill="#FEFDFD"/>
<path d="M150.225 65.2317C151.756 65.6091 153.297 65.9666 154.758 66.5641C161.58 69.3569 167.679 75.1437 172.173 80.7862L167.213 83.1534C164.374 78.2264 160.655 73.2044 156.327 69.4308C155.449 68.666 154.526 68.0004 153.501 67.4398C152.748 67.0284 149.74 66.027 149.478 65.4952L150.225 65.2317Z" fill="#FEFDFD"/>
<path d="M76.98 87.8731L78.0408 86.5747C86.4754 76.6932 98.7227 70.57 111.782 69.4565C109.667 70.7631 107.332 71.1599 105.058 72.0914C103.134 72.8797 94.6586 77.3377 94.0249 78.933L94.299 79.2629L95.3491 79.3439C90.6638 80.4433 85.9098 82.2241 81.7847 84.687C80.1344 85.6719 78.6304 86.8764 76.98 87.8731Z" fill="#B4642D"/>
<path d="M218.979 145.621L218.887 145.573C218.524 145.285 218.586 144.867 218.528 144.441C218.146 141.619 217.514 138.437 216.298 135.843C215.249 133.602 213.599 131.169 213.022 128.795L213.878 128.459C214.793 129.241 215.38 129.676 216.643 129.734L216.803 129.746L219.897 132.076C221.821 133.615 231.505 139.752 231.755 141.642L231.736 142.459C226.971 144.002 224.073 144.946 218.979 145.621Z" fill="#FEFDFD"/>
<path d="M228.191 148.156L229.813 147.548C231.674 148.193 233.41 149.174 234.816 150.552C234.782 156.864 234.121 160.03 229.641 164.869C229.657 163.599 230.031 160.122 229.362 159.169L228.655 159.36L220.56 170.974C219.849 169.638 221.295 166.943 221.552 165.452C222.332 160.946 221.41 156.524 220.947 152.044C222.828 151.289 227.199 150.012 228.191 148.156Z" fill="#FEFDFD"/>
<path d="M141.168 69.8029L143.004 67.4609C144.86 65.7781 147.766 65.1612 150.237 65.2351L149.49 65.4987C149.752 66.0305 152.761 67.0318 153.513 67.4433C154.538 68.0038 155.462 68.6694 156.339 69.4343C160.667 73.2078 164.386 78.2299 167.226 83.1568L161.576 86.2108C161.072 81.0631 159.307 73.9844 155.281 70.3945C153.254 68.5879 150.771 67.789 148.055 67.9228C145.954 68.0261 144.139 68.6201 142.713 70.1926L145.443 70.0975L144.178 71.6917C144.313 73.9703 144.949 78.8749 146.534 80.5325L148.677 83.4257L150.386 87.8684C148.597 87.8431 146.739 87.7298 145.063 87.0554C143.31 86.3505 142.433 85.0944 141.734 83.4397C140.031 79.4097 139.442 73.9134 141.168 69.8029Z" fill="#E58A3C"/>
<path d="M215.985 104.99L216.095 105.073L216.281 105.207L220.008 107.092C221.117 107.539 224.33 108.969 225.41 108.815C225.611 108.786 225.92 108.606 226.117 108.525L227.637 109.99L230.261 112.544L230.641 110.881L231.14 113.493L246.783 129.472C245.131 129.859 243.486 130.245 241.884 130.808C240.249 131.383 238.643 132.109 236.983 132.599C231.812 130.883 226.6 129.253 221.051 130.224L218.833 128.88C219.942 127.75 227.091 127.633 229.026 127.398C228.421 125.938 227.269 124.599 226.272 123.371C224.638 121.358 222.957 119.355 221.125 117.511C218.604 114.971 215.7 112.565 213.698 109.592L215.985 104.99Z" fill="#FEFDFD"/>
<path d="M70.8179 155.568C70.5443 157.391 70.7372 159.287 70.8179 161.123C71.1338 168.281 72.1176 175.321 74.6395 182.095C75.4996 184.406 76.9373 186.464 77.7748 188.795C75.5319 188.919 73.3015 188.991 71.055 188.981C67.3117 188.964 62.6861 188.395 59.1112 189.51C57.4793 190.019 56.2841 190.888 55.1522 192.138C53.9235 193.495 53.0144 194.389 52.8627 196.266L52.7391 196.376L52.4219 195.502L52.6297 195.459L52.7319 194.081C52.8185 194.017 52.9391 193.982 52.9917 193.89C53.3674 193.231 53.555 192.021 53.825 191.254C54.9825 187.964 56.0738 184.661 57.3772 181.423C59.7067 175.638 62.4268 170.149 65.402 164.671C67.111 161.524 68.6962 158.477 70.8179 155.568Z" fill="#B4642D"/>
<path d="M62.5537 133.292C63.8935 126.599 67.3029 118.487 71.0929 112.777C73.6607 108.908 77.106 104.996 80.5417 101.846C83.0325 99.5632 85.8495 97.2072 88.6933 95.3717C94.7769 91.445 108.903 85.1146 116.04 85.3429C114.536 85.8988 113.114 86.6243 111.626 87.2148C110.049 87.841 108.4 88.3182 106.886 89.0883C103.868 90.6226 97.5 94.8928 94.9913 97.179C93.5822 98.4633 92.4569 100.007 91.1285 101.368C89.453 103.084 87.5506 104.75 86.0884 106.642C88.3217 105.645 89.9858 104.06 92.0914 102.934C92.8637 102.522 93.0459 101.726 93.8259 101.299C95.8192 100.211 97.9337 99.0954 100.038 98.2338C102.255 97.3263 104.546 96.6202 106.749 95.6705C104.813 97.0763 103.016 98.6734 101.357 100.387C100.325 101.453 99.2872 102.945 98.0609 103.766L96.0121 106.517L95.2732 107.418L95.0021 106.76C94.7106 106.256 94.4035 106.215 93.8839 106.045C89.2613 108.537 80.2013 113.705 76.9023 117.501C73.5221 120.243 70.5756 123.238 67.7312 126.507L62.5537 133.292Z" fill="#B4642D"/>
<path d="M120.893 61.7354C127.818 61.0709 135.645 60.555 142.501 62.0089C140.102 64.1149 136.622 66.5713 135.678 69.691C134.714 72.6235 134.903 75.6135 135.38 78.6129L130.036 78.1151C125.837 77.787 121.319 77.7882 117.146 78.3481L116.28 78.0118C114.262 77.0874 105.345 78.4385 103.06 79.1904L98.8691 78.9909L95.3438 79.3395L94.2937 79.2585L94.0195 78.9286C94.6533 77.3333 103.129 72.8753 105.053 72.087C107.327 71.1555 109.662 70.7587 111.776 69.4522C115.112 68.8394 118.403 68.2178 121.795 67.9982C118.559 67.1266 114.875 67.0339 111.531 66.7962C109.221 66.1 106.573 66.1969 104.18 66.144L104.542 65.2935L104.014 65.0141C109.342 63.0889 115.209 61.8545 120.893 61.7354Z" fill="#E58A3C"/>
<path d="M95.2757 107.419L96.0146 106.518L96.0277 106.694C96.0516 107.131 96.0415 107.503 95.8545 107.906C95.1294 109.473 93.9778 110.941 93.1278 112.458C91.8472 114.744 90.766 117.371 89.7888 119.802C87.4623 125.591 86.678 132.177 86.604 138.359C86.5532 142.562 86.5162 147.227 87.295 151.363C87.7693 153.882 88.8779 156.332 89.7805 158.729C91.1447 162.353 92.5323 165.932 94.4682 169.31C97.5903 174.756 102.543 179.898 107.202 184.127C108.329 185.15 109.565 186.049 110.727 187.031C111.241 187.465 111.74 188.091 112.292 188.451C112.702 188.718 113.712 188.993 114.206 189.075C108.933 189.075 105.702 189.075 101.45 189.075H97.8781C95.6472 186.618 97.4888 188.302 94.9621 186.061C87.1159 179.104 81.6684 168.964 79.88 158.743C79.3413 155.664 79.4285 152.387 79.4243 149.263C79.4087 137.792 82.289 127.253 88.3397 117.391C90.4554 113.942 92.9062 110.701 95.2757 107.419Z" fill="#B4642D"/>
<path d="M181.497 106.918L182.129 106.371C183.582 107.078 184.567 110.203 185.546 111.555C188.541 115.69 194.652 118.737 199.75 119.157C201.105 119.269 203.246 119.633 204.537 119.205L205.063 118.824L206.606 120.76C208.353 123.748 211.466 126.006 213.893 128.46L213.037 128.796C213.614 131.17 215.264 133.603 216.313 135.844C217.529 138.438 218.161 141.619 218.543 144.441C218.601 144.868 218.539 145.285 218.902 145.574L218.994 145.622L218.933 145.643C217.001 146.04 206.263 146.221 205.005 145.437L207.22 144.343C203.224 144.242 196.27 144.394 192.614 143.519C194.76 146.615 198.43 150.725 202.329 151.441C203.961 151.74 205.726 151.631 207.38 151.577C214.593 151.342 221.209 149.751 228.202 148.156C227.21 150.013 222.839 151.29 220.958 152.045C221.421 156.525 222.343 160.947 221.563 165.452C221.306 166.944 219.861 169.638 220.571 170.975L220.121 171.371C219.214 171.099 218.363 168.674 217.808 167.804C215.258 163.806 211.833 160.592 208.352 157.392L207.957 164.855C202.312 161.327 195.153 158.14 190.899 152.894C189.867 151.621 189.259 150.326 189.478 148.658C190.493 140.931 196.708 132.883 202.848 128.251L199.017 129.44C192.083 132.025 185.825 136.607 182.766 143.43C180.666 148.116 180.59 154.188 182.508 158.964L182.315 159.118L181.702 159.232C180.888 158.812 180.286 157.002 179.977 156.188C179.325 154.47 178.666 152.539 178.352 150.732C177.764 147.343 178.077 142.027 178.932 138.69C179.773 135.41 181.971 130.334 183.432 127.188C181.135 130.03 179.003 133.489 177.775 136.931C175.362 131.698 176.082 120.884 178.189 115.613C178.964 113.673 181.597 109.247 181.751 107.5L181.497 106.918Z" fill="#E6D3C1"/>
<path d="M160.677 36.9102C164.274 36.4712 167.687 36.7559 171.269 37.1979C182.692 38.6077 194.355 42.6513 203.509 49.6585C206.182 51.7046 208.632 54.0636 210.807 56.6151C209.684 48.6348 205.013 44.0847 200.054 38.1875C202.415 39.5715 204.448 41.2643 206.563 42.9747C212.377 45.7892 219.129 54.7157 221.231 60.7074L222.534 65.9519C222.418 70.5308 221.677 73.8724 219.446 77.9224L214.141 84.7817C212.542 82.3006 211.373 79.5923 209.486 77.2885C204.166 70.7932 196.915 65.534 189.161 62.1983C181.379 58.8503 173.01 57.0031 164.575 56.125C149.04 54.5085 133.217 56.0563 118.253 50.698C115.411 49.6802 112.576 48.4816 110.059 46.8152C115.909 48.7974 122.399 48.606 128.523 48.5896C131.888 48.3067 135.261 48.0496 138.613 47.6422C154.443 45.7176 167.969 43.4009 183.469 48.9365C186.193 49.9091 189.044 50.9292 191.511 52.4442L191.704 52.433L191.831 52.2264C191.104 51.265 189.82 50.5037 188.831 49.807C185.922 47.7596 182.999 45.9289 179.845 44.2584C177.48 43.0052 175.009 41.907 172.717 40.5289C168.73 39.0591 164.768 38.0131 160.677 36.9102Z" fill="#E58A3C"/>
<g style="mix-blend-mode:hard-light" filter="url(#filter0_f_1417_133)">
<ellipse cx="166.472" cy="60.2812" rx="67.4853" ry="28.8544" fill="#FF922D" fill-opacity="0.2"/>
</g>
<g style="mix-blend-mode:hard-light" filter="url(#filter1_f_1417_133)">
<path d="M169.986 37.6653L171.311 37.8215C182.234 39.1697 193.338 42.9544 202.175 49.4309L203.022 50.0667C205.631 52.0629 208.025 54.3682 210.154 56.8655L212.579 59.7092L212.059 56.0081C211.343 50.921 209.23 47.1467 206.588 43.6643C209.199 45.0295 212.086 47.7253 214.617 50.8752C217.234 54.1315 219.364 57.7378 220.367 60.5774L221.617 65.6096C221.494 69.9444 220.787 73.0712 218.706 76.8713L214.423 82.4094C213.963 81.6193 213.518 80.8107 213.04 79.9739C212.397 78.8469 211.704 77.6975 210.869 76.6077L210.502 76.1448V76.1438C205.232 69.7105 198.126 64.4791 190.504 61.0686L189.765 60.7444C182.352 57.5552 174.435 55.7139 166.458 54.7659L164.862 54.5881C157.079 53.7782 149.109 53.7532 141.442 53.2747C133.953 52.8071 126.608 51.9054 119.483 49.4602L118.794 49.219C118.594 49.1473 118.395 49.0726 118.195 48.9993C121.749 49.2967 125.325 49.231 128.701 49.2219L128.745 49.2209L128.789 49.218C131.722 48.9714 134.692 48.7418 137.651 48.4133L138.919 48.2659C154.574 46.3625 167.654 44.1434 182.567 49.2561L183.278 49.5051C186.022 50.4849 188.764 51.4699 191.117 52.9153L191.408 53.094L191.748 53.0745L191.941 53.0627L192.509 53.0305L192.806 52.5461L192.933 52.3391L193.319 51.7073L192.872 51.1155C192.415 50.5116 191.816 50.0076 191.252 49.5891C190.983 49.3893 190.685 49.1833 190.401 48.9895L189.632 48.4631V48.4622C187.059 46.6512 184.469 45.0045 181.718 43.4856L180.528 42.842C178.064 41.536 175.721 40.506 173.452 39.1418L173.364 39.0891L173.268 39.053L172.511 38.7786C171.251 38.3302 169.994 37.9209 168.736 37.5364C169.151 37.5753 169.567 37.6187 169.986 37.6653Z" stroke="#FFAB2D" stroke-width="2.17433"/>
</g>
<g style="mix-blend-mode:hard-light" filter="url(#filter2_f_1417_133)">
<path d="M172.015 38.2502C182.652 39.6707 193.396 43.4116 201.977 49.7004L202.819 50.3323C205.408 52.3132 207.785 54.6017 209.9 57.0823L213.07 60.801L212.39 55.9622C211.755 51.4533 210.035 47.9563 207.834 44.803C209.998 46.2649 212.289 48.5133 214.355 51.0852C216.951 54.3151 219.055 57.8794 220.045 60.6702L221.281 65.6467C221.156 69.904 220.46 72.9647 218.426 76.6868L214.462 81.8118C214.092 81.1637 213.725 80.4993 213.331 79.8088C212.686 78.6782 211.984 77.5124 211.135 76.4036L210.762 75.9329L210.761 75.9319C205.456 69.4552 198.306 64.193 190.641 60.7629L189.897 60.4368C182.449 57.232 174.498 55.3847 166.497 54.4338L164.896 54.2561C157.108 53.4457 149.099 53.4173 141.463 52.9407C134.347 52.4965 127.384 51.6594 120.625 49.4856C123.38 49.604 126.108 49.5629 128.702 49.5559H128.76L128.817 49.551C131.747 49.3047 134.722 49.0745 137.688 48.7454L138.959 48.5979C154.636 46.6918 167.633 44.4897 182.459 49.5725L183.166 49.8196C185.915 50.8016 188.623 51.7765 190.941 53.2004L191.322 53.4338L191.768 53.4084L191.961 53.3967L192.702 53.3538L193.091 52.7209L193.218 52.5139L193.725 51.6868L193.14 50.9133C192.654 50.2714 192.023 49.7455 191.451 49.3206C190.912 48.9202 190.234 48.4786 189.824 48.1897V48.1887L188.716 47.4202C186.496 45.9021 184.248 44.5002 181.88 43.1926L180.686 42.5471C178.19 41.2247 175.887 40.2147 173.625 38.8547L173.51 38.7864L173.384 38.7395L172.623 38.4641C172.42 38.3919 172.217 38.3205 172.015 38.2502Z" stroke="#FFAB2D" stroke-width="2.84336"/>
</g>
<g style="mix-blend-mode:hard-light" filter="url(#filter3_ddi_1417_133)">
<path d="M169.986 37.6653L171.311 37.8215C182.234 39.1697 193.338 42.9544 202.175 49.4309L203.022 50.0667C205.631 52.0629 208.025 54.3682 210.154 56.8655L212.579 59.7092L212.059 56.0081C211.343 50.921 209.23 47.1467 206.588 43.6643C209.199 45.0295 212.086 47.7253 214.617 50.8752C217.234 54.1315 219.364 57.7378 220.367 60.5774L221.617 65.6096C221.494 69.9444 220.787 73.0712 218.706 76.8713L214.423 82.4094C213.963 81.6193 213.518 80.8107 213.04 79.9739C212.397 78.8469 211.704 77.6975 210.869 76.6077L210.502 76.1448V76.1438C205.232 69.7105 198.126 64.4791 190.504 61.0686L189.765 60.7444C182.352 57.5552 174.435 55.7139 166.458 54.7659L164.862 54.5881C157.079 53.7782 149.109 53.7532 141.442 53.2747C133.953 52.8071 126.608 51.9054 119.483 49.4602L118.794 49.219C118.594 49.1473 118.395 49.0726 118.195 48.9993C121.749 49.2967 125.325 49.231 128.701 49.2219L128.745 49.2209L128.789 49.218C131.722 48.9714 134.692 48.7418 137.651 48.4133L138.919 48.2659C154.574 46.3625 167.654 44.1434 182.567 49.2561L183.278 49.5051C186.022 50.4849 188.764 51.4699 191.117 52.9153L191.408 53.094L191.748 53.0745L191.941 53.0627L192.509 53.0305L192.806 52.5461L192.933 52.3391L193.319 51.7073L192.872 51.1155C192.415 50.5116 191.816 50.0076 191.252 49.5891C190.983 49.3893 190.685 49.1833 190.401 48.9895L189.632 48.4631V48.4622C187.059 46.6512 184.469 45.0045 181.718 43.4856L180.528 42.842C178.064 41.536 175.721 40.506 173.452 39.1418L173.364 39.0891L173.268 39.053L172.511 38.7786C171.251 38.3302 169.994 37.9209 168.736 37.5364C169.151 37.5753 169.567 37.6187 169.986 37.6653Z" stroke="#FFC940" stroke-opacity="0.2" stroke-width="2.17433"/>
</g>
<g filter="url(#filter4_f_1417_133)">
<path d="M165.068 36.9084C166.712 36.9305 168.353 37.0636 170.033 37.2502L171.362 37.4065C182.34 38.7615 193.516 42.5666 202.422 49.094L203.276 49.7346C205.91 51.7501 208.326 54.0758 210.473 56.594L211.965 58.344L211.645 56.0667C210.76 49.7803 207.716 45.5443 204.138 41.2864C204.86 41.8566 205.581 42.4436 206.317 43.0393L206.377 43.0881L206.446 43.1213C209.223 44.4655 212.29 47.3126 214.942 50.6135C217.582 53.8992 219.745 57.5528 220.767 60.4524L222.036 65.5667C221.915 69.9952 221.196 73.2039 219.058 77.0999L214.376 83.1545C213.794 82.1871 213.256 81.1947 212.678 80.1819C212.037 79.0591 211.354 77.9291 210.537 76.8625L210.179 76.4094C204.954 70.0303 197.901 64.8367 190.334 61.4504L189.6 61.1282C182.232 57.9585 174.356 56.1263 166.409 55.1819L164.818 55.0042C157.041 54.1949 149.122 54.1727 141.416 53.6917C133.913 53.2233 126.524 52.3189 119.348 49.8557L118.653 49.6125C117.456 49.1839 116.268 48.7249 115.108 48.2151C119.623 48.9222 124.302 48.8148 128.7 48.803H128.728L128.754 48.801C131.691 48.554 134.654 48.3258 137.604 47.9983L138.868 47.8508C154.495 45.9509 167.679 43.7108 182.702 48.8606L183.419 49.1116C186.154 50.0886 188.939 51.0867 191.336 52.5588L191.515 52.6692L191.725 52.6565L191.917 52.6458L192.267 52.6252L192.449 52.3274L192.576 52.1204L192.814 51.7317L192.539 51.3674C192.118 50.8109 191.556 50.3355 191.003 49.925C190.734 49.7256 190.445 49.5254 190.166 49.3352L189.391 48.8049C186.828 47.0015 184.252 45.3625 181.516 43.8518L180.333 43.2122C177.907 41.9264 175.514 40.8699 173.236 39.5002L173.183 39.468L173.123 39.4456L172.369 39.1731C169.937 38.3071 167.512 37.5877 165.068 36.9084Z" stroke="#FFD56A" stroke-width="1.33805"/>
</g>
<g filter="url(#filter5_f_1417_133)">
<path d="M162.751 36.6223C165.202 36.4824 167.599 36.6429 170.07 36.9172L171.403 37.0745C182.425 38.4349 193.659 42.2562 202.62 48.8245L203.48 49.469C206.134 51.4997 208.566 53.8425 210.728 56.3772L211.474 57.2522L211.313 56.1135C210.288 48.8235 206.331 44.3405 201.953 39.2385C203.528 40.3322 205 41.5442 206.527 42.7795L206.558 42.804L206.592 42.8206C209.434 44.1962 212.538 47.087 215.203 50.4036C217.862 53.7126 220.051 57.4042 221.087 60.3518L222.373 65.5315C222.254 70.0348 221.524 73.3093 219.34 77.2815L214.343 83.7424C213.656 82.6363 213.041 81.4945 212.387 80.3479C211.748 79.2286 211.075 78.1134 210.272 77.0657L209.92 76.6213C204.73 70.2856 197.721 65.1229 190.197 61.7561L189.468 61.4358C182.136 58.2815 174.292 56.4555 166.369 55.5139L164.784 55.3372C157.012 54.5284 149.132 54.5086 141.396 54.0256C133.881 53.5566 126.457 52.6499 119.238 50.1721L118.541 49.928C116.522 49.205 114.517 48.3927 112.632 47.3909C117.858 48.6282 123.446 48.4831 128.699 48.469H128.713L128.727 48.468C131.667 48.2208 134.623 47.992 137.567 47.6653L138.828 47.5188C154.433 45.6215 167.7 43.3645 182.811 48.5442L183.531 48.7961C186.261 49.7709 189.079 50.7802 191.511 52.2737L191.601 52.3293L191.705 52.3225L191.898 52.3118L192.072 52.302L192.164 52.1526L192.291 51.9456L192.41 51.7512L192.272 51.5696C191.88 51.051 191.348 50.5976 190.804 50.1936C190.535 49.9944 190.252 49.7989 189.978 49.6116L189.198 49.0784C186.28 47.0242 183.344 45.1851 180.176 43.5071H180.177C177.781 42.2376 175.349 41.1603 173.064 39.7864L173.037 39.7708L173.008 39.76L172.257 39.4875C169.099 38.3635 165.953 37.4879 162.751 36.6223Z" stroke="white" stroke-width="0.669026"/>
</g>
<path d="M128.535 48.5914C131.9 48.3085 135.273 48.0514 138.625 47.644C154.455 45.7194 167.981 43.4026 183.481 48.9383C186.204 49.9109 189.056 50.931 191.523 52.446L191.295 52.5645C190.622 52.8146 189.11 52.2593 188.401 52.0656C183.877 50.8271 179.554 49.8897 174.891 49.3063C169.568 48.6401 164.265 48.2398 158.898 48.221C155.104 48.2081 151.305 48.2674 147.514 48.4499C143.555 48.6407 129.534 50.1574 126.729 49.1056L126.8 48.9424L128.535 48.5914Z" fill="#FEFDFD"/>
<path d="M160.659 36.9102C164.256 36.4712 167.669 36.7559 171.251 37.1979C182.674 38.6077 194.337 42.6513 203.491 49.6585C206.164 51.7046 208.614 54.0636 210.789 56.6151C209.666 48.6348 204.995 44.0847 200.036 38.1875C202.398 39.5715 204.43 41.2643 206.545 42.9747L206.6 43.1215C207.475 45.3079 209.671 47.3247 210.973 49.3491C212.451 51.6488 213.689 54.2103 214.814 56.6932C217.846 63.3898 220.172 70.6635 217.157 77.8179L214.815 81.9231L210.869 74.7364L210.793 73.546L212.177 74.5662L214.215 77.4587L214.841 73.4075C215.04 66.823 212.534 61.5609 208.01 56.8628C200.912 49.4912 192.182 45.1958 182.354 42.3795C179.209 41.4786 175.992 40.6175 172.699 40.5289C168.712 39.0591 164.75 38.0131 160.659 36.9102Z" fill="#FEFDFD"/>
<path d="M156.261 105.365C159.471 102.886 162.508 100.211 165.842 97.8849C170.182 94.8586 175.55 91.9695 180.246 89.4802C171.25 97.9724 161.995 110.175 158.389 121.97C157.582 124.609 156.881 127.312 156.376 130.023C156.043 131.801 155.868 133.656 155.424 135.406C157.704 132.904 159.424 130.003 161.455 127.318C163.689 124.365 166.31 121.571 168.798 118.815C171.051 116.318 173.555 113.936 176.088 111.718C177.878 110.149 179.825 108.608 181.491 106.917L181.745 107.499C181.592 109.246 178.959 113.672 178.183 115.612C176.076 120.883 175.356 131.697 177.769 136.93C178.998 133.488 181.129 130.029 183.427 127.187C181.965 130.333 179.767 135.409 178.926 138.689C178.071 142.026 177.758 147.342 178.346 150.731C178.661 152.538 179.319 154.469 179.971 156.187C180.28 157.001 180.883 158.811 181.696 159.231L182.31 159.117L182.503 158.963L183.88 162.202C178.851 160.526 173.204 157.292 169.419 153.619C165.485 149.802 162.767 144.789 162.729 139.285C161.799 141.604 161.191 143.946 161.095 146.448C160.806 153.994 165.195 160.199 170.141 165.499L164.242 163.784C154.267 160.374 145.076 154.77 140.369 145.1C136.638 137.435 137.381 129.672 140.208 121.915C141.12 119.767 142.036 117.745 143.451 115.858C138.603 119.452 133.852 123.938 130.659 129.067L130.597 131.46C129.707 133.208 128.912 133.863 127.439 135.142L125.808 138.501C124.536 134.18 123.859 129.642 123.438 125.171C123.688 123.437 123.502 121.437 123.521 119.674C123.561 115.859 123.95 112.385 124.92 108.688C125.222 106.233 126.035 103.898 126.935 101.602C127.13 102.804 126.251 103.715 126.382 104.836L127.889 101.889L128.182 101.884C130.148 99.5255 131.963 97.0057 134.614 95.354C136.666 96.468 138.364 98.3985 140.504 99.2749C141.861 99.8301 143.691 99.1528 144.819 99.8378L147.086 97.5615C147.074 98.9285 146.566 99.981 145.577 100.938L143.736 102.257C141.996 103.144 141.435 106.703 139.546 107.603L134.862 116.653C136.686 114.441 138.735 112.415 140.752 110.374C147.504 103.544 154.275 97.9108 162.346 92.5988C163.016 93.1564 163.24 93.1188 164.092 93.0595L164.427 93.3219C161.033 97.3884 158.435 100.451 156.261 105.365Z" fill="#E58A3C"/>
<path d="M128.898 84.0183L129.113 84.2273C128.603 84.9909 127.614 85.6166 126.941 86.2681C125.039 88.1088 123.011 90.4191 121.785 92.767C120.015 95.035 118.573 98.0197 117.532 100.682L116.759 102.958L115.058 108.96C112.414 123.58 115.187 138.471 121.811 151.773C123.442 155.049 125.743 158.001 127.366 161.258C126.866 155.516 127.727 149.691 128.743 144.058L129.449 142.027C130.178 145.012 130.846 148.036 131.944 150.916C135.672 160.702 143.337 169.503 151.62 175.907C149.952 172.008 147.646 168.184 146.702 164.03L146.992 163.736C147.539 163.934 154.563 171.794 155.546 172.723C159.296 176.263 169.038 181.943 173.903 184.449C174.85 184.936 181.216 186.014 181.216 189.143H175.944C172.542 189.143 170.671 189.143 167.95 189.143C166.116 188.941 163.898 189.247 162.055 189.143C159.459 188.997 156.724 189.075 154.173 189.008H153.663C151.452 189.075 148.208 189.018 146.009 189.008C143.883 188.997 141.834 188.998 139.716 189.008C138.195 189.014 136.993 189.074 135.472 189.008C132.509 188.877 129.527 188.872 126.56 188.804C119.061 180.161 112.472 168.146 109.684 157.084C108.107 154.337 107.057 149.375 106.584 146.21L105.787 146.192C104.77 147.801 105.351 149.983 105.126 151.772C105.23 158.075 106.65 164.207 107.854 170.36C108.563 174.466 109.842 178.898 111.668 182.661L113.373 186.964L114.204 189.075C113.71 188.993 112.078 189.172 111.668 188.905C111.116 188.546 111.238 187.464 110.724 187.03C109.561 186.048 108.326 185.149 107.199 184.126C102.54 179.897 97.5868 174.756 94.4647 169.309C92.5288 165.932 91.1413 162.352 89.777 158.728C88.8745 156.331 87.7659 153.881 87.2916 151.362C86.5127 147.226 86.5497 142.561 86.6005 138.359C86.6746 132.177 87.4588 125.59 89.7854 119.801C90.7626 117.371 91.8437 114.743 93.1243 112.457C93.9743 110.94 95.1259 109.472 95.8511 107.905C96.038 107.502 96.0482 107.13 96.0243 106.693L96.0111 106.517L98.0599 103.766C99.2862 102.945 100.324 101.453 101.356 100.387C103.015 98.6736 104.813 97.0764 106.748 95.6707C104.545 96.6204 102.254 97.3265 100.037 98.2339C97.9327 99.0956 95.8182 100.211 93.825 101.3C93.0449 101.726 92.8627 102.522 92.0904 102.934C89.9849 104.06 88.3207 105.645 86.0874 106.642C87.5496 104.75 89.4521 103.084 91.1275 101.368C92.4559 100.007 93.5813 98.4634 94.9903 97.1792C97.499 94.893 103.867 90.6228 106.885 89.0885C108.399 88.3184 110.048 87.8412 111.625 87.2149C113.113 86.6244 114.535 85.8989 116.039 85.3431C118.676 84.2226 125.623 84.5425 128.898 84.0183Z" fill="#E58A3C"/>
<path d="M104.963 138.058C104.382 134.952 106.738 122.355 107.738 118.603C108.312 116.449 109.17 114.418 109.814 112.305C110.247 110.887 110.344 109.15 111.176 107.893L111.278 107.758L111.277 108.129L111.282 108.165C110.945 111.523 109.507 114.641 108.985 117.92C107.78 125.477 108.031 133.594 108.262 141.228C108.375 144.954 108.856 148.465 109.448 152.142C109.565 152.867 110.184 155.033 109.927 155.624L108.93 150.742L108.45 148.119L107.641 148.957L108.009 151.142C108.272 153.007 110.124 155.253 109.672 157.083C108.095 154.335 107.045 149.374 106.572 146.209L104.963 138.058Z" fill="#B4642D"/>
<path d="M162.358 92.5962C164.211 91.228 165.993 89.7213 168.29 89.1748L164.439 93.3193L164.104 93.057C163.253 93.1163 163.029 93.1538 162.358 92.5962Z" fill="#D69051"/>
<path d="M146.538 80.5252L147.434 81.1116L147.513 80.9595L148.35 79.8925L148.739 79.5461L148.775 80.8897L148.681 83.4183L146.538 80.5252Z" fill="#B4642D"/>
<path d="M147.105 97.562C147.093 98.929 146.585 99.9815 145.596 100.938L143.756 102.257C142.015 103.145 141.454 106.704 139.565 107.603C141.05 104.846 142.953 102.337 144.838 99.8383L147.105 97.562Z" fill="#47150B"/>
<path d="M99.7012 66.5989L104.018 65.0188L104.547 65.2982L104.184 66.1487C106.577 66.2015 109.225 66.1047 111.535 66.8008L99.7012 66.5989Z" fill="#A36A43"/>
<path d="M145.421 70.0959C149.278 70.5297 152.606 71.3984 155.108 74.4941L157.238 77.5903C154.63 77.4817 152.017 77.4529 149.976 79.2972L148.749 80.8955L148.656 83.4241L146.512 80.5309C144.928 78.8734 144.291 73.9687 144.156 71.6901L145.421 70.0959Z" fill="#B4642D"/>
<path d="M103.994 65.0178C109.322 63.0925 115.19 61.8582 120.874 61.739C119.364 62.4557 107.301 65.7638 106.138 65.5237C107.459 64.4889 108.757 64.7589 110.228 64.3944C110.464 64.3357 110.667 64.1414 110.905 64.0616C111.558 63.8433 112.454 63.8016 113.143 63.7318L113.132 63.5263L113.646 63.5944L113.653 63.7323L113.31 63.2193C111.836 62.9875 105.992 64.5335 104.523 65.2972L103.994 65.0178Z" fill="#A36A43"/>
<path d="M215.248 126.834L218.812 128.876L221.03 130.221L220.827 130.218C218.726 130.158 217.756 127.994 215.813 127.688L215.635 127.931C216.804 129.428 219.08 130.356 219.874 132.075L216.781 129.744L214.731 127.957L215.248 126.834Z" fill="#47150B"/>
<path d="M212.988 87.2414L213.893 86.6914L214.31 86.3786L214.822 86.881C215.976 85.4887 219.343 81.2215 220.899 80.6633L221.648 80.7555L222.225 81.9893L220.988 81.154L219.777 82.0709C217.676 84.2103 215.382 86.3428 214.034 89.0434L212.988 87.2414Z" fill="#1B1719"/>
<path d="M67.7065 126.505C70.5509 123.237 73.4975 120.241 76.8777 117.499C76.3825 118.29 75.9285 119.164 75.3611 119.903C74.1969 121.419 70.7319 124.98 69.1992 125.947C68.7375 126.238 68.1856 126.249 67.7065 126.505Z" fill="#47150B"/>
<path d="M143.428 115.856C142.013 117.744 141.098 119.765 140.186 121.913L140.178 121.751C140.126 120.32 141.052 119.183 141.525 117.87C139.813 118.717 132.959 126.158 132.05 127.874L132.042 128.078L135.845 124.078C134.217 126.621 131.895 128.714 130.574 131.458L130.636 129.065C133.83 123.937 138.581 119.45 143.428 115.856Z" fill="#47150B"/>
<path d="M233.504 99.4478C233.557 101.35 229.672 104.801 229.819 105.356C229.858 105.504 230.003 105.602 230.095 105.725L231.15 106.132L231.117 106.31L230.96 106.358L229.024 108.534L228.871 108.637L228.776 108.695L228.351 108.793L227.623 109.984L226.104 108.519L226.063 108.095L227.075 106.922L230.663 103.511L233.504 99.4478Z" fill="#321612"/>
<path d="M227.588 107.83L229.104 106.639C229.724 106.306 230.286 106.17 230.97 106.361L229.034 108.537L228.881 108.64L228.786 108.698L227.588 107.83Z" fill="#D69051"/>
<path d="M107.824 170.359C109.137 171.137 110.75 173.012 111.084 174.501L111.302 178.268L110.636 178.664C110.702 180.052 111.672 181.121 111.638 182.659C109.813 178.897 108.533 174.464 107.824 170.359Z" fill="#47150B"/>
<path d="M231.737 142.458C231.403 143.514 230.512 143.988 229.567 144.475C224.03 147.334 216.183 147.994 210.033 147.888C208.265 147.857 206.313 147.894 204.627 147.32L203.618 146.659L203.94 145.985L204.991 145.436C206.249 146.219 216.987 146.038 218.919 145.641L218.98 145.62C224.074 144.945 226.972 144.001 231.737 142.458Z" fill="#D69051"/>
<path d="M219.787 82.0738L220.998 81.157L222.235 81.9922C226.28 87.242 231.192 92.0387 234.039 98.0896L233.503 99.4508L230.662 103.514C230.311 101.968 229.47 100.609 229.056 99.0969C228.686 97.748 228.725 96.2877 228.485 94.9107C227.817 91.0807 223.074 84.3847 219.787 82.0738Z" fill="#FEFDFD"/>
<path d="M126.913 101.6C126.965 99.6823 131.036 93.8062 132.355 92.2062C133.546 90.7605 134.896 89.4674 136.241 88.1626L138.641 90.9125C141.92 93.5885 146.644 94.3251 150.768 93.9571L147.064 97.5598L144.797 99.8361C143.669 99.1511 141.839 99.8285 140.482 99.2732C138.342 98.3969 136.644 96.4663 134.592 95.3523C131.941 97.004 130.126 99.5238 128.16 101.883L127.867 101.887L126.36 104.835C126.229 103.713 127.108 102.803 126.913 101.6Z" fill="#B4642D"/>
<path d="M146.678 164.028L146.68 162.515C147.331 162.363 148.115 163.025 148.689 163.373C158.881 169.565 171.108 172.83 180.814 179.389C182.209 180.332 183.476 181.474 184.775 182.539C183.384 176.298 177.678 170.243 173.932 165.149C178.694 166.32 187.663 171.195 191.422 174.478C193.472 176.27 195.148 178.359 197.096 180.226L205.709 189.076H195.504H188.361H180.814L177.887 186.917L177.808 186.696C177.375 185.825 174.825 184.934 173.879 184.447C169.014 181.942 159.271 176.261 155.522 172.721C154.539 171.792 147.515 163.932 146.968 163.734L146.678 164.028Z" fill="#B4642D"/>
<path d="M214.731 127.957L212.944 126.258L213.055 126.016L215.248 126.834L214.731 127.957Z" fill="#561A05"/>
<path d="M209.588 108.854C210.458 109.38 211.429 109.569 211.673 110.789C212.354 110.365 213.109 109.931 213.788 109.42L213.705 109.59C215.707 112.563 218.611 114.969 221.132 117.509C222.964 119.354 224.646 121.356 226.28 123.37C227.276 124.597 228.428 125.936 229.033 127.396C227.097 127.631 219.949 127.748 218.84 128.877L215.276 126.835L214.76 127.958L216.809 129.746L216.649 129.734C215.386 129.676 214.799 129.241 213.884 128.458C211.457 126.005 208.344 123.747 206.597 120.759C207.185 119.618 206.873 111.633 206.865 109.862L209.588 108.854ZM188.164 70.8813C189.452 70.9829 190.812 71.451 192.035 71.853C198.605 74.0113 205.426 78.1844 209.952 83.396L213.019 87.2456L214.065 89.0474C215.413 86.3468 217.707 84.2141 219.808 82.0747C223.095 84.3856 227.838 91.0817 228.506 94.9116C228.746 96.2886 228.707 97.7493 229.077 99.0981C229.491 100.611 230.332 101.969 230.683 103.515L227.095 106.925L226.084 108.099L226.125 108.523C225.927 108.603 225.618 108.784 225.417 108.813C224.337 108.967 221.124 107.537 220.015 107.089L216.289 105.206L216.102 105.071L215.992 104.988L215.841 105.29C215.771 104.115 215.375 102.895 214.826 101.968L214.652 102.036C214.715 103.776 214.743 105.335 213.398 106.68C212.897 107.181 212.294 107.549 211.641 107.8C211.212 106.507 209.806 106.574 208.908 105.552L209.704 105.495C211.073 105.419 212.454 104.946 213.437 103.962C214.782 102.617 214.753 101.057 214.69 99.3169L213.685 96.2671C213.134 94.7225 212.25 93.2912 211.391 91.895C206.518 83.9699 198.733 77.8513 190.405 73.6938C188.342 72.6644 186.065 72.1171 183.985 71.1118L183.735 70.9888L187.835 71.3218L188.164 70.8813Z" fill="#E58A3C"/>
<path d="M205.514 68.1799C208.114 69.743 210.553 72.0187 212.161 74.5631L210.777 73.543L210.852 74.7334L205.514 68.1799Z" fill="#F9CD88"/>
<path d="M160.706 65.9373C164.808 67.3776 168.749 68.6901 173.108 69.1902C178.092 69.7613 183.264 69.6138 188.148 70.8845L187.82 71.325L183.72 70.9919L183.97 71.115C186.05 72.1203 188.327 72.6676 190.39 73.697C198.718 77.8545 206.503 83.973 211.376 91.8982C212.235 93.2945 213.119 94.7265 213.67 96.2712L214.675 99.321C214.738 101.061 214.767 102.62 213.422 103.966C212.439 104.949 211.057 105.422 209.688 105.498L208.896 105.555C208.895 105.553 208.892 105.552 208.891 105.55C207.021 105.135 205.119 104.895 203.262 104.422C199.308 103.413 195.443 102.045 191.529 100.895C189.222 100.218 186.843 99.6896 184.572 98.906C187.024 104.244 191.567 110.345 197.257 112.489L200.85 113.355L205.037 118.82L206.58 120.756C207.168 119.614 206.855 111.631 206.848 109.859L211.695 108.067C211.696 108.069 211.696 108.071 211.696 108.073L206.85 109.865C206.857 111.636 207.17 119.621 206.582 120.762L205.039 118.827L204.512 119.208C203.222 119.635 201.081 119.271 199.726 119.159C194.628 118.739 188.516 115.693 185.521 111.557C184.542 110.206 183.557 107.081 182.104 106.374L181.473 106.92C179.806 108.611 177.859 110.153 176.069 111.721C173.536 113.939 171.032 116.322 168.779 118.818C166.292 121.574 163.67 124.368 161.437 127.321C159.406 130.006 157.685 132.908 155.405 135.41C155.85 133.66 156.024 131.805 156.356 130.026C156.862 127.316 157.563 124.613 158.37 121.974C161.976 110.179 171.231 97.9763 180.228 89.4841C175.531 91.9734 170.163 94.8621 165.823 97.8884C162.489 100.214 159.453 102.889 156.242 105.368C158.416 100.455 161.015 97.3921 164.408 93.3259L168.259 89.1814C172.82 85.645 177.941 83.2886 183.151 80.8357C176.275 78.0277 170.976 75.1165 165.333 70.283C163.721 68.9019 162.098 67.5384 160.706 65.9373Z" fill="#FEFDFD"/>
<path d="M127.415 135.14L130.635 129.065L130.573 131.459C129.683 133.206 128.888 133.862 127.415 135.14Z" fill="#561A05"/>
<path d="M140.75 172.737L145.791 178.78L145.047 179.481C143.275 178.375 141.329 174.646 140.75 172.737Z" fill="#F9CD88"/>
<path d="M104.945 138.399L106.554 146.551L105.756 146.532C104.74 148.141 105.321 150.323 105.095 152.112C104.396 148.738 104.703 141.996 104.945 138.399Z" fill="#47150B"/>
<path d="M145.044 179.483L145.788 178.781C147.526 180.533 149.248 182.326 151.155 183.903C153.19 185.586 155.382 187.061 157.273 188.908L154.075 188.827L153.476 188.831L145.044 179.483Z" fill="#FEFDFD"/>
<g style="mix-blend-mode:hard-light" filter="url(#filter6_f_1417_133)">
<ellipse cx="229.268" cy="107.337" rx="2.02882" ry="1.45439" fill="#FF922D" fill-opacity="0.3"/>
</g>
<g style="mix-blend-mode:hard-light" filter="url(#filter7_f_1417_133)">
<path d="M229.114 106.524C229.708 106.205 230.243 106.073 230.885 106.236L228.997 108.358L228.848 108.459L228.777 108.502L227.642 107.68L229.114 106.524Z" stroke="#FFAB2D" stroke-width="0.0786142"/>
</g>
<g style="mix-blend-mode:hard-light" filter="url(#filter8_f_1417_133)">
<path d="M229.119 106.535C229.706 106.221 230.232 106.089 230.862 106.242L228.987 108.35L228.843 108.448L228.777 108.488L227.663 107.68L229.119 106.535Z" stroke="#FFAB2D" stroke-width="0.102803"/>
</g>
<g style="mix-blend-mode:hard-light" filter="url(#filter9_ddi_1417_133)">
<path d="M229.114 106.524C229.708 106.205 230.243 106.073 230.885 106.236L228.997 108.358L228.848 108.459L228.777 108.502L227.642 107.68L229.114 106.524Z" stroke="#FFC940" stroke-opacity="0.2" stroke-width="0.0786142"/>
</g>
<g filter="url(#filter10_f_1417_133)">
<path d="M229.108 106.51C229.712 106.187 230.256 106.054 230.914 106.227L229.009 108.368L228.858 108.471L228.776 108.52L227.618 107.68L229.108 106.51Z" stroke="#FFD56A" stroke-width="0.048378"/>
</g>
<g filter="url(#filter11_f_1417_133)">
<path d="M229.099 106.501C229.712 106.173 230.265 106.037 230.936 106.219L229.016 108.378L228.864 108.482L228.776 108.534L227.597 107.68L229.099 106.501Z" stroke="white" stroke-width="0.024189"/>
</g>
<g style="mix-blend-mode:hard-light" filter="url(#filter12_f_1417_133)">
<path d="M252.596 135.857C252.596 198.739 200.751 249.714 136.798 249.714C72.8445 249.714 21 198.739 21 135.857C21 72.9756 72.8445 22 136.798 22C200.751 22 252.596 72.9756 252.596 135.857Z" fill="#FF922D" fill-opacity="0.132"/>
</g>
<g style="mix-blend-mode:hard-light" filter="url(#filter13_f_1417_133)">
<path d="M136 25.8054C130.413 26.6341 124.87 27.8357 119.459 29.3904C120.705 29.0147 121.958 28.657 123.219 28.3201L124.627 27.9529C128.378 26.9982 132.172 26.2909 136 25.8054Z" stroke="#FFAB2D" stroke-width="4.18195"/>
</g>
<g style="mix-blend-mode:hard-light" filter="url(#filter14_f_1417_133)">
<mask id="path-62-inside-1_1417_133" fill="white">
<path d="M52.2825 195.984C51.5752 194.769 50.7958 193.52 49.8269 192.491C48.6407 191.231 47.2495 190.144 46.2365 188.733C43.5778 185.031 39.8655 173.796 38.6261 169.17C30.4173 138.53 34.6612 107.063 50.9576 79.7067C66.9883 52.7951 93.4928 33.7208 124.112 25.9261C132.246 23.8553 140.569 22.9194 148.962 22.89C151.317 22.8818 153.723 22.8314 156.05 23.2291C158.967 23.7277 161.832 24.8817 164.64 25.7913C166.454 26.3789 168.631 26.7306 170.274 27.6802C145.025 23.9765 116.713 29.3959 94.6611 42.0091C68.3119 57.0805 48.9871 82.1274 41.1838 111.079C33.9534 137.905 38.3979 170.567 52.5925 194.563L52.4903 195.941L52.2825 195.984Z"/>
</mask>
<path d="M52.2825 195.984L47.5567 198.736L49.5354 202.134L53.3865 201.34L52.2825 195.984ZM49.8269 192.491L45.8449 196.24L45.8454 196.24L49.8269 192.491ZM46.2365 188.733L41.7946 191.923L41.7947 191.923L46.2365 188.733ZM38.6261 169.17L33.3437 170.585L33.3437 170.586L38.6261 169.17ZM50.9576 79.7067L55.6559 82.5055L55.6559 82.5054L50.9576 79.7067ZM124.112 25.9261L122.762 20.6265L122.762 20.6265L124.112 25.9261ZM148.962 22.89L148.943 17.4213L148.943 17.4213L148.962 22.89ZM156.05 23.2291L156.972 17.8386L156.972 17.8386L156.05 23.2291ZM164.64 25.7913L166.326 20.5887L166.325 20.5886L164.64 25.7913ZM170.274 27.6802L169.48 33.091L173.01 22.9453L170.274 27.6802ZM94.6611 42.0091L97.3764 46.7561L97.3764 46.7561L94.6611 42.0091ZM41.1838 111.079L35.9035 109.655L35.9035 109.655L41.1838 111.079ZM52.5925 194.563L58.0462 194.967L58.173 193.255L57.2993 191.778L52.5925 194.563ZM52.4903 195.941L53.5944 201.297L57.6389 200.463L57.9441 196.345L52.4903 195.941ZM52.2825 195.984L57.0082 193.232C56.2782 191.978 55.2368 190.259 53.8084 188.742L49.8269 192.491L45.8454 196.24C46.3547 196.781 46.8723 197.561 47.5567 198.736L52.2825 195.984ZM49.8269 192.491L53.8089 188.743C53.1092 188 52.2268 187.183 51.78 186.749C51.2201 186.204 50.8975 185.848 50.6782 185.543L46.2365 188.733L41.7947 191.923C42.5884 193.028 43.4679 193.922 44.1535 194.588C44.9521 195.365 45.3584 195.723 45.8449 196.24L49.8269 192.491ZM46.2365 188.733L50.6784 185.543C49.8481 184.387 48.4791 181.348 47.0319 177.411C45.6665 173.697 44.4805 169.89 43.9085 167.755L38.6261 169.17L33.3437 170.586C34.0112 173.077 35.3011 177.2 36.7663 181.185C38.1497 184.948 39.9662 189.377 41.7946 191.923L46.2365 188.733ZM38.6261 169.17L43.9085 167.755C36.0786 138.529 40.1211 108.583 55.6559 82.5055L50.9576 79.7067L46.2594 76.9079C29.2012 105.543 24.756 138.531 33.3437 170.585L38.6261 169.17ZM50.9576 79.7067L55.6559 82.5054C70.9049 56.9061 96.1668 38.6832 125.461 31.2258L124.112 25.9261L122.762 20.6265C90.8187 28.7584 63.0716 48.6842 46.2593 76.908L50.9576 79.7067ZM124.112 25.9261L125.461 31.2258C133.111 29.2783 140.982 28.3867 148.981 28.3586L148.962 22.89L148.943 17.4213C140.156 17.4521 131.382 18.4322 122.762 20.6265L124.112 25.9261ZM148.962 22.89L148.981 28.3586C151.521 28.3498 153.376 28.3201 155.129 28.6197L156.05 23.2291L156.972 17.8386C154.07 17.3427 151.112 17.4137 148.943 17.4213L148.962 22.89ZM156.05 23.2291L155.129 28.6196C157.528 29.0297 159.64 29.9201 162.955 30.9939L164.64 25.7913L166.325 20.5886C164.024 19.8433 160.406 18.4257 156.972 17.8386L156.05 23.2291ZM164.64 25.7913L162.955 30.9938C163.923 31.3075 165.444 31.6934 166.013 31.8567C166.883 32.1061 167.313 32.2852 167.538 32.4152L170.274 27.6802L173.01 22.9453C171.592 22.1256 170.113 21.6541 169.029 21.3433C167.646 20.9464 167.171 20.8626 166.326 20.5887L164.64 25.7913ZM170.274 27.6802L171.068 22.2694C144.602 18.3871 115.054 24.0444 91.9459 37.2621L94.6611 42.0091L97.3764 46.7561C118.371 34.7475 145.449 29.5659 169.48 33.091L170.274 27.6802ZM94.6611 42.0091L91.9459 37.2621C64.3413 53.0516 44.0879 79.2904 35.9035 109.655L41.1838 111.079L46.4641 112.502C53.8863 84.9643 72.2825 61.1095 97.3764 46.7561L94.6611 42.0091ZM41.1838 111.079L35.9035 109.655C28.2893 137.906 32.9418 172.085 47.8856 197.347L52.5925 194.563L57.2993 191.778C43.8541 169.049 39.6174 137.904 46.4641 112.502L41.1838 111.079ZM52.5925 194.563L47.1387 194.159L47.0366 195.537L52.4903 195.941L57.9441 196.345L58.0462 194.967L52.5925 194.563ZM52.4903 195.941L51.3863 190.585L51.1784 190.628L52.2825 195.984L53.3865 201.34L53.5944 201.297L52.4903 195.941Z" fill="#FFAB2D" mask="url(#path-62-inside-1_1417_133)"/>
</g>
<g style="mix-blend-mode:hard-light" filter="url(#filter15_ddi_1417_133)">
<path d="M136 25.8054C130.413 26.6341 124.87 27.8357 119.459 29.3904C120.705 29.0147 121.958 28.657 123.219 28.3201L124.627 27.9529C128.378 26.9982 132.172 26.2909 136 25.8054Z" stroke="#FFC940" stroke-opacity="0.2" stroke-width="4.18195"/>
</g>
<g filter="url(#filter16_f_1417_133)">
<path d="M148.966 24.1765C151.215 24.1687 153.356 24.1287 155.421 24.4324L155.833 24.4978C156.994 24.6962 158.136 25.0021 159.285 25.3582C137.241 24.4046 113.981 29.7688 95.0718 40.2996L94.022 40.8923C67.7939 55.8945 48.4467 80.6708 40.3198 109.374L39.9409 110.744C33.2307 135.641 36.4488 165.458 48.0991 188.967C47.8675 188.717 47.6497 188.468 47.4507 188.21L47.2817 187.982C46.0699 186.295 44.5297 182.724 43.1069 178.854C41.8789 175.514 40.7869 172.089 40.1255 169.763L39.8687 168.838C31.8758 139.003 35.8174 108.393 51.3159 81.6365L52.063 80.365C67.6621 54.1779 93.3053 35.4799 123.011 27.5427L124.429 27.1736C131.949 25.2594 139.64 24.3263 147.412 24.1931L148.966 24.1765Z" stroke="#FFD56A" stroke-width="2.57351"/>
</g>
<g filter="url(#filter17_f_1417_133)">
<path d="M148.964 23.533C151.192 23.5252 153.389 23.4828 155.517 23.7957L155.942 23.863C158.718 24.3376 161.42 25.411 164.204 26.324C140.854 24.2752 115.612 29.5971 95.3853 40.8611L94.3413 41.4509C68.2585 56.3701 49.0197 81.0093 40.939 109.55L40.563 110.911C33.5317 136.999 37.4711 168.546 50.6353 192.428L50.2954 192.051C49.6898 191.407 49.0175 190.793 48.4155 190.208C47.8771 189.684 47.3748 189.164 46.9409 188.601L46.7593 188.358C45.4887 186.589 43.9225 182.936 42.5034 179.076C41.2701 175.721 40.1728 172.281 39.5063 169.937L39.2476 169.004C31.2109 139.006 35.1745 108.22 50.7593 81.3142L51.5103 80.0359C67.1999 53.6968 92.9862 34.8997 122.845 26.9216L124.27 26.5496C131.843 24.6218 139.584 23.6835 147.4 23.5496L148.964 23.533Z" stroke="white" stroke-width="1.28675"/>
</g>
<g style="mix-blend-mode:hard-light" filter="url(#filter18_f_1417_133)">
<path d="M149.017 22.8196C151.237 22.8118 153.455 22.768 155.604 23.0842L156.033 23.1526C158.551 23.5829 161.015 24.5044 163.499 25.3459L164.564 25.7004C165.232 25.9167 165.967 26.1083 166.684 26.301C142.708 23.648 116.444 28.933 95.5488 40.5696L94.5068 41.1575C68.475 56.0474 49.2737 80.6383 41.209 109.121L40.833 110.481C33.5848 137.373 38.0208 170.089 52.2188 194.171L52.1982 194.45C51.7082 193.651 51.1707 192.849 50.5518 192.125L50.1846 191.716C49.5833 191.077 48.9208 190.473 48.3115 189.88C47.7709 189.354 47.2594 188.826 46.8154 188.25L46.6289 188C45.3378 186.202 43.7624 182.521 42.3447 178.665C41.1096 175.306 40.011 171.859 39.3428 169.509L39.083 168.573C31.031 138.518 35.0033 107.671 50.6182 80.7131L51.3701 79.4319C67.0915 53.0395 92.928 34.2074 122.841 26.2151L124.268 25.843C131.859 23.9105 139.618 22.9694 147.449 22.8352L149.017 22.8196Z" stroke="#FFAB2D" stroke-width="0.836391"/>
</g>
<g style="mix-blend-mode:hard-light" filter="url(#filter19_f_1417_133)">
<path d="M149.018 22.9485C151.242 22.9407 153.448 22.8969 155.585 23.2112L156.012 23.2795C158.518 23.7081 160.967 24.6251 163.456 25.468L164.525 25.8225C164.732 25.8894 164.946 25.9529 165.163 26.0159C141.579 23.7465 115.96 29.0555 95.4863 40.4573L94.4424 41.0452C68.3812 55.9518 49.1588 80.5712 41.085 109.087L40.709 110.448C33.5781 136.905 37.742 168.986 51.375 192.969C51.1452 192.651 50.9044 192.339 50.6494 192.041L50.2783 191.628C49.6745 190.987 49.0065 190.376 48.4014 189.787C47.8621 189.263 47.3552 188.74 46.917 188.172L46.7334 187.925C45.454 186.143 43.8842 182.478 42.4658 178.62C41.2318 175.264 40.133 171.821 39.4658 169.475L39.208 168.54C31.1647 138.518 35.1319 107.705 50.7295 80.7776L51.4805 79.4983C67.1838 53.1363 92.9917 34.3233 122.874 26.3391L124.3 25.967C131.881 24.0372 139.63 23.0981 147.452 22.9641L149.018 22.9485Z" stroke="#FFAB2D" stroke-width="1.09374"/>
</g>
<g style="mix-blend-mode:hard-light" filter="url(#filter20_ddi_1417_133)">
<path d="M149.017 22.8196C151.237 22.8118 153.455 22.768 155.604 23.0842L156.033 23.1526C158.551 23.5829 161.015 24.5044 163.499 25.3459L164.564 25.7004C165.232 25.9167 165.967 26.1083 166.684 26.301C142.708 23.648 116.444 28.933 95.5488 40.5696L94.5068 41.1575C68.475 56.0474 49.2737 80.6383 41.209 109.121L40.833 110.481C33.5848 137.373 38.0208 170.089 52.2188 194.171L52.1982 194.45C51.7082 193.651 51.1707 192.849 50.5518 192.125L50.1846 191.716C49.5833 191.077 48.9208 190.473 48.3115 189.88C47.7709 189.354 47.2594 188.826 46.8154 188.25L46.6289 188C45.3378 186.202 43.7624 182.521 42.3447 178.665C41.1096 175.306 40.011 171.859 39.3428 169.509L39.083 168.573C31.031 138.518 35.0033 107.671 50.6182 80.7131L51.3701 79.4319C67.0915 53.0395 92.928 34.2074 122.841 26.2151L124.268 25.843C131.859 23.9105 139.618 22.9694 147.449 22.8352L149.017 22.8196Z" stroke="#FFC940" stroke-opacity="0.2" stroke-width="0.836391"/>
</g>
<g filter="url(#filter21_f_1417_133)">
<path d="M149.017 22.6584C151.232 22.6507 153.463 22.6066 155.628 22.925L156.061 22.9944C158.591 23.427 161.073 24.3549 163.552 25.1946L164.614 25.5471C165.524 25.8419 166.547 26.0841 167.504 26.3586C167.863 26.4618 168.217 26.5706 168.561 26.6897C144.115 23.5388 117.045 28.7816 95.627 40.7092L94.5869 41.2971C68.5913 56.1663 49.4164 80.7228 41.3633 109.165L40.9883 110.523C33.7469 137.39 38.1853 170.085 52.3818 194.134L52.3203 194.969C51.7627 194.03 51.1519 193.075 50.4297 192.231L50.0674 191.826C49.4692 191.191 48.8136 190.593 48.1992 189.995C47.6569 189.468 47.1388 188.933 46.6875 188.348L46.499 188.094C45.1933 186.276 43.6111 182.575 42.1943 178.721C40.958 175.358 39.8569 171.907 39.1875 169.553L38.9277 168.615C30.8648 138.518 34.8421 107.627 50.4785 80.6321L51.2324 79.3499C66.9764 52.9196 92.8479 34.0624 122.799 26.0598L124.229 25.6868C131.834 23.7508 139.605 22.8094 147.447 22.675L149.017 22.6584Z" stroke="#FFD56A" stroke-width="0.514702"/>
</g>
<g filter="url(#filter22_f_1417_133)">
<path d="M149.016 22.5295C151.227 22.5218 153.469 22.4778 155.647 22.7981L156.082 22.8674C158.623 23.3019 161.121 24.2351 163.595 25.0735L164.654 25.425C165.563 25.7193 166.573 25.9573 167.539 26.2346C168.25 26.4387 168.944 26.667 169.582 26.9563C144.894 23.5224 117.387 28.739 95.6895 40.8225L94.6504 41.4084C68.6839 56.261 49.5312 80.7906 41.4873 109.2L41.1123 110.556C33.8764 137.403 38.3183 170.082 52.5137 194.104L52.4219 195.346L52.3994 195.35C51.7928 194.312 51.1277 193.245 50.332 192.315L49.9736 191.914C49.378 191.282 48.7279 190.689 48.1094 190.087C47.566 189.559 47.0429 189.02 46.5859 188.427L46.3945 188.169C45.077 186.335 43.4893 182.617 42.0732 178.765C40.8359 175.399 39.7339 171.946 39.0635 169.588L38.8037 168.648C30.732 138.519 34.7135 107.592 50.3672 80.5676L51.1211 79.2834C66.8831 52.8229 92.7841 33.9466 122.766 25.9358L124.196 25.5618C131.812 23.6231 139.593 22.6807 147.444 22.5461L149.016 22.5295Z" stroke="white" stroke-width="0.257351"/>
</g>
<g style="mix-blend-mode:hard-light" filter="url(#filter23_f_1417_133)">
<path d="M198.566 107.861C198.294 107.045 196.071 106.727 194.994 106.671C195.538 109.8 198.169 111.036 199.416 111.263C199.36 111.206 199.552 111.093 200.777 111.093C202.002 111.093 202.875 110.186 203.158 109.732L203.498 108.882C203.498 108.825 203.328 108.644 202.648 108.371C201.797 108.031 200.097 110.072 199.927 110.072C199.756 110.072 198.906 108.882 198.566 107.861Z" fill="#FF922D" fill-opacity="0.498"/>
<path d="M198.566 107.861C198.294 107.045 196.071 106.727 194.994 106.671C195.538 109.8 198.169 111.036 199.416 111.263C199.36 111.206 199.552 111.093 200.777 111.093C202.002 111.093 202.875 110.186 203.158 109.732L203.498 108.882C203.498 108.825 203.328 108.644 202.648 108.371C201.797 108.031 200.097 110.072 199.927 110.072C199.756 110.072 198.906 108.882 198.566 107.861Z" stroke="#FFAB2D" stroke-width="0.177346"/>
</g>
<g style="mix-blend-mode:hard-light" filter="url(#filter24_f_1417_133)">
<path d="M198.566 107.861C198.294 107.045 196.071 106.727 194.994 106.671C195.538 109.8 198.169 111.036 199.416 111.263C199.36 111.206 199.552 111.093 200.777 111.093C202.002 111.093 202.875 110.186 203.158 109.732L203.498 108.882C203.498 108.825 203.328 108.644 202.648 108.371C201.797 108.031 200.097 110.072 199.927 110.072C199.756 110.072 198.906 108.882 198.566 107.861Z" fill="#FF922D" fill-opacity="0.498"/>
<path d="M198.566 107.861C198.294 107.045 196.071 106.727 194.994 106.671C195.538 109.8 198.169 111.036 199.416 111.263C199.36 111.206 199.552 111.093 200.777 111.093C202.002 111.093 202.875 110.186 203.158 109.732L203.498 108.882C203.498 108.825 203.328 108.644 202.648 108.371C201.797 108.031 200.097 110.072 199.927 110.072C199.756 110.072 198.906 108.882 198.566 107.861Z" stroke="#FFAB2D" stroke-width="0.231914"/>
</g>
<g style="mix-blend-mode:hard-light" filter="url(#filter25_ddi_1417_133)">
<path d="M198.566 107.861C198.294 107.045 196.071 106.727 194.994 106.671C195.538 109.8 198.169 111.036 199.416 111.263C199.36 111.206 199.552 111.093 200.777 111.093C202.002 111.093 202.875 110.186 203.158 109.732L203.498 108.882C203.498 108.825 203.328 108.644 202.648 108.371C201.797 108.031 200.097 110.072 199.927 110.072C199.756 110.072 198.906 108.882 198.566 107.861Z" fill="#FF922D" fill-opacity="0.498"/>
<path d="M198.566 107.861C198.294 107.045 196.071 106.727 194.994 106.671C195.538 109.8 198.169 111.036 199.416 111.263C199.36 111.206 199.552 111.093 200.777 111.093C202.002 111.093 202.875 110.186 203.158 109.732L203.498 108.882C203.498 108.825 203.328 108.644 202.648 108.371C201.797 108.031 200.097 110.072 199.927 110.072C199.756 110.072 198.906 108.882 198.566 107.861Z" stroke="#FFC940" stroke-opacity="0.2" stroke-width="0.177346"/>
</g>
<g filter="url(#filter26_f_1417_133)">
<path d="M198.566 107.861C198.294 107.045 196.071 106.727 194.994 106.671C195.538 109.8 198.169 111.036 199.416 111.263C199.36 111.206 199.552 111.093 200.777 111.093C202.002 111.093 202.875 110.186 203.158 109.732L203.498 108.882C203.498 108.825 203.328 108.644 202.648 108.371C201.797 108.031 200.097 110.072 199.927 110.072C199.756 110.072 198.906 108.882 198.566 107.861Z" fill="#FF922D" fill-opacity="0.498"/>
<path d="M198.566 107.861C198.294 107.045 196.071 106.727 194.994 106.671C195.538 109.8 198.169 111.036 199.416 111.263C199.36 111.206 199.552 111.093 200.777 111.093C202.002 111.093 202.875 110.186 203.158 109.732L203.498 108.882C203.498 108.825 203.328 108.644 202.648 108.371C201.797 108.031 200.097 110.072 199.927 110.072C199.756 110.072 198.906 108.882 198.566 107.861Z" stroke="#FFD56A" stroke-width="0.109136"/>
</g>
<path d="M192.355 227.73C189.74 227.73 187.52 226.962 185.694 225.427C183.909 223.85 183.017 221.961 183.017 219.762V195.856H220.369V203.825H192.355V207.809H220.369V215.777H192.355V219.762H220.369V227.73H192.355Z" fill="url(#paint1_linear_1417_133)"/>
<path d="M169.445 219.762V215.777H150.769V219.762H169.445ZM169.445 207.809V203.825H150.769V207.809H169.445ZM141.431 227.73V195.856H169.445C172.018 195.856 174.218 196.645 176.044 198.222C177.87 199.799 178.783 201.667 178.783 203.825C178.783 206.066 177.87 207.954 176.044 209.49C174.218 211.025 172.018 211.793 169.445 211.793C172.018 211.793 174.218 212.582 176.044 214.159C177.87 215.736 178.783 217.603 178.783 219.762C178.783 222.003 177.87 223.891 176.044 225.427C174.218 226.962 172.018 227.73 169.445 227.73H141.431Z" fill="url(#paint2_linear_1417_133)"/>
<path d="M113.853 227.73V219.762H109.184C106.57 219.762 104.349 218.994 102.523 217.458C100.738 215.881 99.8462 213.993 99.8462 211.793V195.856H109.184V207.809C109.184 208.929 109.62 209.884 110.492 210.673C111.446 211.42 112.567 211.793 113.853 211.793H123.191C124.478 211.793 125.578 211.42 126.491 210.673C127.404 209.884 127.86 208.929 127.86 207.809V195.856H137.198V211.793C137.198 214.034 136.285 215.923 134.459 217.458C132.633 218.994 130.433 219.762 127.86 219.762H123.191V227.73H113.853Z" fill="url(#paint3_linear_1417_133)"/>
<path d="M67.5988 227.73C64.9841 227.73 62.7638 226.962 60.9376 225.427C59.153 223.85 58.2607 221.961 58.2607 219.762V203.825C58.2607 201.625 59.153 199.757 60.9376 198.222C62.7638 196.645 64.9841 195.856 67.5988 195.856H95.6129V203.825H72.2678C70.9812 203.825 69.8607 204.219 68.9061 205.007C68.0346 205.796 67.5988 206.73 67.5988 207.809V215.777C67.5988 216.898 68.0346 217.852 68.9061 218.641C69.8607 219.388 70.9812 219.762 72.2678 219.762H95.6129V227.73H67.5988Z" fill="url(#paint4_linear_1417_133)"/>
<path d="M248.862 195.727C251.141 195.727 252.976 196.012 254.365 196.582C255.789 197.116 256.877 197.846 257.625 198.772C258.408 199.662 258.942 200.678 259.227 201.818C259.512 202.958 259.655 204.115 259.655 205.291V206.305C259.655 208.442 259.103 210.366 257.999 212.076C256.93 213.75 255.22 214.943 252.87 215.656C253.76 216.19 254.597 216.742 255.38 217.312C256.2 217.846 257.126 218.416 258.159 219.021C259.334 219.698 260.42 220.197 261.417 220.517C262.45 220.802 263.305 220.98 263.982 221.051C264.659 221.123 265.051 221.159 265.158 221.159L263.554 227.196C263.127 227.303 262.468 227.409 261.578 227.516C260.723 227.659 259.797 227.73 258.799 227.73C257.375 227.73 255.79 227.516 254.044 227.088C252.299 226.625 250.571 225.521 248.862 223.776L246.619 221.533C245.55 220.464 244.516 219.591 243.519 218.915C242.557 218.238 241.453 217.739 240.207 217.418C238.96 217.062 237.393 216.884 235.505 216.884H235.078V227.196H224.66V207.817H248.857V203.906H224.66V195.727H248.862Z" fill="url(#paint5_linear_1417_133)"/>
<path d="M231.69 245.979V240.988H202.844V233.274H233.245C235.795 233.274 237.913 234.138 239.598 235.867C241.283 237.596 242.126 239.627 242.126 241.96V244.813C242.126 246.93 241.586 248.615 240.506 249.869C239.425 251.122 238.15 252.029 236.681 252.591C235.255 253.11 234.002 253.369 232.921 253.369L248.479 264H232.532L218.92 253.369H213.28V264H202.844V245.979H231.69Z" fill="url(#paint6_linear_1417_133)"/>
<path d="M183.021 247.859L180.039 243.127H169.149L175.566 233.274H184.123L204.153 264H192.809L187.04 254.86H171.807L166.167 264H155.601L166.102 247.859H183.021Z" fill="url(#paint7_linear_1417_133)"/>
<path d="M120.562 264L106.366 233.274H117.321L125.035 250.387L133.138 233.274H140.268L148.63 250.387L155.955 233.274H165.744L151.547 264H144.611L136.185 246.303C133.289 252.267 130.437 258.166 127.628 264H120.562Z" fill="url(#paint8_linear_1417_133)"/>
<defs>
<filter id="filter0_f_1417_133" x="88.9509" y="21.3914" width="155.041" height="77.7798" filterUnits="userSpaceOnUse" color-interpolation-filters="sRGB">
<feFlood flood-opacity="0" result="BackgroundImageFix"/>
<feBlend mode="normal" in="SourceGraphic" in2="BackgroundImageFix" result="shape"/>
<feGaussianBlur stdDeviation="5.01769" result="effect1_foregroundBlur_1417_133"/>
</filter>
<filter id="filter1_f_1417_133" x="100.198" y="26.2002" width="132.546" height="68.1616" filterUnits="userSpaceOnUse" color-interpolation-filters="sRGB">
<feFlood flood-opacity="0" result="BackgroundImageFix"/>
<feBlend mode="normal" in="SourceGraphic" in2="BackgroundImageFix" result="shape"/>
<feGaussianBlur stdDeviation="5.01769" result="effect1_foregroundBlur_1417_133"/>
</filter>
<filter id="filter2_f_1417_133" x="106.888" y="32.8905" width="119.166" height="54.7811" filterUnits="userSpaceOnUse" color-interpolation-filters="sRGB">
<feFlood flood-opacity="0" result="BackgroundImageFix"/>
<feBlend mode="normal" in="SourceGraphic" in2="BackgroundImageFix" result="shape"/>
<feGaussianBlur stdDeviation="1.67257" result="effect1_foregroundBlur_1417_133"/>
</filter>
<filter id="filter3_ddi_1417_133" x="105.885" y="35.2321" width="121.173" height="56.7882" filterUnits="userSpaceOnUse" color-interpolation-filters="sRGB">
<feFlood flood-opacity="0" result="BackgroundImageFix"/>
<feColorMatrix in="SourceAlpha" type="matrix" values="0 0 0 0 0 0 0 0 0 0 0 0 0 0 0 0 0 0 127 0" result="hardAlpha"/>
<feOffset dy="2.17433"/>
<feGaussianBlur stdDeviation="0.836283"/>
<feColorMatrix type="matrix" values="0 0 0 0 0.224 0 0 0 0 0.15 0 0 0 0 0 0 0 0 0.7 0"/>
<feBlend mode="multiply" in2="BackgroundImageFix" result="effect1_dropShadow_1417_133"/>
<feColorMatrix in="SourceAlpha" type="matrix" values="0 0 0 0 0 0 0 0 0 0 0 0 0 0 0 0 0 0 127 0" result="hardAlpha"/>
<feOffset dy="3.34513"/>
<feGaussianBlur stdDeviation="2.17433"/>
<feColorMatrix type="matrix" values="0 0 0 0 0.56 0 0 0 0 0.44 0 0 0 0 0 0 0 0 1 0"/>
<feBlend mode="color-dodge" in2="effect1_dropShadow_1417_133" result="effect2_dropShadow_1417_133"/>
<feBlend mode="normal" in="SourceGraphic" in2="effect2_dropShadow_1417_133" result="shape"/>
<feColorMatrix in="SourceAlpha" type="matrix" values="0 0 0 0 0 0 0 0 0 0 0 0 0 0 0 0 0 0 127 0" result="hardAlpha"/>
<feOffset dx="-0.217433" dy="0.434867"/>
<feGaussianBlur stdDeviation="0.108717"/>
<feComposite in2="hardAlpha" operator="arithmetic" k2="-1" k3="1"/>
<feColorMatrix type="matrix" values="0 0 0 0 1 0 0 0 0 1 0 0 0 0 1 0 0 0 0.5 0"/>
<feBlend mode="normal" in2="shape" result="effect3_innerShadow_1417_133"/>
</filter>
<filter id="filter4_f_1417_133" x="109.899" y="35.9011" width="113.145" height="48.7598" filterUnits="userSpaceOnUse" color-interpolation-filters="sRGB">
<feFlood flood-opacity="0" result="BackgroundImageFix"/>
<feBlend mode="normal" in="SourceGraphic" in2="BackgroundImageFix" result="shape"/>
<feGaussianBlur stdDeviation="0.167257" result="effect1_foregroundBlur_1417_133"/>
</filter>
<filter id="filter5_f_1417_133" x="110.01" y="36.0126" width="112.922" height="48.5368" filterUnits="userSpaceOnUse" color-interpolation-filters="sRGB">
<feFlood flood-opacity="0" result="BackgroundImageFix"/>
<feBlend mode="normal" in="SourceGraphic" in2="BackgroundImageFix" result="shape"/>
<feGaussianBlur stdDeviation="0.111504" result="effect1_foregroundBlur_1417_133"/>
</filter>
<filter id="filter6_f_1417_133" x="226.695" y="105.339" width="5.14612" height="3.9972" filterUnits="userSpaceOnUse" color-interpolation-filters="sRGB">
<feFlood flood-opacity="0" result="BackgroundImageFix"/>
<feBlend mode="normal" in="SourceGraphic" in2="BackgroundImageFix" result="shape"/>
<feGaussianBlur stdDeviation="0.272126" result="effect1_foregroundBlur_1417_133"/>
</filter>
<filter id="filter7_f_1417_133" x="227.033" y="105.581" width="4.46985" height="3.51258" filterUnits="userSpaceOnUse" color-interpolation-filters="sRGB">
<feFlood flood-opacity="0" result="BackgroundImageFix"/>
<feBlend mode="normal" in="SourceGraphic" in2="BackgroundImageFix" result="shape"/>
<feGaussianBlur stdDeviation="0.272126" result="effect1_foregroundBlur_1417_133"/>
</filter>
<filter id="filter8_f_1417_133" x="227.396" y="105.944" width="3.74418" height="2.78691" filterUnits="userSpaceOnUse" color-interpolation-filters="sRGB">
<feFlood flood-opacity="0" result="BackgroundImageFix"/>
<feBlend mode="normal" in="SourceGraphic" in2="BackgroundImageFix" result="shape"/>
<feGaussianBlur stdDeviation="0.0907087" result="effect1_foregroundBlur_1417_133"/>
</filter>
<filter id="filter9_ddi_1417_133" x="227.342" y="106.071" width="3.85303" height="2.89576" filterUnits="userSpaceOnUse" color-interpolation-filters="sRGB">
<feFlood flood-opacity="0" result="BackgroundImageFix"/>
<feColorMatrix in="SourceAlpha" type="matrix" values="0 0 0 0 0 0 0 0 0 0 0 0 0 0 0 0 0 0 127 0" result="hardAlpha"/>
<feOffset dy="0.0786142"/>
<feGaussianBlur stdDeviation="0.0302362"/>
<feColorMatrix type="matrix" values="0 0 0 0 0.224 0 0 0 0 0.15 0 0 0 0 0 0 0 0 0.7 0"/>
<feBlend mode="multiply" in2="BackgroundImageFix" result="effect1_dropShadow_1417_133"/>
<feColorMatrix in="SourceAlpha" type="matrix" values="0 0 0 0 0 0 0 0 0 0 0 0 0 0 0 0 0 0 127 0" result="hardAlpha"/>
<feOffset dy="0.181417"/>
<feGaussianBlur stdDeviation="0.117921"/>
<feColorMatrix type="matrix" values="0 0 0 0 0.56 0 0 0 0 0.44 0 0 0 0 0 0 0 0 1 0"/>
<feBlend mode="color-dodge" in2="effect1_dropShadow_1417_133" result="effect2_dropShadow_1417_133"/>
<feBlend mode="normal" in="SourceGraphic" in2="effect2_dropShadow_1417_133" result="shape"/>
<feColorMatrix in="SourceAlpha" type="matrix" values="0 0 0 0 0 0 0 0 0 0 0 0 0 0 0 0 0 0 127 0" result="hardAlpha"/>
<feOffset dx="-0.00786142" dy="0.0157228"/>
<feGaussianBlur stdDeviation="0.00393071"/>
<feComposite in2="hardAlpha" operator="arithmetic" k2="-1" k3="1"/>
<feColorMatrix type="matrix" values="0 0 0 0 1 0 0 0 0 1 0 0 0 0 1 0 0 0 0.5 0"/>
<feBlend mode="normal" in2="shape" result="effect3_innerShadow_1417_133"/>
</filter>
<filter id="filter10_f_1417_133" x="227.566" y="106.113" width="3.40554" height="2.44826" filterUnits="userSpaceOnUse" color-interpolation-filters="sRGB">
<feFlood flood-opacity="0" result="BackgroundImageFix"/>
<feBlend mode="normal" in="SourceGraphic" in2="BackgroundImageFix" result="shape"/>
<feGaussianBlur stdDeviation="0.00604725" result="effect1_foregroundBlur_1417_133"/>
</filter>
<filter id="filter11_f_1417_133" x="227.57" y="106.117" width="3.39747" height="2.4402" filterUnits="userSpaceOnUse" color-interpolation-filters="sRGB">
<feFlood flood-opacity="0" result="BackgroundImageFix"/>
<feBlend mode="normal" in="SourceGraphic" in2="BackgroundImageFix" result="shape"/>
<feGaussianBlur stdDeviation="0.0040315" result="effect1_foregroundBlur_1417_133"/>
</filter>
<filter id="filter12_f_1417_133" x="8.26113" y="9.26113" width="257.074" height="253.192" filterUnits="userSpaceOnUse" color-interpolation-filters="sRGB">
<feFlood flood-opacity="0" result="BackgroundImageFix"/>
<feBlend mode="normal" in="SourceGraphic" in2="BackgroundImageFix" result="shape"/>
<feGaussianBlur stdDeviation="6.36944" result="effect1_foregroundBlur_1417_133"/>
</filter>
<filter id="filter13_f_1417_133" x="21.8143" y="10.1447" width="161.198" height="198.578" filterUnits="userSpaceOnUse" color-interpolation-filters="sRGB">
<feFlood flood-opacity="0" result="BackgroundImageFix"/>
<feBlend mode="normal" in="SourceGraphic" in2="BackgroundImageFix" result="shape"/>
<feGaussianBlur stdDeviation="6.36944" result="effect1_foregroundBlur_1417_133"/>
</filter>
<filter id="filter14_f_1417_133" x="30.3069" y="18.6373" width="144.213" height="181.593" filterUnits="userSpaceOnUse" color-interpolation-filters="sRGB">
<feFlood flood-opacity="0" result="BackgroundImageFix"/>
<feBlend mode="normal" in="SourceGraphic" in2="BackgroundImageFix" result="shape"/>
<feGaussianBlur stdDeviation="2.12315" result="effect1_foregroundBlur_1417_133"/>
</filter>
<filter id="filter15_ddi_1417_133" x="29.033" y="21.6097" width="146.761" height="184.141" filterUnits="userSpaceOnUse" color-interpolation-filters="sRGB">
<feFlood flood-opacity="0" result="BackgroundImageFix"/>
<feColorMatrix in="SourceAlpha" type="matrix" values="0 0 0 0 0 0 0 0 0 0 0 0 0 0 0 0 0 0 127 0" result="hardAlpha"/>
<feOffset dy="4.18195"/>
<feGaussianBlur stdDeviation="1.60844"/>
<feColorMatrix type="matrix" values="0 0 0 0 0.224 0 0 0 0 0.15 0 0 0 0 0 0 0 0 0.7 0"/>
<feBlend mode="multiply" in2="BackgroundImageFix" result="effect1_dropShadow_1417_133"/>
<feColorMatrix in="SourceAlpha" type="matrix" values="0 0 0 0 0 0 0 0 0 0 0 0 0 0 0 0 0 0 127 0" result="hardAlpha"/>
<feOffset dy="4.24629"/>
<feGaussianBlur stdDeviation="2.76009"/>
<feColorMatrix type="matrix" values="0 0 0 0 0.56 0 0 0 0 0.44 0 0 0 0 0 0 0 0 1 0"/>
<feBlend mode="color-dodge" in2="effect1_dropShadow_1417_133" result="effect2_dropShadow_1417_133"/>
<feBlend mode="normal" in="SourceGraphic" in2="effect2_dropShadow_1417_133" result="shape"/>
<feColorMatrix in="SourceAlpha" type="matrix" values="0 0 0 0 0 0 0 0 0 0 0 0 0 0 0 0 0 0 127 0" result="hardAlpha"/>
<feOffset dx="-0.418195" dy="0.836391"/>
<feGaussianBlur stdDeviation="0.209098"/>
<feComposite in2="hardAlpha" operator="arithmetic" k2="-1" k3="1"/>
<feColorMatrix type="matrix" values="0 0 0 0 1 0 0 0 0 1 0 0 0 0 1 0 0 0 0.5 0"/>
<feBlend mode="normal" in2="shape" result="effect3_innerShadow_1417_133"/>
</filter>
<filter id="filter16_f_1417_133" x="33.9098" y="22.2402" width="137.007" height="174.387" filterUnits="userSpaceOnUse" color-interpolation-filters="sRGB">
<feFlood flood-opacity="0" result="BackgroundImageFix"/>
<feBlend mode="normal" in="SourceGraphic" in2="BackgroundImageFix" result="shape"/>
<feGaussianBlur stdDeviation="0.321689" result="effect1_foregroundBlur_1417_133"/>
</filter>
<filter id="filter17_f_1417_133" x="34.1243" y="22.4546" width="136.579" height="173.958" filterUnits="userSpaceOnUse" color-interpolation-filters="sRGB">
<feFlood flood-opacity="0" result="BackgroundImageFix"/>
<feBlend mode="normal" in="SourceGraphic" in2="BackgroundImageFix" result="shape"/>
<feGaussianBlur stdDeviation="0.214459" result="effect1_foregroundBlur_1417_133"/>
</filter>
<filter id="filter18_f_1417_133" x="30.7462" y="18.5345" width="143.442" height="180.821" filterUnits="userSpaceOnUse" color-interpolation-filters="sRGB">
<feFlood flood-opacity="0" result="BackgroundImageFix"/>
<feBlend mode="normal" in="SourceGraphic" in2="BackgroundImageFix" result="shape"/>
<feGaussianBlur stdDeviation="1.93013" result="effect1_foregroundBlur_1417_133"/>
</filter>
<filter id="filter19_f_1417_133" x="33.3197" y="21.108" width="138.295" height="175.674" filterUnits="userSpaceOnUse" color-interpolation-filters="sRGB">
<feFlood flood-opacity="0" result="BackgroundImageFix"/>
<feBlend mode="normal" in="SourceGraphic" in2="BackgroundImageFix" result="shape"/>
<feGaussianBlur stdDeviation="0.643377" result="effect1_foregroundBlur_1417_133"/>
</filter>
<filter id="filter20_ddi_1417_133" x="32.9337" y="22.0087" width="139.067" height="176.446" filterUnits="userSpaceOnUse" color-interpolation-filters="sRGB">
<feFlood flood-opacity="0" result="BackgroundImageFix"/>
<feColorMatrix in="SourceAlpha" type="matrix" values="0 0 0 0 0 0 0 0 0 0 0 0 0 0 0 0 0 0 127 0" result="hardAlpha"/>
<feOffset dy="0.836391"/>
<feGaussianBlur stdDeviation="0.321689"/>
<feColorMatrix type="matrix" values="0 0 0 0 0.224 0 0 0 0 0.15 0 0 0 0 0 0 0 0 0.7 0"/>
<feBlend mode="multiply" in2="BackgroundImageFix" result="effect1_dropShadow_1417_133"/>
<feColorMatrix in="SourceAlpha" type="matrix" values="0 0 0 0 0 0 0 0 0 0 0 0 0 0 0 0 0 0 127 0" result="hardAlpha"/>
<feOffset dy="1.28675"/>
<feGaussianBlur stdDeviation="0.836391"/>
<feColorMatrix type="matrix" values="0 0 0 0 0.56 0 0 0 0 0.44 0 0 0 0 0 0 0 0 1 0"/>
<feBlend mode="color-dodge" in2="effect1_dropShadow_1417_133" result="effect2_dropShadow_1417_133"/>
<feBlend mode="normal" in="SourceGraphic" in2="effect2_dropShadow_1417_133" result="shape"/>
<feColorMatrix in="SourceAlpha" type="matrix" values="0 0 0 0 0 0 0 0 0 0 0 0 0 0 0 0 0 0 127 0" result="hardAlpha"/>
<feOffset dx="-0.0836391" dy="0.167278"/>
<feGaussianBlur stdDeviation="0.0418195"/>
<feComposite in2="hardAlpha" operator="arithmetic" k2="-1" k3="1"/>
<feColorMatrix type="matrix" values="0 0 0 0 1 0 0 0 0 1 0 0 0 0 1 0 0 0 0.5 0"/>
<feBlend mode="normal" in2="shape" result="effect3_innerShadow_1417_133"/>
</filter>
<filter id="filter21_f_1417_133" x="34.4778" y="22.2661" width="135.979" height="173.358" filterUnits="userSpaceOnUse" color-interpolation-filters="sRGB">
<feFlood flood-opacity="0" result="BackgroundImageFix"/>
<feBlend mode="normal" in="SourceGraphic" in2="BackgroundImageFix" result="shape"/>
<feGaussianBlur stdDeviation="0.0643377" result="effect1_foregroundBlur_1417_133"/>
</filter>
<filter id="filter22_f_1417_133" x="34.5207" y="22.309" width="135.893" height="173.272" filterUnits="userSpaceOnUse" color-interpolation-filters="sRGB">
<feFlood flood-opacity="0" result="BackgroundImageFix"/>
<feBlend mode="normal" in="SourceGraphic" in2="BackgroundImageFix" result="shape"/>
<feGaussianBlur stdDeviation="0.0428918" result="effect1_foregroundBlur_1417_133"/>
</filter>
<filter id="filter23_f_1417_133" x="193.668" y="105.357" width="11.1384" height="7.2639" filterUnits="userSpaceOnUse" color-interpolation-filters="sRGB">
<feFlood flood-opacity="0" result="BackgroundImageFix"/>
<feBlend mode="normal" in="SourceGraphic" in2="BackgroundImageFix" result="shape"/>
<feGaussianBlur stdDeviation="0.609797" result="effect1_foregroundBlur_1417_133"/>
</filter>
<filter id="filter24_f_1417_133" x="194.448" y="106.141" width="9.57234" height="5.7093" filterUnits="userSpaceOnUse" color-interpolation-filters="sRGB">
<feFlood flood-opacity="0" result="BackgroundImageFix"/>
<feBlend mode="normal" in="SourceGraphic" in2="BackgroundImageFix" result="shape"/>
<feGaussianBlur stdDeviation="0.203266" result="effect1_foregroundBlur_1417_133"/>
</filter>
<filter id="filter25_ddi_1417_133" x="194.359" y="106.454" width="9.7562" height="5.88169" filterUnits="userSpaceOnUse" color-interpolation-filters="sRGB">
<feFlood flood-opacity="0" result="BackgroundImageFix"/>
<feColorMatrix in="SourceAlpha" type="matrix" values="0 0 0 0 0 0 0 0 0 0 0 0 0 0 0 0 0 0 127 0" result="hardAlpha"/>
<feOffset dy="0.177346"/>
<feGaussianBlur stdDeviation="0.06821"/>
<feColorMatrix type="matrix" values="0 0 0 0 0.224 0 0 0 0 0.15 0 0 0 0 0 0 0 0 0.7 0"/>
<feBlend mode="multiply" in2="BackgroundImageFix" result="effect1_dropShadow_1417_133"/>
<feColorMatrix in="SourceAlpha" type="matrix" values="0 0 0 0 0 0 0 0 0 0 0 0 0 0 0 0 0 0 127 0" result="hardAlpha"/>
<feOffset dy="0.406531"/>
<feGaussianBlur stdDeviation="0.264245"/>
<feColorMatrix type="matrix" values="0 0 0 0 0.56 0 0 0 0 0.44 0 0 0 0 0 0 0 0 1 0"/>
<feBlend mode="color-dodge" in2="effect1_dropShadow_1417_133" result="effect2_dropShadow_1417_133"/>
<feBlend mode="normal" in="SourceGraphic" in2="effect2_dropShadow_1417_133" result="shape"/>
<feColorMatrix in="SourceAlpha" type="matrix" values="0 0 0 0 0 0 0 0 0 0 0 0 0 0 0 0 0 0 127 0" result="hardAlpha"/>
<feOffset dx="-0.0177346" dy="0.0354692"/>
<feGaussianBlur stdDeviation="0.0088673"/>
<feComposite in2="hardAlpha" operator="arithmetic" k2="-1" k3="1"/>
<feColorMatrix type="matrix" values="0 0 0 0 1 0 0 0 0 1 0 0 0 0 1 0 0 0 0.5 0"/>
<feBlend mode="normal" in2="shape" result="effect3_innerShadow_1417_133"/>
</filter>
<filter id="filter26_f_1417_133" x="194.901" y="106.585" width="8.67859" height="4.78992" filterUnits="userSpaceOnUse" color-interpolation-filters="sRGB">
<feFlood flood-opacity="0" result="BackgroundImageFix"/>
<feBlend mode="normal" in="SourceGraphic" in2="BackgroundImageFix" result="shape"/>
<feGaussianBlur stdDeviation="0.013642" result="effect1_foregroundBlur_1417_133"/>
</filter>
<linearGradient id="paint0_linear_1417_133" x1="106.86" y1="75.9699" x2="104.918" y2="84.6741" gradientUnits="userSpaceOnUse">
<stop stop-color="#C1661D"/>
<stop offset="1" stop-color="#995B30"/>
</linearGradient>
<linearGradient id="paint1_linear_1417_133" x1="201.693" y1="195.856" x2="201.693" y2="227.73" gradientUnits="userSpaceOnUse">
<stop offset="0.84" stop-color="#FFFEF8"/>
<stop offset="1" stop-color="#EEBC86"/>
</linearGradient>
<linearGradient id="paint2_linear_1417_133" x1="160.107" y1="195.856" x2="160.107" y2="227.73" gradientUnits="userSpaceOnUse">
<stop offset="0.84" stop-color="#FFFEF8"/>
<stop offset="1" stop-color="#EEBC86"/>
</linearGradient>
<linearGradient id="paint3_linear_1417_133" x1="118.522" y1="195.856" x2="118.522" y2="227.73" gradientUnits="userSpaceOnUse">
<stop offset="0.84" stop-color="#FFFEF8"/>
<stop offset="1" stop-color="#EEBC86"/>
</linearGradient>
<linearGradient id="paint4_linear_1417_133" x1="76.9368" y1="195.856" x2="76.9368" y2="227.73" gradientUnits="userSpaceOnUse">
<stop offset="0.84" stop-color="#FFFEF8"/>
<stop offset="1" stop-color="#EEBC86"/>
</linearGradient>
<linearGradient id="paint5_linear_1417_133" x1="244.909" y1="195.727" x2="244.909" y2="227.73" gradientUnits="userSpaceOnUse">
<stop offset="0.84" stop-color="#FFFEF8"/>
<stop offset="1" stop-color="#EEBC86"/>
</linearGradient>
<linearGradient id="paint6_linear_1417_133" x1="225.661" y1="233.274" x2="225.661" y2="264" gradientUnits="userSpaceOnUse">
<stop offset="0.84" stop-color="#FFFEF8"/>
<stop offset="1" stop-color="#EEBC86"/>
</linearGradient>
<linearGradient id="paint7_linear_1417_133" x1="179.877" y1="233.274" x2="179.877" y2="264" gradientUnits="userSpaceOnUse">
<stop offset="0.84" stop-color="#FFFEF8"/>
<stop offset="1" stop-color="#EEBC86"/>
</linearGradient>
<linearGradient id="paint8_linear_1417_133" x1="136.055" y1="233.274" x2="136.055" y2="264" gradientUnits="userSpaceOnUse">
<stop offset="0.84" stop-color="#FFFEF8"/>
<stop offset="1" stop-color="#EEBC86"/>
</linearGradient>
</defs>
</svg>
