<svg fill="none" height="40" viewBox="0 0 40 40" width="40" xmlns="http://www.w3.org/2000/svg"><rect fill="#33393f" height="40" rx="8" width="40"/><path clip-rule="evenodd" d="m20 10c-5.5229 0-10 4.4771-10 10 0 1.8896.5251 3.6594 1.4376 5.1683l-.8918 3.0319c-.2256.767.487 1.4796 1.254 1.254l3.0319-.8918c1.5089.9126 3.2787 1.4376 5.1683 1.4376 5.5228 0 10-4.4772 10-10 0-5.5229-4.4772-10-10-10zm-2.2618 12.2627c2.0225 2.0225 3.9538 2.2891 4.6357 2.3142 1.0372.0382 2.0471-.7539 2.4408-1.6727.0965-.225.0724-.4957-.0892-.7028-.5473-.7009-1.2882-1.2031-2.0121-1.703-.3128-.2164-.7429-.1494-.9733.1571l-.6007.9151c-.0667.1015-.1992.1364-.3046.0761-.4065-.2324-.9992-.6287-1.4256-1.0551-.4259-.4259-.7981-.9918-1.007-1.3721-.0549-.1-.0245-.2235.067-.2915l.9235-.6858c.2754-.2384.3238-.6433.1211-.9399-.4488-.6566-.9716-1.4911-1.7283-2.043-.2067-.1508-.4681-.1677-.6839-.0752-.9199.3942-1.7159 1.4038-1.6776 2.4429.0251.6819.2917 2.6132 2.3142 4.6357z" fill="#fefdfd" fill-rule="evenodd"/></svg>