<svg fill="none" height="60" viewBox="0 0 61 60" width="61" xmlns="http://www.w3.org/2000/svg"><rect fill="#33393f" height="60" rx="12" width="60" x=".5"/><g fill="#474c52"><path d="m31.5787 30.168c.307.0265.6322.0068.9413.0069l1.7926.0001 6.147-.0002 1.9697-.0003c.3908 0 .7881-.0141 1.178.0124l-.0006 8.4503.0007 2.1809c.0001.6167.0405 1.255-.0857 1.8615-.1556.748-.5339 1.3942-1.0579 1.9425-.5228.5075-1.1554.8764-1.8676 1.0441-.7289.1717-1.7296.1066-2.4881.1062l-4.4057.0001-1.4153.0016c-.2301.0005-.4682-.0151-.697.0042l-.018.0017c-.0197-1.1606-.003-2.3242-.0029-3.4851l.0002-6.6231.0002-3.6694-.001-1.1472c-.0002-.2278-.0103-.4605.0101-.6872z"/><path d="m17.4355 30.1757c.5483-.0149 1.0996-.0037 1.6481-.0036l3.0353.0002 7.31.0025.0026 10.1181-.0002 3.6097.0002 1.1294c.0008.204.0105.4121.0005.6157-.0026.0534-.0033.0798-.0385.1207-.4642.0188-.9352.0024-1.4004.0023l-2.7306-.0004-2.6301.0003c-.4669 0-.9392.0162-1.4053-.0053-1.0992-.0508-2.0952-.4733-2.8395-1.2963-.488-.5396-.8094-1.2062-.9374-1.9215-.1151-.6433-.0639-1.5693-.0636-2.2346l.0002-3.6495-.0001-4.3018-.0011-1.3556c-.0001-.2436-.0141-.4981.0063-.7405.004-.0474.0068-.0597.0436-.0898z"/><path d="m25.3133 15.3369c.5625-.0434 1.1213.0224 1.6457.2361 1.2071.4918 2.0023 1.5842 2.6524 2.6624.1868.3099.3799.6234.5379.949.1552.3199.2845.6569.4228.9847.1346-.3325.2147-.6973.3353-1.0371.3563-1.0034.9261-2.0022 1.7291-2.7155.9132-.811 2.0206-1.1331 3.2268-1.0598 1.185.0721 2.3091.6357 3.0926 1.5241.7226.8194 1.1825 1.9767 1.1055 3.0781-.0681.9736-.5771 1.8028-1.3038 2.4318.3659-.0013.7356-.0114 1.101.0039 1.0169.0428 2.0091.4891 2.6993 1.241.5776.6292.9399 1.42 1.0212 2.2718.0308.3222.0196.6517.0196.9751 0 .394.0075.7903-.0106 1.1839l-3.1712.0014h-15.5933-4.9685-1.582c-.2943 0-.5971-.0147-.8903.0086.0217-.1918.0086-.3937.0085-.5868-.0003-.5152-.025-1.0447.0218-1.5578.0937-1.0253.5909-1.9816 1.3827-2.6411.8532-.7106 1.7344-.9022 2.8172-.9029.2413-.0001.4842-.0059.7247.0167-.7196-.6218-1.248-1.4426-1.3294-2.4071-.0884-1.0468.2658-2.1078.9395-2.9101.8559-1.0192 2.0405-1.6334 3.3655-1.7504zm10.1914 2.1095c-.6817.0094-1.1681.2009-1.6494.6969-.6672.6876-.9395 1.5799-1.2207 2.4678-.11.3471-.2255.692-.3437 1.0364-.0807.2346-.1498.4924-.2582.7144.7547-.022 1.4882-.085 2.2292-.2364 1.0692-.2193 2.7732-.8496 3.3896-1.7836.214-.3244.2557-.644.1759-1.02-.132-.6219-.5197-1.1705-1.0544-1.5126-.3734-.239-.8236-.3756-1.2683-.3629zm-10.2527.0154c-.5719.1113-1.0185.3012-1.4506.7021-.1469.1363-.2862.2791-.3992.4452-.2365.3476-.4021.8404-.3174 1.2627.1111.5538.6028.9754 1.0528 1.2681.9058.5891 1.8575.8555 2.9108 1.0415.6808.1038 1.347.155 2.0342.1835l-.007-.0166c-.0967-.2341-.1579-.4869-.2426-.7263-.1494-.4222-.3196-.8306-.4938-1.2427-.0307-.0726-.0488-.1969-.1011-.2521-.0428.0008-.0741.0107-.1069-.0229-.0805-.0823-.2133-.4023-.278-.5196-.4379-.7928-1.0744-1.9254-2.0367-2.1101-.1886-.0362-.374-.0244-.5645-.0128z"/></g></svg>