<svg fill="none" viewBox="0 .35 45.62 38.59" xmlns="http://www.w3.org/2000/svg"><rect fill="#fefdfd" height="38.5855" rx="10.9204" width="45.6217" y=".347656"/><g fill="#0057f5"><path d="m32.3542 16.1259c-.0531-1.1347-.219-2.2893-.7166-3.3244-.273-.5728-.6435-1.0937-1.0949-1.5395-.4233-.4192-.8982-.7826-1.4134-1.0816-1.1347-.67687-2.4884-1.1281-5.6005-2.05709-3.1122-.929-4.9615-1.22097-4.9615-1.22097v23.77556l5.3019 1.7054s.0066-13.1917.0066-19.8738v-.2522c0-.6171.4977-1.1148 1.0684-1.1148h.0331c.5641 0 1.0286.4977 1.0286 1.1148v8.8454c.7299.3517 1.9376.6171 2.7737.6038.5548.0155 1.1039-.1149 1.5925-.3782.5043-.2789.9256-.6864 1.221-1.1812.3295-.5578.5523-1.1721.6569-1.8115.1241-.7167.1307-1.4665.1042-2.2097zm-20.7763 10.272c1.8182-.6503 5.9257-1.9575 5.9257-1.9575v-3.132s-5.0763 1.6456-7.3855 2.4618c-.57069.2057-1.14799.3915-1.70538.6304-.6503.2721-1.28732.5773-1.86463.9821-.259.1657-.4696.3969-.61048.6702-.06603.1404-.10301.2927-.10871.4478s.01999.3097.07553.4546c.13272.3385.38487.6171.67021.8361.51758.3915 1.13469.6304 1.75181.8096 1.89045.6275 3.87455.926 5.86595.8825.9622-.0132 2.3888-.1261 3.3178-.2919v-2.787s-.7299.1659-2.7405.8294c-.3053.0996-.6105.219-.929.2854-.4714.0981-.9518.147-1.4333.1459-.4313-.0199-.8759-.0464-1.2807-.2057-.146-.0663-.3052-.1459-.365-.3052-.053-.1327.0199-.2654.1128-.3583.1858-.1925.4513-.2986.7034-.3982z"/><path d="m39.8014 25.6056c-.0066-.3981-.2455-.7432-.5242-.9954-.4712-.418-1.0551-.6834-1.639-.8958-.365-.1261-.6171-.219-.9755-.3318-1.6722-.5441-3.4439-.7432-5.1957-.7498-.5309.0199-1.5328.0332-2.0571.0929-1.4532.1659-4.4658 1.0219-4.4658 1.0219v3.2382s4.4791-1.4333 6.4035-2.1101c.6491-.2106 1.3282-.3137 2.0106-.3053.4313.0133.8759.0465 1.2873.2057.146.0598.2986.146.3649.2986.0598.1726-.0597.3318-.1924.4314-.3119.2521-.71.3516-1.075.491-2.7206.9622-8.8055 2.9661-8.8055 2.9661v3.1188s7.777-2.6277 11.3337-3.9018c.5906-.2189 1.1878-.4047 1.7518-.6901.5243-.2654 1.0485-.5706 1.4466-1.0152.2133-.2394.3313-.5487.3318-.8693z"/></g></svg>