<svg fill="none" height="40" viewBox="0 0 40 40" width="40" xmlns="http://www.w3.org/2000/svg"><rect fill="#33393f" height="40" rx="8" width="40"/><path clip-rule="evenodd" d="m28.0175 11.12c1.0879-.458 2.2542.4619 2.0621 1.6266l-2.2689 13.7567c-.2188 1.3264-1.6756 2.0875-2.8925 1.4265-1.0183-.5531-2.5291-1.4044-3.8907-2.2941-.6799-.4443-2.7618-1.8689-2.5059-2.883.2188-.8671 3.7187-4.125 5.7187-6.0625.7856-.7611.4278-1.2008-.5-.5-2.3016 1.7383-5.9968 4.3812-7.2187 5.125-1.0781.6562-1.6411.7682-2.3125.6562-1.2261-.2043-2.3629-.5207-3.291-.9054-1.25436-.52-1.19326-2.2438-.0008-2.7458z" fill="#fefdfd" fill-rule="evenodd"/></svg>