<svg fill="none" height="36" viewBox="0 0 41 36" width="41" xmlns="http://www.w3.org/2000/svg"><path clip-rule="evenodd" d="m36.0351 1.09162c2.1758-.916145 4.5084.92371 4.1242 3.25309l-4.5378 27.51339c-.4376 2.6528-3.3512 4.175-5.785 2.853-2.0366-1.1062-5.0582-2.8088-7.7814-4.5882-1.3598-.8886-5.5236-3.7378-5.0118-5.766.4376-1.7342 7.4374-8.25 11.4374-12.125 1.5712-1.5221.8556-2.40144-1-1-4.6032 3.4766-11.9936 8.7624-14.4375 10.25-2.1563 1.3124-3.28212 1.5364-4.62502 1.3124-2.45226-.4086-4.7258-1.0414-6.58196-1.8108-2.508739-1.04-2.386539-4.4876-.0017-5.4916z" fill="#fefdfd" fill-rule="evenodd"/></svg>