<svg fill="none" height="41" viewBox="0 0 40 41" width="40" xmlns="http://www.w3.org/2000/svg"><path clip-rule="evenodd" d="m20 .851562c-11.0457 0-20 8.954298-20 20.000038 0 3.7792 1.0501 7.3188 2.87512 10.3366l-1.7835 6.0638c-.45116 1.534.97406 2.9592 2.50788 2.508l6.06392-1.7836c3.01778 1.8252 6.55738 2.8752 10.33658 2.8752 11.0456 0 20-8.9544 20-20 0-11.04574-8.9544-20.000038-20-20.000038zm-4.5236 24.525438c4.045 4.045 7.9076 4.5782 9.2714 4.6284 2.0744.0764 4.0942-1.5078 4.8816-3.3454.193-.45.1448-.9914-.1784-1.4056-1.0946-1.4018-2.5764-2.4062-4.0242-3.406-.6256-.4328-1.4858-.2988-1.9466.3142l-1.2014 1.8302c-.1334.203-.3984.2728-.6092.1522-.813-.4648-1.9984-1.2574-2.8512-2.1102-.8518-.8518-1.5962-1.9836-2.014-2.7442-.1098-.2-.049-.447.134-.583l1.847-1.3716c.5508-.4768.6476-1.2867.2422-1.8799-.8976-1.3132-1.9432-2.9821-3.4566-4.086-.4133-.3015-.9362-.3354-1.3679-.1504-1.8397.7885-3.4316 2.8076-3.3551 4.8858.0502 1.3639.5834 5.2265 4.6284 9.2715z" fill="#fefdfd" fill-rule="evenodd"/></svg>