<svg fill="none" viewBox="24 20.35 40 40" xmlns="http://www.w3.org/2000/svg" xmlns:xlink="http://www.w3.org/1999/xlink"><filter id="a" color-interpolation-filters="sRGB" filterUnits="userSpaceOnUse" height="88" width="88" x="0" y=".347656"><feFlood flood-opacity="0" result="BackgroundImageFix"/><feColorMatrix in="SourceAlpha" result="hardAlpha" type="matrix" values="0 0 0 0 0 0 0 0 0 0 0 0 0 0 0 0 0 0 127 0"/><feOffset dy="4"/><feGaussianBlur stdDeviation="12"/><feComposite in2="hardAlpha" operator="out"/><feColorMatrix type="matrix" values="0 0 0 0 0.898039 0 0 0 0 0.541176 0 0 0 0 0.235294 0 0 0 0.2 0"/><feBlend in2="BackgroundImageFix" mode="normal" result="effect1_dropShadow_3101_9770"/><feBlend in="SourceGraphic" in2="effect1_dropShadow_3101_9770" mode="normal" result="shape"/></filter><clipPath id="b"><path d="m32 27.8711h24v23.9531h-24z"/></clipPath><g filter="url(#a)"><rect fill="#33393f" height="40" rx="8" width="40" x="24" y="20.3477"/><rect fill="#e58a3c" height="40" rx="8" width="40" x="24" y="20.3477"/><g clip-path="url(#b)" fill="#fefdfd"><path d="m43.9433 44.5273c.5775-.0011 1.1261.1899 1.5562.5808.4422.4019.7053.9614.731 1.5587.0256.5926-.1879 1.1784-.5929 1.6123-.4081.4374-.9724.7024-1.5714.7211-.5628.0106-1.1263-.1836-1.5461-.563-.4503-.4071-.7263-.9598-.7524-1.5696-.0255-.5948.1849-1.1826.5885-1.621.4156-.4516.9771-.6926 1.5871-.7193z"/><path d="m43.7652 37.6385c.1921-.0031.3838-.0023.5759.0034 1.8668.0555 3.7154.7402 5.1971 1.8686.3342.2545.6681.5363.9556.8435.4039.4318.6477.9989.6255 1.5958-.023.6137-.291 1.1737-.7409 1.5895-.7229.6681-1.7687.794-2.6204.2919-.3072-.181-.5362-.4447-.8092-.6681-.7524-.6156-1.7146-1.008-2.6907-1.0439-1.0717-.0403-2.1126.2317-2.9854.8661-.2674.1943-.4912.428-.7437.6385-.3664.3052-.833.4975-1.3112.5135-.5895.0197-1.1689-.188-1.6007-.5936-.4445-.4174-.7252-.9671-.7413-1.5827-.016-.6112.213-1.1763.633-1.6181 1.5872-1.6695 3.966-2.6509 6.2564-2.7044z"/><path d="m32 27.8711h24v8.9006.4923c-.0012.0031-.0023.0063-.0035.0094-.0535.1511-.069.3143-.1234.4661-.2039.569-.6408 1.0551-1.1849 1.3196-.5182.252-1.1149.2636-1.6553.0739-.6488-.2279-1.0574-.7452-1.5638-1.1801-.3125-.2683-.6392-.5132-.9782-.7468-3.3468-2.3053-7.7983-2.6073-11.4597-.8771-.7203.3403-1.4136.7661-2.0441 1.2528-.2626.2027-.5211.4136-.7645.6393-.2183.2025-.4273.4312-.6697.6045-.5922.4232-1.3563.5617-2.0481.3161-.558-.198-1.0471-.6639-1.2989-1.1967-.0445-.0944-.0843-.1941-.1133-.2943-.0268-.0923-.0438-.2848-.0926-.3597v-.5581zm0 0v8.8618c.003-.0061.006-.0121.0089-.0183.039-.083.0526-.1984.0764-.2883.0573-.2165.1502-.4288.275-.615.2715-.4049.7347-.8085 1.1065-1.129 1.4071-1.2131 2.9801-2.183 4.7148-2.855 3.968-1.537 8.4262-1.4352 12.3196.2849.6474.286 1.2749.6174 1.878.9877.9124.5602 1.7686 1.214 2.5508 1.9451.2067.1933.421.3882.596.6112.1335.17.244.3602.3214.5623.0688.1796.083.3781.1526.5532v-8.9006z"/></g></g></svg>