<svg width="69" height="69" viewBox="0 0 69 69" fill="none" xmlns="http://www.w3.org/2000/svg">
<g filter="url(#filter0_d_3491_8217)">
<rect x="14.5" y="10.3477" width="40" height="40" rx="8" fill="#33393F"/>
<rect x="14.5" y="10.3477" width="40" height="40" rx="8" fill="#3CBCE5"/>
<path d="M34.7661 16.8934C35.326 16.8699 35.9101 16.911 36.4656 16.9797C39.6179 17.3694 42.5111 19.0135 44.4633 21.517C45.9707 23.4499 46.823 25.777 46.9764 28.2189C47.0066 28.6994 46.9972 29.1828 46.9971 29.664L46.9971 31.6843L46.9972 33.739C46.9973 34.2458 47.0164 34.7576 46.9533 35.2615C46.7841 36.6133 46.061 37.8419 44.9884 38.6751C44.0632 39.3939 42.9705 39.7331 41.8073 39.7482C41.6181 39.7507 41.4159 39.7672 41.2282 39.7437C41.0795 40.3437 40.8083 40.8602 40.3483 41.2806C39.9101 41.6809 39.3374 41.9489 38.746 42.0118C38.4848 42.0396 38.218 42.0328 37.9555 42.033C37.7003 42.0331 37.4433 42.0421 37.1885 42.0305C37.1758 42.0611 37.163 42.0916 37.1496 42.1218C36.9556 42.558 36.6117 42.8973 36.1627 43.0656C36.0414 43.111 35.9161 43.1408 35.7874 43.1557C35.5127 43.1876 35.2274 43.1739 34.951 43.1735C34.6931 43.173 34.4275 43.1877 34.1717 43.1503C34.01 43.1267 33.8512 43.08 33.7033 43.0107C33.2941 42.819 32.9673 42.4656 32.8152 42.0395C32.6638 41.6154 32.6892 41.1193 32.8837 40.7133C33.0837 40.2956 33.4335 39.9832 33.8719 39.8339C33.9971 39.7912 34.1252 39.7663 34.2566 39.7525C34.5091 39.7257 34.7709 39.737 35.0245 39.7376C35.2941 39.7382 35.5713 39.7239 35.8384 39.7662C36.0097 39.7934 36.1752 39.8454 36.3307 39.922C36.7235 40.1153 37.0371 40.4594 37.1805 40.8741C37.2154 40.8778 37.2504 40.8796 37.2855 40.8813C37.512 40.8928 37.7411 40.8868 37.9681 40.887C38.5808 40.8874 39.0851 40.8794 39.5656 40.4415C39.8453 40.1865 40.0345 39.8699 40.1051 39.4962C40.1674 39.1667 40.1418 38.8072 40.1413 38.4723L40.1403 36.9505L40.1406 32.1863L40.1399 30.6116C40.1399 30.308 40.1314 30.002 40.146 29.6987C40.1649 29.3042 40.3216 28.9418 40.6173 28.6748C41.0513 28.283 41.6015 28.2958 42.15 28.3243C43.2696 28.3826 44.3521 28.8293 45.2026 29.556C45.4387 29.7578 45.6489 29.9855 45.8568 30.2156C45.8591 29.1995 45.8769 28.1896 45.7182 27.1819C45.2674 27.1712 44.4401 27.2262 44.0455 27.0995C43.6925 26.9862 43.3825 26.7266 43.2173 26.3934C43.1158 26.189 43.0505 25.9614 42.9688 25.7483C42.8671 25.4835 42.7465 25.2266 42.6172 24.9743C42.2725 24.2381 41.7413 23.556 41.1889 22.9651C39.6659 21.3355 37.4851 20.4047 35.268 20.3319C32.0754 20.2271 29.0515 21.9297 27.505 24.7298C27.3509 25.0088 27.211 25.2969 27.0882 25.5911C26.9106 26.0164 26.8278 26.4667 26.4757 26.7929C26.0257 27.2098 25.5542 27.1779 24.9839 27.1773C24.7494 27.1771 24.5131 27.1884 24.279 27.1781C24.2372 27.5056 24.193 27.83 24.1704 28.1599C24.1235 28.8459 24.1337 29.5491 24.1489 30.2368C24.1931 30.1722 24.2396 30.1107 24.2906 30.0511C25.1526 29.0432 26.4569 28.4214 27.774 28.3276C28.34 28.2873 28.9204 28.2754 29.3721 28.6735C29.6784 28.9434 29.832 29.296 29.8542 29.7002C29.8669 29.9313 29.8601 30.1652 29.8599 30.3967L29.8591 31.5485L29.8593 35.1307L29.8597 37.3005C29.8602 37.7079 29.8947 38.1681 29.8326 38.5678C29.792 38.8286 29.657 39.0853 29.4799 39.2793C29.2185 39.5658 28.8485 39.7301 28.4626 39.7452C27.0383 39.801 25.6696 39.3296 24.6243 38.3513C23.6403 37.4305 23.0491 36.1343 23.0075 34.7873C22.9936 34.3402 23.0032 33.8901 23.0033 33.4428L23.0033 31.0305L23.0035 29.4124C23.0037 28.8922 23.0026 28.3731 23.0477 27.8544C23.2332 25.7192 23.9826 23.6805 25.2222 21.9326C25.515 21.5197 25.8354 21.112 26.1836 20.7439C28.4864 18.3094 31.4152 16.9908 34.7661 16.8934Z" fill="#FEFDFD"/>
</g>
<defs>
<filter id="filter0_d_3491_8217" x="0.5" y="0.347656" width="68" height="68" filterUnits="userSpaceOnUse" color-interpolation-filters="sRGB">
<feFlood flood-opacity="0" result="BackgroundImageFix"/>
<feColorMatrix in="SourceAlpha" type="matrix" values="0 0 0 0 0 0 0 0 0 0 0 0 0 0 0 0 0 0 127 0" result="hardAlpha"/>
<feOffset dy="4"/>
<feGaussianBlur stdDeviation="7"/>
<feComposite in2="hardAlpha" operator="out"/>
<feColorMatrix type="matrix" values="0 0 0 0 0.235294 0 0 0 0 0.737255 0 0 0 0 0.898039 0 0 0 0.2 0"/>
<feBlend mode="normal" in2="BackgroundImageFix" result="effect1_dropShadow_3491_8217"/>
<feBlend mode="normal" in="SourceGraphic" in2="effect1_dropShadow_3491_8217" result="shape"/>
</filter>
</defs>
</svg>
