<svg width="41" height="40" viewBox="0 0 41 40" fill="none" xmlns="http://www.w3.org/2000/svg">
<rect x="0.398438" width="40" height="40" rx="9.6" fill="#FEFDFD"/>
<g clip-path="url(#clip0_1714_1243)">
<path d="M21.6009 8.00391C21.6009 8.00391 23.5841 12.0554 23.2158 13.7269C23.2158 13.7269 28.4005 15.3985 28.9955 18.175C28.9955 18.175 31.857 14.4352 21.6009 8.00391ZM19.6177 14.0669C20.1277 15.1436 20.3543 16.2768 20.666 17.4668L17.7194 16.3335C18.0028 14.5486 16.2462 11.8004 16.2462 11.8004L19.6177 14.0669ZM14.3763 16.8718C14.7163 17.7217 15.0846 18.8267 15.2829 19.7616L12.6197 19.11C12.903 17.3251 11.2031 15.1436 11.2031 15.1436L14.3763 16.8718Z" fill="#231F20"/>
<path d="M20.1827 12.5352C20.1827 12.5352 32.0821 20.8931 32.8753 24.1229C33.4703 26.5594 31.7421 28.826 31.7421 28.826C31.7421 28.826 30.8071 22.4513 8 32.1408C10.2949 29.5626 11.5698 26.2761 11.2299 22.7346C11.0882 21.2897 10.7199 19.9014 10.0966 18.6549L15.4513 21.4881C15.4513 21.5731 15.4513 21.6581 15.4796 21.7431C15.678 23.9246 15.5363 26.0212 15.0263 27.976C16.1313 25.6529 16.6412 23.0463 16.3862 20.3264C16.2446 18.6832 15.8196 17.125 15.1679 15.6801L20.891 19.4765C20.9193 19.6749 20.9193 19.8448 20.9476 20.0432C21.1743 22.4513 20.9476 24.7746 20.3243 26.8994C21.656 24.4063 22.3359 21.5447 22.0526 18.5415C21.8542 16.36 21.2026 14.3201 20.1827 12.5352Z" fill="#231F20"/>
</g>
<defs>
<clipPath id="clip0_1714_1243">
<rect width="25" height="24.14" fill="white" transform="translate(8 8)"/>
</clipPath>
</defs>
</svg>
