<svg width="24" height="24" viewBox="0 0 24 24" fill="none" xmlns="http://www.w3.org/2000/svg">
<path d="M6.05747 3.4375C6.09853 3.59285 6.06689 3.86472 6.09628 4.05578C6.09975 4.07829 6.09567 4.09322 6.08864 4.11441C6.07298 4.08723 6.05817 4.05803 6.0473 4.02859C5.99217 3.87908 5.99405 3.58325 6.05747 3.4375Z" fill="#FEFDFD"/>
<path d="M8.30637 0.441406C8.31739 0.474172 8.3494 1.08254 8.33853 1.11631C8.32292 1.08898 8.30796 1.05981 8.29709 1.03026C8.24253 0.882083 8.24407 0.586672 8.30637 0.441406Z" fill="#FEFDFD"/>
<path d="M5.31101 7.37891C5.34907 7.6212 5.32488 7.89088 5.3238 8.13683L5.32258 9.44014L5.32287 14.3645L5.32296 19.3253L5.32094 20.8479C5.32062 20.9553 5.36074 21.0735 5.35043 21.1766C5.32118 21.135 5.29221 21.0813 5.27894 21.032C5.2421 20.8948 5.26535 20.449 5.26535 20.2783L5.26568 18.5035L5.26549 10.724L5.2654 8.62241C5.26535 8.26128 5.24515 7.88656 5.27088 7.52666C5.27482 7.4713 5.28429 7.42761 5.31101 7.37891Z" fill="#FEFDFD"/>
<path d="M8.83686 0H9.15458C9.26089 0.0351873 9.37822 0.0872588 9.46583 0.15767C9.59464 0.261251 9.7123 0.398914 9.82939 0.516169L10.5405 1.22829L11.6484 2.33569C11.8728 2.56 12.1046 2.78042 12.3177 3.0154L15.7501 3.01239L16.7687 3.01179C16.9732 3.01165 17.1881 2.99953 17.3909 3.02424C17.5077 3.03847 17.6434 3.08361 17.7295 3.16567C17.9054 3.33345 17.9721 3.51679 17.9719 3.75576C17.9717 3.96857 17.9235 4.14784 17.7675 4.2997C17.6699 4.39475 17.5484 4.46169 17.4117 4.47647C17.2612 4.49273 17.1037 4.48536 16.9522 4.48567L16.1815 4.48587L13.6816 4.48601L9.02858 4.48578C8.26719 4.48566 7.50172 4.50261 6.7408 4.48566C6.51041 4.48052 6.35464 4.43255 6.19363 4.2606C6.15186 4.21598 6.11455 4.1702 6.08586 4.11593C6.09289 4.09474 6.09697 4.07981 6.0935 4.05731C6.06411 3.86625 6.09575 3.59438 6.05469 3.43903C6.09814 3.35056 6.15223 3.26703 6.22259 3.19751C6.30111 3.11994 6.41459 3.05107 6.52447 3.03092C6.66205 3.0057 6.81772 3.01388 6.95736 3.01302L7.68641 3.01227L10.1881 3.01211C9.78195 2.56423 9.31569 2.13086 8.88566 1.70177C8.72173 1.53825 8.4493 1.309 8.33605 1.11604C8.34692 1.08226 8.31491 0.473897 8.30389 0.441131L8.30797 0.432331C8.42061 0.195903 8.59686 0.084353 8.83686 0Z" fill="#FEFDFD"/>
<path d="M5.71523 6.65239C5.94148 6.23516 6.3603 6.01294 6.83492 6.01266L16.9477 6.01257C17.5406 6.01257 18.0751 6.31551 18.3704 6.82955C18.5422 7.12861 18.6945 7.40592 18.7033 7.45524C18.7433 7.68029 18.7237 7.93735 18.7245 8.16676L18.7246 20.3468C18.7239 20.5761 18.743 20.8327 18.7025 21.0581C18.6973 21.087 18.6887 21.1065 18.674 21.1315C18.6001 21.2573 18.5148 21.3756 18.4393 21.5002L17.2093 23.503C17.0301 23.7976 16.6654 24.0003 16.3206 24.0003H7.48666C7.24281 24.0003 7.01014 23.8695 6.8802 23.6632L6.54945 23.129C6.14647 22.4795 5.7387 21.8304 5.34411 21.1757C5.35442 21.0727 5.3143 20.9544 5.31462 20.8471L5.31664 19.3245L5.31748 8.13601C5.31856 7.89005 5.34275 7.62038 5.30469 7.37809C5.39295 7.20343 5.50147 7.03613 5.59831 6.86588C5.62823 6.81325 5.66906 6.73752 5.71523 6.65239ZM12.7036 10.5795C12.6263 10.651 12.5687 10.7708 12.5101 10.8593L12.1278 11.4354L10.5169 13.8478L10.0331 14.5749C9.93575 14.7214 9.84345 14.8803 9.72748 15.0125C10.4701 15.0165 11.2159 14.9962 11.958 15.0204C11.9647 15.2411 11.7939 15.8022 11.7304 16.0573L11.3642 17.5326C11.3412 17.6244 11.2554 17.8563 11.2703 17.9364L11.2799 17.9312C11.3522 17.8627 11.405 17.7511 11.4605 17.667L11.8346 17.1033L13.9966 13.8608C14.0782 13.7382 14.1566 13.5961 14.2562 13.4882C13.7523 13.4819 13.248 13.4855 12.744 13.4859C12.5008 13.486 12.2505 13.4991 12.0084 13.4829C12.057 13.1188 12.7293 10.6509 12.7121 10.5878L12.7036 10.5795Z" fill="#FEFDFD"/>
</svg>
