<svg width="25" height="27" viewBox="0 0 25 27" fill="none" xmlns="http://www.w3.org/2000/svg">
<path d="M12.2661 0.545695C12.826 0.522235 13.4101 0.563358 13.9656 0.632031C17.1179 1.02177 20.0111 2.66587 21.9633 5.16935C23.4707 7.10223 24.323 9.42933 24.4764 11.8712C24.5066 12.3517 24.4972 12.8351 24.4971 13.3163L24.4971 15.3366L24.4972 17.3913C24.4973 17.8981 24.5164 18.4099 24.4533 18.9138C24.2841 20.2657 23.561 21.4942 22.4884 22.3275C21.5632 23.0463 20.4705 23.3855 19.3073 23.4006C19.1181 23.403 18.9159 23.4195 18.7282 23.396C18.5795 23.996 18.3083 24.5125 17.8483 24.9329C17.4101 25.3333 16.8374 25.6012 16.246 25.6641C15.9848 25.6919 15.718 25.6852 15.4555 25.6853C15.2003 25.6854 14.9433 25.6945 14.6885 25.6828C14.6758 25.7134 14.663 25.7439 14.6496 25.7742C14.4556 26.2103 14.1117 26.5497 13.6627 26.7179C13.5414 26.7633 13.4161 26.7932 13.2874 26.8081C13.0127 26.8399 12.7274 26.8262 12.451 26.8258C12.1931 26.8253 11.9275 26.84 11.6717 26.8026C11.51 26.779 11.3512 26.7323 11.2033 26.663C10.7941 26.4713 10.4673 26.118 10.3152 25.6918C10.1638 25.2677 10.1892 24.7717 10.3837 24.3656C10.5837 23.948 10.9335 23.6355 11.3719 23.4862C11.4971 23.4436 11.6252 23.4187 11.7566 23.4048C12.0091 23.3781 12.2709 23.3893 12.5245 23.3899C12.7941 23.3906 13.0713 23.3762 13.3384 23.4186C13.5097 23.4457 13.6752 23.4978 13.8307 23.5743C14.2235 23.7676 14.5371 24.1117 14.6805 24.5265C14.7154 24.5301 14.7504 24.5319 14.7855 24.5337C15.012 24.5451 15.2411 24.5392 15.4681 24.5393C16.0808 24.5398 16.5851 24.5318 17.0656 24.0938C17.3453 23.8388 17.5345 23.5222 17.6051 23.1486C17.6674 22.819 17.6418 22.4595 17.6413 22.1246L17.6403 20.6029L17.6406 15.8387L17.6399 14.2639C17.6399 13.9603 17.6314 13.6543 17.646 13.3511C17.6649 12.9566 17.8216 12.5942 18.1173 12.3272C18.5513 11.9354 19.1015 11.9481 19.65 11.9767C20.7696 12.0349 21.8521 12.4817 22.7026 13.2083C22.9387 13.4101 23.1489 13.6378 23.3568 13.868C23.3591 12.8518 23.3769 11.842 23.2182 10.8343C22.7674 10.8235 21.9401 10.8785 21.5455 10.7519C21.1925 10.6385 20.8825 10.3789 20.7173 10.0458C20.6158 9.84131 20.5505 9.61374 20.4688 9.40069C20.3671 9.13589 20.2465 8.87897 20.1172 8.62665C19.7725 7.89043 19.2413 7.20834 18.6889 6.61741C17.1659 4.98783 14.9851 4.05706 12.768 3.98428C9.57542 3.87948 6.55149 5.58202 5.00502 8.38211C4.85092 8.66112 4.71104 8.94927 4.58823 9.24341C4.41057 9.66874 4.3278 10.1191 3.97573 10.4453C3.52568 10.8622 3.05416 10.8302 2.48391 10.8296C2.24943 10.8294 2.01309 10.8408 1.77901 10.8305C1.73721 11.158 1.69303 11.4823 1.67044 11.8122C1.62346 12.4983 1.63369 13.2015 1.64886 13.8892C1.69309 13.8245 1.73965 13.763 1.7906 13.7034C2.65263 12.6956 3.95695 12.0738 5.27398 11.9799C5.84001 11.9396 6.42035 11.9278 6.8721 12.3259C7.17835 12.5957 7.33196 12.9483 7.35422 13.3526C7.36692 13.5836 7.36011 13.8175 7.35989 14.0491L7.35914 15.2009L7.3593 18.7831L7.35973 20.9528C7.36022 21.3602 7.39469 21.8204 7.33255 22.2201C7.29198 22.4809 7.15701 22.7376 6.97995 22.9317C6.7185 23.2182 6.34855 23.3824 5.96261 23.3976C4.5383 23.4533 3.16963 22.9819 2.12425 22.0036C1.14034 21.0829 0.549105 19.7867 0.507458 18.4396C0.493637 17.9925 0.503249 17.5425 0.503308 17.0951L0.50333 14.6828L0.50347 13.0648C0.503686 12.5446 0.502622 12.0254 0.547689 11.5067C0.733187 9.37157 1.48258 7.33283 2.72222 5.58494C3.01504 5.17203 3.33539 4.76439 3.68362 4.39622C5.98638 1.9617 8.91517 0.643107 12.2661 0.545695Z" fill="#FEFDFD"/>
</svg>
