<svg width="71" height="40" viewBox="0 0 71 40" fill="none" xmlns="http://www.w3.org/2000/svg">
<rect width="70.4" height="40" rx="9.6" fill="#FEFDFD"/>
<path d="M56.3819 26.133L59.9889 16.1855C59.9889 16.1855 57.2927 16.1855 54.5962 16.7266L51.1864 26.133L56.3819 26.133ZM55.7665 13.4983L55.0742 15.4091C57.787 14.8673 60.4664 14.8673 60.4664 14.8673L61.1589 12.957C61.1591 12.9574 58.4631 12.9574 55.7665 13.4983ZM36.2979 25.5916C38.1299 25.9464 40.0226 26.133 41.9589 26.133C45.0317 26.133 46.2954 25.8273 47.8896 25.0137C49.2478 24.319 50.1406 23.582 50.5244 22.3126C50.8533 21.2249 50.433 20.1983 49.4582 19.5451C48.4829 18.892 47.5384 18.5833 46.4169 17.9646C45.4356 17.4238 44.9008 17.0162 44.9662 16.4489C45.1039 15.2589 46.376 14.8672 48.129 14.8672C49.8374 14.8672 51.5089 15.0219 53.1306 15.3175L53.7908 13.4983C51.9588 13.1439 50.0653 12.957 48.129 12.957C45.056 12.957 43.7935 13.2627 42.1991 14.0768C40.8404 14.7713 39.9477 15.5083 39.5639 16.7783C39.2353 17.8658 39.6553 18.8918 40.631 19.5449C41.6054 20.1979 42.5495 20.507 43.6722 21.1266C44.6527 21.6672 45.1884 22.0744 45.1217 22.6416C44.9838 23.832 43.7118 24.222 41.9596 24.222C40.2522 24.222 38.5796 24.0679 36.9573 23.7717L36.2979 25.5916ZM34.321 26.133L37.6651 16.9094C37.937 16.1616 37.9545 14.8142 37.2034 14.0777C36.4517 13.3384 35.5564 12.9573 33.9019 12.9573C32.2474 12.9568 30.9042 13.3912 29.8248 13.8142C29.2445 14.0402 28.383 14.4821 27.4083 15.0723C27.3142 14.6984 27.1424 14.3478 26.8677 14.0779C26.1155 13.3386 25.2204 12.9576 23.5662 12.9576C21.9111 12.9571 20.569 13.3915 19.489 13.8144C18.9089 14.0404 18.0471 14.4823 17.0724 15.0725C16.9784 14.6986 16.8066 14.348 16.5319 14.0781C15.7799 13.3389 14.8849 12.9578 13.2301 12.9578L8.45312 26.1339H13.6493L16.0381 19.5451C16.4711 18.3502 17.6495 17.2122 18.2964 16.7124C19.1193 16.0769 22.8017 15.0652 21.7986 17.8323L18.7892 26.133H23.9856L26.3742 19.5438C26.8076 18.3493 27.9858 17.212 28.6322 16.7124C29.4551 16.0769 33.1376 15.0652 32.1342 17.8323L29.1249 26.133H34.321Z" fill="#005DAA"/>
</svg>
