<svg width="127" height="40" viewBox="0 0 127 40" fill="none" xmlns="http://www.w3.org/2000/svg">
<g clip-path="url(#clip0_1695_2918)">
<path d="M47.102 0V39.5273H0.398438V0H47.102ZM127.318 0V39.5273H131.452V0H127.318Z" fill="#76B900"/>
<path d="M127.333 0H47.1172V39.5273H127.333V0Z" fill="#1E1E1E"/>
<path d="M21.0895 26.1022V32.0476H22.7616V26.1022H21.0895ZM7.875 26.1022V32.0476H9.57036V27.5189H10.8709C11.3122 27.5189 11.6141 27.635 11.8231 27.8441C12.0786 28.1227 12.1947 28.5872 12.1947 29.4233V32.0244H13.8436V28.7266C13.8436 26.3809 12.3572 26.0558 10.8941 26.0558L7.875 26.1022ZM23.7835 26.1022V32.0476H26.5007C27.9406 32.0476 28.4283 31.8154 28.9392 31.258C29.3108 30.8864 29.543 30.0503 29.543 29.1446C29.543 28.3085 29.334 27.5654 29.0089 27.1009C28.3818 26.2648 27.4993 26.1022 26.1523 26.1022H23.7835ZM25.4556 27.4028H26.1756C27.2206 27.4028 27.8941 27.8673 27.8941 29.0982C27.8941 30.329 27.2206 30.7935 26.1756 30.7935H25.4556V27.4028ZM18.651 26.1022L17.2575 30.8167L15.9105 26.1022H14.099L16.0266 32.0476H18.4419L20.3695 26.1022H18.651ZM30.3094 32.0476H31.9816V26.1022H30.3094V32.0476ZM35.0239 26.1022L32.6783 32.0476H34.3272L34.6988 31.0025H37.4624L37.8108 32.0476H39.5991L37.2302 26.1022H35.0239ZM36.1154 27.1938L37.1373 29.9807H35.0704L36.1154 27.1938ZM18.86 12.191V10.7744C18.9993 10.7744 19.1387 10.7512 19.278 10.7512C23.1797 10.635 25.7343 14.0954 25.7343 14.0954C25.7343 14.0954 22.9706 17.9274 20.0212 17.9274C19.6031 17.9274 19.2083 17.8577 18.86 17.7416V13.4219C20.3695 13.6077 20.6947 14.2812 21.6004 15.7908L23.6209 14.0722C23.6209 14.0722 22.1346 12.1214 19.6264 12.1214C19.3709 12.1446 19.1154 12.1678 18.86 12.191ZM18.86 7.47656V9.61317C18.9993 9.61317 19.1387 9.58995 19.278 9.58995C24.7124 9.40416 28.2425 14.049 28.2425 14.049C28.2425 14.049 24.1783 18.9957 19.9515 18.9957C19.5567 18.9957 19.2083 18.9492 18.86 18.9028V20.2266C19.1619 20.273 19.4638 20.2962 19.7657 20.2962C23.7138 20.2962 26.5471 18.2757 29.3108 15.9069C29.7753 16.2785 31.6332 17.161 32.028 17.5558C29.4037 19.7621 23.2958 21.5271 19.8354 21.5271C19.5103 21.5271 19.1851 21.5039 18.86 21.4807V23.3386H33.8395V7.54623L18.86 7.47656ZM18.86 17.7416V18.8563C15.2138 18.2061 14.2152 14.4206 14.2152 14.4206C14.2152 14.4206 15.957 12.493 18.86 12.1678V13.3987C17.3272 13.2129 16.1428 14.6296 16.1428 14.6296C16.1428 14.6296 16.8163 17.0681 18.86 17.7416ZM12.3805 14.2812C12.3805 14.2812 14.5403 11.0995 18.86 10.7744V9.61317C14.0758 9.98476 9.94194 14.049 9.94194 14.049C9.94194 14.049 12.2876 20.8072 18.86 21.4342V20.2033C14.0294 19.5995 12.3805 14.2812 12.3805 14.2812Z" fill="#1E1E1E"/>
<path d="M76.0661 18.03V14.0123H79.5961L79.8516 12.1776H76.0661V9.53001H80.7806V7.69531H73.9062V18.03H76.0661Z" fill="white"/>
<path d="M59.0248 18.233H59.141C59.9306 18.233 60.6738 18.1401 61.3705 17.9311C62.0672 17.7221 62.6478 17.4202 63.1587 17.0253V12.2644H59.1177L58.8623 14.0759H61.0686V15.9803C60.8131 16.0964 60.5112 16.1893 60.1628 16.2357C59.8145 16.3054 59.4429 16.3286 59.0713 16.3286H58.9784C58.0262 16.3286 57.3295 16.0732 56.8882 15.5855C56.4934 15.0977 56.2612 14.3081 56.2612 13.2398V12.5663C56.2612 11.5212 56.4934 10.7316 56.9347 10.1742C57.3759 9.61687 58.0262 9.3614 58.8855 9.3614H58.9784C60.0699 9.3614 60.7434 9.77944 61.0221 10.6387L62.9962 9.942C62.6942 9.15239 62.2065 8.52534 61.5098 8.10731C60.8131 7.68927 59.977 7.45703 58.9784 7.45703H58.8391C57.8404 7.45703 56.9811 7.66605 56.2844 8.06086C55.5645 8.47889 55.0303 9.05949 54.6587 9.82588C54.2871 10.5923 54.0781 11.498 54.0781 12.5895V13.1702C54.1013 16.5609 55.7503 18.233 59.0248 18.233Z" fill="white"/>
<path d="M119.85 18.03V16.2185H115.043V13.7336H118.619L118.875 11.8989H115.043V9.53001H119.757V7.69531H112.883V18.03H119.85Z" fill="white"/>
<path d="M95.2377 18.03V14.3374H96.8402L98.8839 18.03H101.23L98.9768 14.0123C99.5806 13.7568 100.068 13.4084 100.393 12.9207C100.742 12.433 100.904 11.8524 100.904 11.1557V10.877C100.904 9.87837 100.556 9.11198 99.8361 8.53138C99.1394 7.974 98.1872 7.69531 96.9796 7.69531H93.0547V18.0532H95.2377V18.03ZM96.9331 9.55324C97.444 9.55324 97.8853 9.64613 98.2337 9.85515C98.582 10.0642 98.7446 10.3893 98.7446 10.8306V11.2021C98.7446 11.6666 98.582 11.9918 98.2337 12.2008C97.8853 12.3866 97.444 12.5027 96.9331 12.5027H95.2377V9.57646H96.9331V9.55324Z" fill="white"/>
<path d="M61.8935 26.952C62.2419 26.4643 62.4044 25.8837 62.4044 25.1869V24.9083C62.4044 23.9096 62.0561 23.1432 61.3361 22.5626C60.6394 22.0053 59.6872 21.7266 58.4796 21.7266H54.5547V32.0845H56.7145V28.3919H58.317L60.3607 32.0845H62.7063L60.4536 28.0667C61.0806 27.788 61.5684 27.4397 61.8935 26.952ZM60.2446 25.2102C60.2446 25.6747 60.082 25.9998 59.7336 26.2088C59.3853 26.3946 58.944 26.5107 58.4331 26.5107H56.7377V23.5845H58.4331C58.944 23.5845 59.3853 23.6774 59.7336 23.8864C60.082 24.0954 60.2446 24.4206 60.2446 24.8618V25.2102Z" fill="white"/>
<path d="M107.035 18.2367H107.151C108.196 18.2367 109.079 18.0044 109.799 17.5632C110.519 17.0987 111.006 16.4717 111.308 15.6588L109.334 14.8924C109.172 15.4034 108.916 15.7749 108.521 16.0072C108.127 16.2394 107.685 16.3555 107.151 16.3555H107.058C106.222 16.3555 105.572 16.1001 105.154 15.5891C104.713 15.0782 104.504 14.2886 104.504 13.1971V12.5236C104.504 11.4785 104.736 10.6889 105.177 10.1547C105.642 9.64379 106.269 9.3651 107.058 9.3651H107.151C107.662 9.3651 108.127 9.48122 108.498 9.71346C108.87 9.9457 109.125 10.3173 109.265 10.8282L111.285 10.1083C111.006 9.2722 110.495 8.5987 109.799 8.13422C109.102 7.66974 108.219 7.4375 107.174 7.4375H107.058C106.06 7.4375 105.2 7.64652 104.504 8.06455C103.807 8.48259 103.273 9.06318 102.901 9.82958C102.53 10.596 102.344 11.5017 102.344 12.5468V13.1506C102.344 14.7531 102.739 16.0072 103.551 16.9129C104.341 17.7954 105.502 18.2367 107.035 18.2367Z" fill="white"/>
<path d="M81.8489 21.6875H79.3407L77.1112 25.1014L74.8817 21.6875H72.3271L75.7642 26.7968L72.2109 32.0454H74.6959L77.0648 28.4457L79.4104 32.0454H81.965L78.4118 26.7968L81.8489 21.6875Z" fill="white"/>
<path d="M90.8766 15.8604C91.2482 15.0941 91.4572 14.1883 91.4572 13.1665V12.5859C91.4572 11.5408 91.2714 10.635 90.8766 9.86864C90.505 9.10224 89.9477 8.52164 89.2277 8.10361C88.5078 7.68558 87.6485 7.47656 86.6498 7.47656H86.5105C85.5119 7.47656 84.6526 7.68558 83.9326 8.10361C83.2127 8.52164 82.6785 9.10224 82.2837 9.86864C81.9121 10.635 81.7031 11.5408 81.7031 12.5859V13.1432C81.7031 14.1883 81.8889 15.0941 82.2837 15.8372C82.6553 16.6036 83.2127 17.1842 83.9326 17.6022C84.6526 18.0203 85.5119 18.2293 86.5105 18.2293H86.6498C87.6485 18.2293 88.5078 18.0203 89.2277 17.6022C89.9477 17.2074 90.505 16.6268 90.8766 15.8604ZM86.6498 16.3482H86.5337C85.7209 16.3482 85.0938 16.0927 84.6061 15.5585C84.1184 15.0476 83.8862 14.258 83.8862 13.1897V12.5162C83.8862 11.4711 84.1184 10.6815 84.6061 10.1473C85.0938 9.6364 85.7209 9.35771 86.5337 9.35771H86.6498C87.4627 9.35771 88.0897 9.61318 88.5774 10.1473C89.0652 10.6815 89.2974 11.4479 89.2974 12.5162V13.1897C89.2974 14.2348 89.0652 15.0244 88.5774 15.5585C88.0897 16.0927 87.4627 16.3482 86.6498 16.3482Z" fill="white"/>
<path d="M67.1911 13.7336H70.7676L71.0231 11.8989H67.1911V9.53001H71.9056V7.69531H65.0312V18.03H71.9985V16.2185H67.1911V13.7336Z" fill="white"/>
<path d="M63.1641 23.5686H66.2761V32.0454H68.4359V23.5686H71.5479V21.6875H63.1641V23.5686Z" fill="white"/>
</g>
<rect x="0.5" y="0.5" width="126" height="39" rx="9.5" stroke="#FEFDFD"/>
<defs>
<clipPath id="clip0_1695_2918">
<rect width="127" height="40" rx="10" fill="white"/>
</clipPath>
</defs>
</svg>
