<svg width="40" height="40" viewBox="0 0 40 40" fill="none" xmlns="http://www.w3.org/2000/svg">
<rect width="40" height="40" rx="9.6" fill="#FEFDFD"/>
<path d="M27.6193 16.9804C27.5768 16.0727 27.4441 15.149 27.046 14.3208C26.8276 13.8626 26.5312 13.4459 26.1701 13.0893C25.8315 12.7539 25.4515 12.4632 25.0394 12.224C24.1316 11.6825 23.0487 11.3215 20.559 10.5783C18.0692 9.83514 16.5898 9.60156 16.5898 9.60156V28.622L20.8313 29.9863C20.8313 29.9863 20.8366 19.433 20.8366 14.0873V13.8856C20.8366 13.3919 21.2347 12.9937 21.6913 12.9937H21.7178C22.169 12.9937 22.5406 13.3919 22.5406 13.8856V20.9618C23.1246 21.2432 24.0907 21.4555 24.7596 21.4449C25.2034 21.4573 25.6428 21.3529 26.0336 21.1423C26.437 20.9192 26.7741 20.5932 27.0104 20.1974C27.274 19.7511 27.4523 19.2597 27.536 18.7482C27.6352 18.1748 27.6405 17.575 27.6193 16.9804ZM10.9983 25.198C12.4528 24.6778 15.7388 23.632 15.7388 23.632V21.1264C15.7388 21.1264 11.6778 22.4429 9.8304 23.0959C9.37387 23.2604 8.91203 23.4091 8.46611 23.6002C7.94587 23.8178 7.43625 24.062 6.97441 24.3858C6.76721 24.5184 6.59873 24.7034 6.48603 24.922C6.4332 25.0343 6.40362 25.1562 6.39906 25.2803C6.3945 25.4043 6.41505 25.528 6.45948 25.644C6.56565 25.9147 6.76738 26.1376 6.99565 26.3128C7.40971 26.626 7.9034 26.8171 8.3971 26.9605C9.90945 27.4625 11.4967 27.7013 13.0898 27.6665C13.8596 27.6559 15.0009 27.5656 15.7441 27.4329V25.2033C15.7441 25.2033 15.1602 25.3361 13.5517 25.8669C13.3075 25.9465 13.0633 26.0421 12.8085 26.0952C12.4313 26.1737 12.0471 26.2128 11.6618 26.212C11.3168 26.196 10.9611 26.1748 10.6373 26.0474C10.5205 25.9943 10.3931 25.9306 10.3453 25.8032C10.3029 25.697 10.3613 25.5909 10.4356 25.5165C10.5842 25.3626 10.7966 25.2777 10.9983 25.198Z" fill="#0057F5"/>
<path d="M33.5771 24.5642C33.5717 24.2456 33.3806 23.9696 33.1577 23.7679C32.7808 23.4334 32.3136 23.2211 31.8465 23.0512C31.5545 22.9504 31.3528 22.876 31.0661 22.7858C29.7284 22.3505 28.311 22.1912 26.9095 22.1859C26.4849 22.2019 25.6833 22.2125 25.2639 22.2603C24.1013 22.393 21.6912 23.0778 21.6912 23.0778V25.6683C21.6912 25.6683 25.2745 24.5217 26.814 23.9802C27.3333 23.8118 27.8766 23.7293 28.4225 23.736C28.7675 23.7466 29.1232 23.7732 29.4523 23.9006C29.5691 23.9484 29.6912 24.0174 29.7443 24.1395C29.7921 24.2775 29.6965 24.4049 29.5903 24.4845C29.3408 24.6863 29.0223 24.7659 28.7304 24.8774C26.5539 25.6471 21.6859 27.2503 21.6859 27.2503V29.7453C21.6859 29.7453 27.9075 27.6431 30.7529 26.6239C31.2254 26.4487 31.7031 26.3001 32.1544 26.0718C32.5737 25.8594 32.9931 25.6153 33.3116 25.2596C33.4822 25.0681 33.5767 24.8206 33.5771 24.5642Z" fill="#0057F5"/>
</svg>
