<svg width="40" height="40" viewBox="0 0 40 40" fill="none" xmlns="http://www.w3.org/2000/svg">
<rect x="0.5" y="0.5" width="39" height="39" rx="9.1" fill="black"/>
<rect x="0.5" y="0.5" width="39" height="39" rx="9.1" stroke="#66B933"/>
<path d="M30.3185 9.59023C30.3455 9.44551 30.2889 9.29308 30.1636 9.20259C30.0029 9.0866 29.7808 9.10983 29.6471 9.25615L29.4386 9.48499L29.1096 9.62621C28.9927 9.59006 28.8623 9.58695 28.7265 9.62052C28.6486 9.63981 28.6255 9.63528 28.5563 9.62162C28.4048 9.59191 28.2464 9.57391 27.9936 9.65469C27.9045 9.64948 27.8 9.66223 27.6358 9.71604C27.4297 9.78403 27.3013 9.94609 27.2076 10.065L27.1765 10.1048C26.587 10.2567 26.3541 10.588 26.2637 10.846C26.2458 10.8961 26.234 10.946 26.2244 10.996C25.6032 10.525 24.7492 10.4823 24.0244 10.906C23.1924 11.393 22.8204 12.3149 23.0769 13.2551C23.4905 14.7738 24.9315 16.2042 25.792 17.0594L26.0709 17.3381C26.5193 17.7955 27.0994 18.7175 26.9837 19.3337C26.9555 19.4874 26.8741 19.7104 26.4984 19.8805C26.307 19.9671 26.1239 20.0208 25.9467 20.0417C26.2645 19.1508 26.1108 18.1928 25.5076 17.5653C24.6465 16.6712 23.8332 16.8943 23.5224 17.137C23.3916 17.2398 23.3398 17.4144 23.3939 17.5716C23.4483 17.7288 23.5969 17.8345 23.7639 17.8344C24.1771 17.8341 24.6421 18.1418 24.844 18.55C25.0143 18.8941 24.9814 19.2671 24.7507 19.6377C24.5757 19.495 24.425 19.3377 24.2959 19.202C24.2427 19.1464 24.1927 19.0939 24.1485 19.0509L24.1164 19.0152C23.4984 18.3188 22.8688 17.9125 22.2382 17.8014C22.1592 16.6869 21.3718 15.5594 20.1782 14.9039C20.0815 14.8504 19.9811 14.8031 19.877 14.7602C19.6544 13.5957 18.9421 12.8148 17.8057 12.4951C16.1474 12.0278 14.8307 12.7689 14.1931 14.5273C13.9755 15.1273 13.5131 17.1725 13.1335 18.8873L13.0621 19.2087C13.0113 19.4354 12.7471 19.8429 12.4655 19.9399C12.3878 19.9672 12.2898 19.9799 12.1544 19.8692C11.8779 19.6443 12.0411 18.995 12.1289 18.6461C12.1462 18.5784 12.1605 18.5201 12.1724 18.467C12.2442 18.1346 12.1351 17.764 11.8873 17.5001C11.645 17.2419 11.3097 17.1234 10.9675 17.1751C10.2426 17.2843 10.0127 17.8706 9.92233 18.1348C9.85206 18.0007 9.75527 17.8245 9.57255 17.7202C9.42414 17.6354 9.32467 17.6017 9.23592 17.5887C9.00259 17.4574 8.8441 17.4446 8.68839 17.4436C8.61839 17.4432 8.59456 17.4432 8.52235 17.4083C8.37808 17.3396 8.22933 17.3185 8.09017 17.345L7.82138 17.1746L7.65125 16.9154C7.54136 16.7479 7.32271 16.6911 7.14462 16.7835C7.00953 16.8538 6.93207 16.9939 6.93535 17.1392C6.80095 17.1987 6.70709 17.3313 6.70325 17.4856C6.6982 17.6836 6.84261 17.854 7.03891 17.8816L7.34536 17.9249L7.61037 18.0929C7.64369 18.2258 7.72275 18.3509 7.8437 18.4539C7.9048 18.506 7.91456 18.5275 7.94375 18.5918C8.00806 18.733 8.08471 18.8726 8.29959 19.032C8.34709 19.1067 8.41796 19.184 8.55687 19.2854C8.7322 19.4135 8.93869 19.4229 9.08957 19.4295C9.1044 19.4306 9.12281 19.4311 9.14025 19.4323C9.6065 19.8235 10.0119 19.8199 10.2747 19.7428C10.3252 19.7283 10.373 19.7089 10.419 19.6879C10.3982 20.467 10.8606 21.1865 11.6269 21.5283C12.5069 21.9217 13.4731 21.6871 14.0884 20.9314C15.0818 19.7104 15.4063 17.7063 15.5998 16.509L15.6646 16.1195C15.7753 15.4887 16.1866 14.4804 16.7549 14.2152C16.8961 14.1491 17.1255 14.0857 17.4824 14.2922C17.6646 14.3968 17.8143 14.5144 17.9344 14.646C17.0254 14.9067 16.3361 15.5898 16.1775 16.4458C15.9512 17.6654 16.6064 18.1976 16.9848 18.3084C17.1449 18.3555 17.3161 18.2957 17.4127 18.1594C17.5093 18.0242 17.5084 17.842 17.4116 17.7069C17.1699 17.3706 17.1497 16.8136 17.3641 16.4114C17.5446 16.073 17.8671 15.8822 18.3022 15.8541C18.2889 16.0798 18.2483 16.294 18.2141 16.4779C18.1997 16.5532 18.186 16.6245 18.1766 16.6857C18.1754 16.6922 18.17 16.7145 18.1658 16.7321C17.9782 17.5579 17.9919 18.2539 18.2051 18.809C17.2896 19.3742 16.6405 20.5298 16.5465 21.8212C16.538 21.9314 16.5367 22.0433 16.5412 22.1548C15.5754 22.8425 15.1625 23.8155 15.345 24.9819C15.6111 26.6842 16.8328 27.5721 18.6977 27.4193C19.3337 27.3673 21.3858 26.9363 23.1031 26.5666L23.4244 26.4972C23.6521 26.4493 24.1325 26.5193 24.3379 26.7348C24.3949 26.7948 24.4475 26.8781 24.4034 27.0475C24.3143 27.3924 23.6556 27.5144 23.3018 27.5803C23.2335 27.5927 23.1742 27.6036 23.1213 27.6154C22.7891 27.6887 22.4973 27.9423 22.3609 28.2774C22.2271 28.605 22.2583 28.9597 22.4481 29.249C22.8495 29.8627 23.4782 29.8274 23.756 29.7993C23.6636 29.9193 23.5438 30.0803 23.5249 30.2906C23.5099 30.4604 23.5206 30.5653 23.5456 30.6506C23.523 30.9173 23.5778 31.0674 23.6415 31.2088C23.6705 31.2726 23.6797 31.2944 23.679 31.3743C23.6762 31.5394 23.7228 31.6873 23.8099 31.805L23.7521 32.2059L23.5859 32.467C23.4774 32.6364 23.5151 32.8592 23.6726 32.9832C23.7298 33.0284 23.7986 33.0567 23.871 33.0647C23.9435 33.0728 24.0168 33.0603 24.0825 33.0287C24.1923 33.127 24.3517 33.1584 24.494 33.0986C24.6768 33.0221 24.7731 32.8208 24.7178 32.6303L24.6318 32.3327L24.6929 31.9066C24.7944 31.8209 24.8707 31.7008 24.9128 31.5547C24.9341 31.478 24.9495 31.4601 24.996 31.4065C25.0973 31.2895 25.1925 31.1613 25.2477 30.9001C25.2964 30.8259 25.3368 30.7287 25.3714 30.5605C25.4152 30.3478 25.3371 30.1561 25.2808 30.0162L25.262 29.9689C25.4234 29.3822 25.2513 29.0151 25.0724 28.8083C25.0372 28.7687 24.9998 28.7333 24.962 28.7001C25.6786 28.3949 26.1401 27.6744 26.1322 26.8351C26.1225 25.871 25.5068 25.091 24.564 24.8461C23.0397 24.4519 21.0828 24.9916 19.914 25.3144L19.5332 25.418C18.9131 25.5803 17.8251 25.626 17.3475 25.2198C17.2288 25.1188 17.0754 24.9377 17.1144 24.5263C17.134 24.3172 17.1784 24.1321 17.2478 23.9683C17.8637 24.6863 18.7718 25.0282 19.616 24.8157C20.819 24.513 21.0297 23.6958 20.9727 23.3058C20.9489 23.1411 20.823 23.0094 20.6597 22.9786C20.496 22.9478 20.3306 23.024 20.2485 23.1685C20.043 23.5277 19.5453 23.7784 19.0903 23.7513C18.7071 23.7284 18.3996 23.5147 18.1925 23.1301C18.4036 23.0489 18.6145 22.996 18.7964 22.951C18.8713 22.9326 18.9415 22.9155 19.001 22.8986C19.0166 22.8954 19.0322 22.8921 19.0478 22.8886C19.99 22.6912 20.6687 22.3296 21.073 21.8132C22.0155 22.2917 23.2871 22.2643 24.4327 21.7155C24.532 21.6679 24.6293 21.6133 24.7243 21.5539C25.8014 22.0504 26.851 21.9261 27.7727 21.1883C29.1175 20.1123 29.2822 18.6104 28.2235 17.0683C27.8622 16.5418 26.469 14.9746 25.2952 13.668L25.0758 13.4231C24.9215 13.2492 24.7435 12.7977 24.8285 12.5121C24.8518 12.433 24.8986 12.3458 25.0675 12.3001C25.4109 12.2066 25.844 12.7173 26.0766 12.9917C26.1217 13.045 26.1602 13.0908 26.1971 13.1313C26.4256 13.3835 26.7905 13.5101 27.1489 13.4626C27.5002 13.416 27.7919 13.2123 27.9492 12.9039C28.2825 12.2509 27.9393 11.7228 27.7771 11.4954C27.9271 11.5163 28.1264 11.5404 28.3183 11.452C28.4735 11.3809 28.5586 11.3194 28.6207 11.2552C28.8634 11.1426 28.9663 11.0205 29.0572 10.8949C29.0994 10.8382 29.1129 10.8189 29.1828 10.7803C29.3746 10.6742 29.4628 10.5337 29.5037 10.4237L29.7903 10.3003L30.0997 10.3061C30.3003 10.3101 30.4713 10.1615 30.4947 9.96237C30.512 9.81179 30.4402 9.66912 30.3185 9.59023ZM19.7006 20.4822C19.5772 20.8215 18.8162 21.1536 18.2767 21.3558C18.42 21.0841 18.6105 20.8288 18.8308 20.6234C19.2478 20.2345 19.5975 20.2449 19.6707 20.2841C19.7247 20.3794 19.7175 20.436 19.7006 20.4822ZM20.2743 18.3851C20.1654 18.3939 20.1172 18.3642 20.0821 18.3298C19.8246 18.076 19.8402 17.2462 19.8811 16.6713C20.0683 16.9146 20.2214 17.1944 20.3164 17.4806C20.4958 18.0209 20.3409 18.3348 20.2743 18.3851ZM22.2567 20.3278C21.7121 20.1593 21.5473 19.8505 21.5458 19.7677C21.6015 19.6732 21.6541 19.6513 21.7023 19.6427C22.0584 19.5815 22.7242 20.077 23.1673 20.4453C22.8612 20.4558 22.5444 20.417 22.2567 20.3278Z" fill="#66B933"/>
<path d="M30.1065 9.91734L29.7564 9.83951L29.9357 9.51913L29.6702 9.81034L29.0921 10.0588C29.0408 10.0037 28.9542 9.96604 28.8206 9.99912C28.4673 10.0872 28.4569 9.89888 28.0645 10.0418C27.9841 10.0715 28.0112 10.0031 27.7575 10.0868C27.581 10.1447 27.462 10.4401 27.3441 10.4655C26.2056 10.7091 26.6566 11.6803 26.8139 11.8726C27.0091 12.1118 26.8469 12.1937 26.7603 12.1077C26.6253 11.9726 26.4582 11.7512 26.1374 11.4352C25.038 10.3507 22.9902 11.4533 23.4533 13.1518C23.8896 14.7516 25.6245 16.3255 26.3499 17.0646C27.0062 17.7334 28.1467 19.5613 26.6596 20.2352C26.1541 20.4646 25.7204 20.4821 25.351 20.3888C25.8698 19.5427 25.8398 18.4729 25.2269 17.8356C24.3831 16.959 23.7633 17.4441 23.7633 17.4441C24.7452 17.4434 25.9784 18.6863 24.9622 20.018C24.9215 20.0712 24.8779 20.1222 24.8316 20.1707C24.3965 19.9129 24.0836 19.5339 23.8713 19.3246C23.7771 19.2313 22.9173 18.1353 21.8485 18.1588C21.9421 17.0214 21.1195 15.8651 19.9914 15.245C19.8438 15.1643 19.6888 15.0978 19.5285 15.0464C19.418 14.1961 19 13.236 17.6998 12.8697C15.7191 12.3119 14.8756 13.7886 14.5599 14.6598C14.2894 15.4057 13.5647 18.752 13.4427 19.294C13.3269 19.8108 12.6023 20.7373 11.908 20.1713C11.3725 19.7353 11.7097 18.7598 11.7909 18.3842C11.8781 17.9803 11.5197 17.4858 11.0252 17.5603C10.4327 17.6495 10.3217 18.1939 10.2538 18.3692C10.1104 18.7387 9.77591 18.556 9.70862 18.512C9.60714 18.4464 9.54004 18.1504 9.37848 18.0582C9.14654 17.9258 9.15989 17.998 9.08679 17.9535C8.73099 17.7345 8.6827 17.9168 8.35433 17.7606C8.25194 17.7117 8.17091 17.7165 8.11124 17.744C8.09127 17.7569 8.07784 17.7703 8.05901 17.7875L7.54128 17.459L7.32557 17.1298L7.45869 17.4628L7.09345 17.4956L7.48344 17.5505L7.99467 17.8746C7.96856 17.9514 7.97852 18.0564 8.09706 18.1575C8.37379 18.3937 8.22707 18.5117 8.57201 18.7476C8.64284 18.7957 8.57139 18.8134 8.78715 18.9707C8.93678 19.0804 9.24636 19.0052 9.33596 19.0867C10.1967 19.8701 10.724 18.9383 10.7886 18.6982C10.8692 18.4004 11.0307 18.4845 11.0111 18.6047C10.9794 18.7933 10.897 19.0579 10.8268 19.5027C10.5848 21.0285 12.674 22.0515 13.7855 20.6859C14.8316 19.3998 15.1016 17.0726 15.28 16.0527C15.4423 15.1298 16.2642 13.1379 17.6774 13.9547C18.1583 14.2322 18.4247 14.5747 18.5642 14.929C17.5739 14.9997 16.7217 15.6475 16.5608 16.5173C16.3395 17.7129 17.0947 17.9345 17.0947 17.9345C16.5218 17.1366 16.8151 15.4106 18.4893 15.4611C18.5563 15.4633 18.6231 15.4691 18.6894 15.4784C18.7331 15.9821 18.6074 16.4573 18.5609 16.7513C18.5403 16.8778 18.1777 18.124 18.7247 18.9793C17.6993 19.4008 17.0262 20.5997 16.9351 21.8494C16.9225 22.0224 16.9274 22.1902 16.9467 22.3525C16.2197 22.8078 15.5216 23.5879 15.7304 24.9222C16.0483 26.9552 17.7419 27.1068 18.6658 27.0309C19.4559 26.9661 22.8005 26.2307 23.3436 26.1161C23.8619 26.0064 25.0059 26.2792 24.781 27.1458C24.6072 27.8143 23.58 27.9142 23.2053 27.9966C22.8009 28.0855 22.5014 28.6177 22.7752 29.036C23.1033 29.5374 23.6442 29.4115 23.8315 29.4006C24.2278 29.3773 24.2005 29.7573 24.1885 29.8369C24.1711 29.9567 23.9301 30.1409 23.9136 30.3254C23.8898 30.5914 23.95 30.5493 23.9398 30.6343C23.8887 31.0492 24.0745 31.0164 24.0691 31.3806C24.0675 31.4908 24.1038 31.5613 24.1515 31.6041L24.1533 31.6022L24.1673 31.6172L24.1813 31.6279V31.6285C24.1954 31.6377 24.2107 31.645 24.2268 31.65L24.1264 32.3454L23.9145 32.6777L24.1641 32.4193L24.3439 32.7394L24.2342 32.3609L24.3357 31.6586C24.4125 31.6463 24.4967 31.5914 24.5372 31.4492C24.6367 31.0991 24.805 31.1835 24.8755 30.7717C24.8902 30.6874 24.9353 30.745 24.9891 30.4833C25.0268 30.3016 24.8294 30.0513 24.8658 29.9363C25.2193 28.8268 24.1524 28.7362 23.9078 28.7769C23.6033 28.8278 23.6122 28.6461 23.7301 28.6142C23.9147 28.5638 24.1894 28.5286 24.623 28.4075C26.1107 27.991 26.1704 25.6662 24.4662 25.2248C22.8606 24.8095 20.6328 25.5339 19.6317 25.7963C18.7252 26.0336 16.5721 26.1163 16.7258 24.491C16.7777 23.9383 16.9777 23.5532 17.2419 23.2791C17.7189 24.1493 18.6628 24.6542 19.5203 24.4381C20.7003 24.1416 20.5867 23.3627 20.5867 23.3627C20.0998 24.2152 18.4092 24.6686 17.7572 23.1254C17.7315 23.0636 17.7089 23.0005 17.6895 22.9364C18.1296 22.6865 18.6135 22.6032 18.9007 22.5229C19.0312 22.4867 20.4661 22.2763 20.9476 21.2839C21.8251 21.9161 23.1605 21.8938 24.2632 21.3647C24.4197 21.2901 24.5629 21.202 24.6944 21.105C25.4502 21.5098 26.4744 21.7285 27.5289 20.885C29.1357 19.5992 28.4261 18.0541 27.9017 17.2898C27.4527 16.636 25.1542 14.0983 24.7841 13.6838C24.4326 13.2881 24.1005 12.1602 24.9647 11.9251C25.6309 11.7438 26.2281 12.5859 26.4859 12.8707C26.7637 13.1769 27.3739 13.1733 27.6017 12.7278C27.8741 12.1939 27.4958 11.7867 27.3933 11.6297C27.1764 11.2975 27.5195 11.1327 27.5945 11.103C27.7069 11.0589 27.9867 11.1767 28.1553 11.0989C28.3982 10.9875 28.3319 10.9562 28.4105 10.9228C28.7959 10.761 28.6755 10.6159 28.9936 10.4399C29.0814 10.3913 29.1255 10.3326 29.1432 10.2753L29.14 10.2642C29.1541 10.2147 29.1525 10.1808 29.1454 10.154L29.7132 9.91013L30.1065 9.91734ZM19.5318 16.1919C19.5427 16.0858 19.5524 15.9617 19.5584 15.8246C20.1051 16.1977 20.5013 16.8007 20.6867 17.3569C20.9548 18.1654 20.6575 18.7342 20.335 18.771C19.2624 18.8938 19.4493 17.0189 19.5318 16.1919ZM17.9866 21.8728C17.8856 21.9075 17.7686 21.9498 17.641 22.0018C17.753 21.3495 18.1362 20.738 18.5649 20.3378C19.1877 19.7571 19.8287 19.7905 19.9966 20.0685C20.5547 20.992 18.7723 21.603 17.9866 21.8728ZM22.1411 20.7003C21.3275 20.4485 21.0385 19.875 21.196 19.5914C21.7205 18.6478 23.1363 19.8913 23.7609 20.44C23.8409 20.5104 23.9357 20.5911 24.0443 20.6756C23.4225 20.9027 22.701 20.8742 22.1411 20.7003Z" fill="#66B933"/>
</svg>
