<svg width="116" height="40" viewBox="0 0 116 40" fill="none" xmlns="http://www.w3.org/2000/svg">
<rect width="116" height="40" rx="9.6" fill="#FEFDFD"/>
<path d="M15.1953 12.8008V15.6983H27.034L27.1025 18.5608H15.1953V27.2008H18.2621V21.3705H23.6417L26.9997 27.2008H30.4948L27.2396 21.511C28.7359 21.511 30.2207 20.6803 30.2207 19.474V15.0135C30.2207 13.8166 28.8964 12.8008 27.2053 12.8008H15.1953ZM32.9276 12.8008L38.8898 21.5637V27.2008H41.631V21.5637L48.0044 12.8008H44.4065L40.2604 18.4203L36.2171 12.8008H32.9276ZM50.9854 12.8008V15.6983H60.8881L50.9854 24.3559V27.2008H65.2912V24.3559H55.4399L65.2912 15.6983V12.8008H50.9854ZM69.1975 12.8008V15.6983H83.4176V12.8008H69.1975ZM90.5105 12.8008H87.3752V27.2008H90.5105V17.5071L98.6314 27.2008H101.595V12.8008H98.6314V22.2837L90.5105 12.8008ZM69.1975 18.5608V27.2008H83.4176V24.3559H72.0243V21.4057H83.4176V18.5608H69.1975Z" fill="black"/>
</svg>
