<svg width="24" height="24" viewBox="0 0 24 24" fill="none" xmlns="http://www.w3.org/2000/svg">
<path d="M5.04968 3.48609C5.34686 3.47583 5.6464 3.48276 5.94387 3.48274L7.53804 3.48273L12.3993 3.48286L16.5516 3.48305L17.8992 3.48272C18.166 3.48262 18.4351 3.47587 18.7016 3.48828C19.5375 3.5272 20.3188 3.89973 20.8797 4.51996C21.4316 5.13009 21.7196 5.94604 21.6765 6.76729C21.6686 6.91635 21.5956 7.57002 21.5344 7.6603C21.4902 7.72551 21.1247 7.79544 21.0342 7.83032C20.3632 8.08898 19.8082 8.61594 19.5162 9.27229C19.3279 9.69585 19.2653 10.1769 19.175 10.6291L18.8779 12.1142C18.8284 12.3627 18.8021 12.6502 18.7081 12.8844C18.661 13.002 18.5856 13.0898 18.4923 13.1731C18.3127 13.2981 18.1602 13.3252 17.9454 13.3285C16.9905 13.3432 16.033 13.3285 15.0777 13.3284L9.32857 13.3282L6.94361 13.3282C6.63147 13.3283 6.04577 13.3621 5.76419 13.3021C5.53207 13.2526 5.34372 13.0632 5.26966 12.8422C5.19499 12.6192 5.16654 12.3625 5.12027 12.1312L4.81436 10.6042C4.72966 10.1787 4.66942 9.72782 4.50042 9.32615C4.35693 8.98513 4.14428 8.67684 3.87809 8.42001C3.51343 8.06821 3.0614 7.82432 2.56615 7.71726C2.44865 7.6919 2.32984 7.66748 2.20906 7.66982C2.13011 7.40071 2.07566 7.09415 2.05998 6.81388C2.01147 5.9466 2.29702 5.12863 2.88064 4.48336C3.43326 3.87238 4.23172 3.52367 5.04968 3.48609Z" fill="#FEFDFD"/>
<path d="M20.778 18.2405C20.8529 18.2379 20.9263 18.2368 21.0011 18.2416C21.0761 18.5737 21.1963 18.909 21.2409 19.2458C21.2806 19.5453 21.2083 19.8413 21.0224 20.0813C20.8397 20.3172 20.5635 20.4751 20.2674 20.5122C19.9665 20.55 19.6748 20.4482 19.4399 20.2633C19.3084 20.1691 19.2023 20.0183 19.135 19.8727C19.0418 19.6711 19.0022 19.4355 18.9486 19.2205C18.8675 18.8951 18.7841 18.5699 18.7109 18.2425C18.977 18.2529 19.2465 18.2438 19.513 18.2437C19.9345 18.2437 20.3565 18.2475 20.778 18.2405Z" fill="#FEFDFD"/>
<path d="M3.01213 18.2383C3.76998 18.2583 4.53283 18.2503 5.29108 18.2457L5.05404 19.2115C5.00177 19.4217 4.96085 19.6501 4.8738 19.8491C4.82158 19.9686 4.75263 20.0683 4.66697 20.1658C4.5335 20.3044 4.36701 20.4118 4.18316 20.4699C3.90475 20.5579 3.6062 20.5284 3.34717 20.3941C3.08812 20.2597 2.88521 20.0265 2.79753 19.7469C2.67924 19.3697 2.8082 19.0131 2.89764 18.6453C2.9287 18.5176 2.95098 18.3546 3.01213 18.2383Z" fill="#FEFDFD"/>
<path d="M0 10.1143C0.00311579 10.1085 0.00635475 10.1028 0.00934734 10.097C0.0640622 9.99027 0.0972033 9.76363 0.149085 9.63009C0.350228 9.11245 0.796359 8.70252 1.31621 8.52018C1.81779 8.34421 2.3669 8.37149 2.84503 8.60615C3.31029 8.83452 3.69045 9.25105 3.85493 9.7447C3.95821 10.0547 4.00386 10.3942 4.06763 10.715L4.39162 12.3331C4.45311 12.6406 4.48934 12.9837 4.62887 13.2666C4.76808 13.5489 5.00241 13.7842 5.28366 13.9252C5.45742 14.0123 5.6475 14.0643 5.84161 14.0754C6.04383 14.087 6.24862 14.081 6.45112 14.081L7.45598 14.0804L10.5002 14.08L15.3269 14.0799L16.9169 14.0802L17.6185 14.0808C17.9213 14.0809 18.2311 14.1011 18.5226 14.0036C18.8851 13.8824 19.1993 13.6098 19.3675 13.266C19.5019 12.9914 19.5413 12.6687 19.6008 12.3708L19.9071 10.8345C20.0511 10.1113 20.0963 9.48037 20.6654 8.94051C20.8627 8.75324 21.0937 8.61027 21.3508 8.5207C21.854 8.34538 22.3998 8.37356 22.8801 8.60624C23.3431 8.83059 23.7187 9.23577 23.8837 9.72585C23.9307 9.86559 23.9481 10.0204 24 10.1567V10.7186C23.9989 10.7223 23.9977 10.7259 23.9966 10.7296C23.9364 10.9383 23.9224 11.5919 23.9083 11.8335L23.7843 13.6863C23.7568 14.102 23.7533 14.5865 23.6835 14.99C23.5307 15.8739 22.9616 16.6574 22.1839 17.098C21.8167 17.306 21.3967 17.4467 20.9747 17.4788C20.6716 17.5019 20.364 17.4922 20.0602 17.4921L18.6474 17.4917L14.1371 17.4916L6.71278 17.4915L4.57798 17.4921L3.75108 17.4924C3.32084 17.4924 2.90425 17.4967 2.48571 17.3787C1.708 17.1594 1.03523 16.6266 0.643973 15.9201C0.495727 15.6524 0.38722 15.3609 0.327407 15.0607C0.245001 14.6472 0.248552 14.1998 0.22124 13.7783L0.0699366 11.537C0.0569564 11.3529 0.0643523 10.9108 0 10.7637V10.1143Z" fill="#FEFDFD"/>
</svg>
