<svg width="22" height="22" viewBox="0 0 22 22" fill="none" xmlns="http://www.w3.org/2000/svg">
<path d="M0 0H10.968H11.027H22V8.40155V8.69993V22H17.4541H17.3085H4.70302H4.5558H0V8.70745V8.39622V0ZM11.027 0L11.0373 0.00296007C11.3395 0.0876923 11.455 0.07165 11.6291 0.37626C11.7257 0.545402 11.7994 0.733154 11.8805 0.91031L12.2409 1.68081L13.2459 3.82222L14.2296 5.91688C14.3666 6.21075 14.5419 6.53323 14.6556 6.83375C15.3201 6.91088 15.9839 7.02698 16.6451 7.12985L19.1839 7.51777L20.8388 7.77141C21.058 7.80682 21.2847 7.82229 21.4992 7.88141C21.6342 7.91867 21.7558 7.98763 21.8439 8.09862C21.9021 8.17201 21.9486 8.25821 21.9795 8.34642C21.9859 8.36455 21.9918 8.38415 22 8.40155V0H11.027ZM0 0V8.39622L0.0117943 8.39966C0.0339564 8.28734 0.0842321 8.17992 0.157049 8.09136C0.246091 7.98312 0.358342 7.91789 0.493028 7.88141C0.705878 7.82371 0.933836 7.81223 1.15134 7.77644C1.78319 7.67237 2.41778 7.58192 3.05079 7.48503L5.77513 7.06879C6.28732 6.98973 6.82404 6.88699 7.33743 6.8374C7.51545 6.40845 7.73175 5.98967 7.92804 5.56832L9.22256 2.81106L9.95814 1.24214C10.0887 0.961013 10.2449 0.581316 10.4003 0.322816C10.5427 0.0860582 10.7263 0.0615807 10.968 0H0ZM0 8.70745V22H4.5558C4.49075 21.9599 4.37641 21.9489 4.29266 21.9019C4.10362 21.7957 4.00101 21.6333 3.94119 21.4301C3.91538 21.3424 3.9323 21.2268 3.9442 21.1368C4.00653 20.6653 4.09675 20.1935 4.1738 19.7238L4.59306 17.1565L4.9219 15.1399C4.98034 14.7837 5.02666 14.4197 5.10409 14.0673C4.91661 13.8597 4.71359 13.6641 4.51602 13.4661C4.32145 13.2711 4.13133 13.0711 3.93905 12.8738L1.31451 10.1791L0.554211 9.40513C0.400826 9.24894 0.239901 9.09541 0.104189 8.92328C0.0570651 8.86347 0.0310746 8.78436 0.0131307 8.71144L0 8.70745ZM22 8.69993C21.9588 8.79665 21.925 8.8767 21.8639 8.96337C21.7609 9.10938 21.6252 9.23248 21.5001 9.35928C21.2851 9.577 21.0655 9.7912 20.8533 10.0115L18.2333 12.7065C17.9086 13.0381 17.5771 13.3638 17.2577 13.7005C17.1398 13.8247 17.0107 13.9473 16.9035 14.0807C17.1826 15.6618 17.4218 17.2514 17.6822 18.8357L17.9334 20.3782C17.9821 20.6738 18.0561 20.9852 18.0657 21.2845C18.0706 21.4365 18.0376 21.5593 17.9493 21.6842C17.8386 21.8411 17.6699 21.939 17.4866 21.9873C17.4687 21.992 17.4751 21.9903 17.4541 22H22V8.69993ZM4.70302 22H17.3085C17.2852 21.9907 17.26 21.9844 17.2358 21.9776C16.9925 21.9093 16.7664 21.7503 16.5457 21.6302L15.3659 20.976L13.0971 19.7276C12.4018 19.3443 11.7137 18.9438 11.0116 18.5732C10.9441 18.5763 10.3614 18.9238 10.2409 18.99L6.75473 20.9137L5.56944 21.5687C5.35262 21.6868 5.13898 21.8257 4.91335 21.9261C4.84451 21.9566 4.77305 21.9735 4.70302 22Z" fill="#FEFDFD"/>
</svg>
