<svg width="17" height="17" viewBox="0 0 17 17" fill="none" xmlns="http://www.w3.org/2000/svg">
<path d="M8.21554 0.00019345C8.24319 -0.000154572 8.2708 -4.63003e-05 8.29845 0.000626542C8.92296 0.0158158 9.5359 0.16294 10.09 0.454517C10.6645 0.756816 11.1503 1.21428 11.6479 1.62585L13.4552 3.12015L14.726 4.17063C14.9992 4.39615 15.2911 4.6142 15.5357 4.8707C15.9668 5.3227 16.2675 5.88943 16.4085 6.4972C16.5242 6.99556 16.5015 7.49965 16.5016 8.00742L16.5015 9.55789L16.5018 11.8997C16.5018 12.3196 16.5103 12.7416 16.4992 13.1613C16.475 14.0834 16.0784 14.9811 15.4076 15.6153C14.9187 16.0775 14.2773 16.4007 13.6055 16.4786C13.2875 16.5155 12.966 16.5065 12.6464 16.5065C12.2931 16.5065 11.9374 16.5159 11.5844 16.5051C11.1802 16.4928 10.8104 16.3818 10.4979 16.1174C10.248 15.906 10.0603 15.6291 9.9695 15.3137C9.88431 15.0177 9.90264 14.6957 9.90264 14.3906L9.90318 12.9465C9.90341 12.5402 9.93953 12.0828 9.8427 11.6882C9.76838 11.3853 9.62128 11.1087 9.40709 10.8816C9.11665 10.5737 8.73429 10.3841 8.30897 10.3716C8.2505 10.3728 8.19184 10.3737 8.13341 10.3768C7.806 10.3943 7.4934 10.5332 7.24394 10.7431C6.97701 10.9676 6.78034 11.276 6.68491 11.6109C6.56163 12.0435 6.60188 12.5689 6.60192 13.0188L6.60258 14.3967C6.60285 14.6755 6.62249 14.9668 6.55652 15.2394C6.49036 15.5128 6.35286 15.7645 6.16253 15.9712C5.84409 16.3171 5.42456 16.4841 4.96077 16.5038C4.60915 16.5188 4.25262 16.5069 3.90058 16.5067C3.57042 16.5064 3.23949 16.5157 2.91084 16.4779C2.26186 16.4032 1.62786 16.1045 1.14872 15.6618C0.427116 14.9951 0.0459354 14.1159 0.00812482 13.1385C-0.00700252 12.7474 0.00361981 12.353 0.00367781 11.9616L0.00347675 9.86713L0.00357337 8.0858C0.00364684 7.71906 -0.0109662 7.34513 0.0217904 6.97971C0.0918394 6.19821 0.42526 5.45236 0.960525 4.87843C1.19061 4.63176 1.4719 4.42341 1.73189 4.20857L2.9724 3.18325L4.86518 1.61813C5.3514 1.21584 5.84412 0.752876 6.40556 0.459257C6.97272 0.162654 7.57793 0.0205643 8.21554 0.00019345Z" fill="currentColor"/>
</svg>
