<svg width="18" height="18" viewBox="0 0 18 18" fill="none" xmlns="http://www.w3.org/2000/svg">
<path d="M0.75 0.75H17.25V8.20413V8.97941V17.25H0.75V16.6447V16.4848V8.97129V8.16594V0.75ZM0.75 0.75V8.16594C0.789387 8.07619 0.81117 7.63788 0.834613 7.49579C0.931319 6.90966 1.10451 6.29464 1.36828 5.76104C1.49729 5.50007 1.62291 5.23723 1.77667 4.98966C2.00979 4.61435 2.28017 4.24823 2.57742 3.92114C2.66972 3.81956 2.77124 3.7241 2.86837 3.62706C2.97137 3.52415 3.07262 3.41648 3.18048 3.31873C4.02947 2.54928 5.07232 1.97296 6.15642 1.61126C6.83624 1.38445 7.55399 1.24939 8.26749 1.18912C8.39031 1.17875 8.51431 1.18707 8.63735 1.17651C8.77606 1.16461 9.17202 1.11755 9.28678 1.17498C9.4299 1.18154 9.57437 1.17861 9.71704 1.18818C9.91401 1.2014 10.1124 1.23358 10.3087 1.2557C12.4438 1.54415 14.4926 2.67221 15.8025 4.39344C16.4563 5.25244 16.8969 6.21875 17.1131 7.27614C17.144 7.42725 17.1722 7.58084 17.1895 7.73411C17.2065 7.88451 17.2045 8.05953 17.25 8.20413V0.75H0.75ZM5.6213 15.3725C5.55669 15.4158 5.48573 15.4518 5.41786 15.4898C5.14541 15.6422 4.86843 15.7621 4.57906 15.8781C4.43443 15.9361 4.29122 16.0013 4.1451 16.0551C3.32446 16.3569 2.47097 16.5758 1.61378 16.7444C1.49468 16.7679 1.08185 16.8575 0.991327 16.8383C0.910786 16.8211 0.837414 16.7677 0.789602 16.7011C0.788101 16.699 0.78724 16.6965 0.786059 16.6942L0.75 16.6447V17.25H17.25V8.97941C17.2492 8.98179 17.2484 8.98418 17.2476 8.98659C17.201 9.13738 17.1968 9.4027 17.1751 9.56757C17.1352 9.87205 17.0677 10.1795 16.9816 10.4743C16.4874 12.1651 15.3714 13.5668 13.9228 14.548C13.6409 14.739 13.3407 14.9067 13.0414 15.0684C12.9019 15.1437 12.7506 15.2027 12.606 15.2679C11.8569 15.6055 11.029 15.8321 10.2139 15.9365C10.0371 15.9591 9.86096 15.9685 9.68378 15.9834C9.6048 15.99 9.52623 16.005 9.44711 16.0093C9.30809 16.0169 9.16603 16.0111 9.02672 16.0111C8.87229 16.0111 8.71566 16.0166 8.56146 16.0092C8.4778 16.0052 8.39466 15.9911 8.31119 15.9842C8.13201 15.9694 7.9548 15.9581 7.7761 15.9356C7.30414 15.8762 6.82471 15.7705 6.3696 15.6327C6.11637 15.556 5.87348 15.4492 5.6213 15.3725ZM0.75 8.97129V16.4848C0.763576 16.4598 0.777786 16.4354 0.792872 16.4112C0.829318 16.3848 0.891706 16.2762 0.929261 16.2348C1.46143 15.6484 1.75744 14.5397 1.89827 13.7748C1.94351 13.5291 1.97205 13.2799 2.01352 13.0335C2.02387 12.8858 2.04534 12.7399 2.05977 12.5926C1.95006 12.4805 1.79705 12.2193 1.71477 12.0763C1.3788 11.4928 1.10928 10.8814 0.948077 10.2254C0.911068 10.0748 0.883581 9.9202 0.853825 9.76796C0.81511 9.56983 0.801031 9.36748 0.775799 9.16739C0.767915 9.10483 0.767124 9.04035 0.752056 8.97912C0.75141 8.97651 0.750685 8.9739 0.75 8.97129ZM12.6922 7.50385C12.4287 7.53414 12.1641 7.69466 12.0009 7.90001C11.822 8.12511 11.714 8.4311 11.7504 8.71992C11.7883 9.0204 11.9617 9.28437 12.2001 9.46522C12.3587 9.58546 12.6926 9.71698 12.8914 9.68839C12.9194 9.68436 12.9473 9.67821 12.9753 9.67354C13.2764 9.64182 13.53 9.47357 13.7172 9.24244C13.8812 9.04009 13.971 8.74599 13.9433 8.48637C13.9155 8.22521 13.766 7.92125 13.5589 7.75609C13.2653 7.52203 13.0536 7.49344 12.6922 7.50385ZM4.98886 7.50395C4.73388 7.53427 4.45306 7.70382 4.29608 7.90494C4.12854 8.1196 4.0123 8.42733 4.04907 8.70165C4.0907 9.01231 4.25561 9.2834 4.50639 9.47099C4.66753 9.59149 4.9963 9.71772 5.19801 9.68694C5.20677 9.68559 5.21544 9.68378 5.22414 9.6822L5.2796 9.67225C5.58305 9.64524 5.84753 9.45394 6.03641 9.22513C6.192 9.03661 6.26873 8.71689 6.24012 8.47648C6.20641 8.19337 6.05201 7.90236 5.82639 7.72647C5.55501 7.5149 5.31795 7.49447 4.98886 7.50395ZM8.86713 7.50459C8.6119 7.52493 8.33694 7.679 8.17281 7.87317C7.9761 8.10587 7.87684 8.3983 7.90533 8.70223C7.93153 8.98173 8.08032 9.24653 8.29562 9.42471C8.46159 9.56203 8.64902 9.64076 8.86056 9.67495C8.91296 9.68343 8.96987 9.69319 9.02311 9.68907C9.05114 9.68688 9.0796 9.68043 9.10709 9.67463C9.39455 9.64041 9.66522 9.50228 9.8464 9.27219C9.99467 9.08389 10.0484 8.91715 10.0804 8.6825C10.0847 8.65031 10.1071 8.60732 10.1038 8.57645C10.1015 8.55469 10.0879 8.53397 10.0844 8.51183C10.0754 8.45621 10.0773 8.40101 10.0644 8.34535C10.0001 8.06798 9.81798 7.80597 9.57315 7.65896C9.34911 7.52441 9.12504 7.4859 8.86713 7.50459ZM9.28678 1.17498C9.30145 1.19415 9.30564 1.20061 9.32984 1.20421C9.4386 1.22038 9.57863 1.20139 9.69754 1.21204C9.58991 1.22816 9.46803 1.2183 9.35865 1.219C9.49088 1.24427 9.65152 1.23319 9.78916 1.24378C9.92664 1.25435 10.0749 1.28951 10.2116 1.28347C10.2372 1.28233 10.2731 1.25865 10.3087 1.2557C10.1124 1.23358 9.91401 1.2014 9.71704 1.18818C9.57437 1.17861 9.4299 1.18154 9.28678 1.17498ZM2.05977 12.5926C2.04534 12.7399 2.02387 12.8858 2.01352 13.0335C2.02221 13.0534 2.02803 13.0749 2.03471 13.0956C2.05657 13.0321 2.07686 12.679 2.07388 12.5983L2.05977 12.5926ZM0.75 16.4848V16.6447L0.786059 16.6942C0.788981 16.6297 0.766998 16.5699 0.784684 16.5026C0.793578 16.4688 0.794021 16.4459 0.792872 16.4112C0.777786 16.4354 0.763576 16.4598 0.75 16.4848Z" fill="currentColor"/>
</svg>
