<svg width="16" height="16" viewBox="0 0 16 16" fill="none" xmlns="http://www.w3.org/2000/svg">
<path d="M0.75 0.5H10.2241H11.1196H15.75V15.5H11.0899H10.2228H0.75V0.5ZM11.1196 0.5C11.122 0.50073 11.1244 0.501506 11.1268 0.502191C11.2415 0.534698 11.382 0.52855 11.5008 0.539109C11.658 0.553083 11.8166 0.57607 11.9727 0.599862C12.5812 0.692623 13.1842 0.853584 13.7623 1.06442C13.9629 1.13758 14.1727 1.2129 14.3514 1.33217C14.444 1.39394 14.5272 1.47168 14.5825 1.56909C14.6655 1.71521 14.6621 1.87137 14.6177 2.02953C14.5648 2.21847 14.4709 2.40676 14.3949 2.58804C14.3166 2.77452 14.2373 2.96042 14.155 3.14517C14.0974 3.27443 14.0423 3.41052 13.9633 3.52833C13.9157 3.59943 13.8497 3.66263 13.7751 3.70476C13.6862 3.75494 13.5853 3.76827 13.4847 3.76115C13.2433 3.74407 12.9102 3.63925 12.6716 3.57632C12.294 3.47668 11.9152 3.37972 11.53 3.31329C10.2942 3.10012 8.73571 3.20329 7.75348 4.07428C7.32305 4.45593 7.02785 4.93763 6.79866 5.46055L9.01058 5.46046L9.62171 5.45979C9.74786 5.45967 9.88187 5.45097 10.0065 5.47136C10.0969 5.48612 10.1839 5.53581 10.248 5.60076C10.3072 5.66067 10.3481 5.73603 10.3667 5.81806C10.4005 5.96729 10.3805 6.18204 10.3799 6.33781C10.3792 6.52546 10.3845 6.71363 10.3811 6.90116C10.3786 7.0436 10.3467 7.17497 10.2398 7.27648C10.1762 7.33678 10.0916 7.38752 10.0043 7.40132C9.86142 7.42391 9.70128 7.41178 9.55667 7.41172L8.75625 7.41128L7.10587 7.41119C6.86344 7.41122 6.61898 7.41925 6.37687 7.41362C6.36955 7.41348 6.36223 7.41304 6.3549 7.41271C6.35282 7.68705 6.3602 7.9623 6.35382 8.23646C6.67623 8.25225 7.00269 8.24193 7.32565 8.24196L9.04626 8.24193L9.63501 8.24147C9.75888 8.24144 9.89265 8.23224 10.0146 8.25383C10.1083 8.27041 10.196 8.32578 10.2596 8.39524C10.3064 8.44625 10.3465 8.51167 10.3629 8.57923C10.3991 8.72817 10.3809 8.98918 10.3809 9.14809C10.3809 9.34013 10.3888 9.53606 10.3785 9.72769C10.3711 9.86542 10.3288 9.98041 10.2238 10.073C10.1683 10.1219 10.0859 10.1705 10.0123 10.183C9.86777 10.2075 9.70204 10.1925 9.55521 10.1925L8.67337 10.1924L7.3299 10.1922L6.92912 10.1926C6.85257 10.1931 6.7732 10.198 6.69691 10.1932C6.68792 10.1926 6.67893 10.1916 6.66996 10.1905C6.99451 11.1188 7.52795 11.9356 8.43606 12.3739C8.72247 12.5122 9.03141 12.6076 9.34201 12.6735C10.2965 12.8761 11.2391 12.7754 12.1786 12.5492C12.4393 12.4864 12.6977 12.4145 12.9575 12.3481C13.1107 12.3089 13.2675 12.2642 13.4245 12.2447C13.5534 12.2286 13.6921 12.2374 13.8042 12.3101C13.88 12.3593 13.9413 12.4321 13.9887 12.5082C14.1078 12.6996 14.2015 12.9499 14.2912 13.1587C14.3961 13.4029 14.5179 13.6686 14.6057 13.918C14.6625 14.0793 14.6801 14.2526 14.6046 14.4111C14.5625 14.4993 14.4888 14.5725 14.41 14.6287C14.2127 14.769 13.777 14.9249 13.5349 15.0083C12.9618 15.2057 12.3756 15.3374 11.7769 15.4278C11.6204 15.4515 11.4587 15.4595 11.3008 15.4734C11.2331 15.4794 11.1542 15.4788 11.0899 15.5H15.75V0.5H11.1196ZM0.75 0.5V15.5H10.2228C10.1248 15.4672 9.9968 15.4728 9.89306 15.4629C9.73855 15.4483 9.58538 15.4314 9.43201 15.407C8.60429 15.2755 7.78192 15.0266 7.04499 14.6228C5.68934 13.8801 4.70769 12.6562 4.15061 11.2247C4.02059 10.8906 3.92622 10.5398 3.82588 10.1959C3.6866 10.186 3.5435 10.1923 3.40374 10.1923L2.65083 10.1926C2.50612 10.1928 2.34224 10.2087 2.20078 10.1777C2.11398 10.1587 2.03874 10.1157 1.97598 10.0531C1.93393 10.0111 1.89434 9.95803 1.87351 9.90216C1.81935 9.75699 1.84177 9.5039 1.84175 9.34815C1.84171 9.18271 1.82089 8.69976 1.86611 8.5577C1.88841 8.48762 1.93275 8.42188 1.98492 8.37055C2.0458 8.31066 2.11348 8.27469 2.19722 8.25696C2.35674 8.22318 2.55081 8.2412 2.71572 8.24123L3.56442 8.24308L3.5654 7.41324C3.27776 7.40932 2.98995 7.41148 2.70228 7.41163C2.542 7.41169 2.33987 7.43117 2.18527 7.39317C2.10765 7.3741 2.03555 7.32972 1.97866 7.27402C1.87281 7.17037 1.84221 7.04592 1.84141 6.90181L1.84274 6.36371C1.84212 6.20009 1.82278 5.96472 1.85784 5.81281C1.87731 5.72844 1.91876 5.65452 1.98005 5.59361C2.03515 5.53886 2.10988 5.4923 2.18618 5.47566C2.34312 5.44145 2.61932 5.45976 2.78936 5.45979L3.90574 5.46143C3.92982 5.36507 3.96732 5.2688 3.99885 5.1744C4.12729 4.78977 4.28048 4.41459 4.46701 4.05424C5.37583 2.29861 6.84021 1.18067 8.75745 0.72234C9.0593 0.650179 9.36706 0.596514 9.67518 0.559305C9.76134 0.5489 9.84762 0.539379 9.93413 0.532725C10.0217 0.525991 10.1352 0.529965 10.2182 0.502146C10.2202 0.501477 10.2221 0.500715 10.2241 0.5H0.75Z" fill="currentColor"/>
</svg>
