<svg width="18" height="18" viewBox="0 0 22 22" fill="none" xmlns="http://www.w3.org/2000/svg">
<path d="M0 0H4.39918H17.6174H22V3.28181V3.78553V22H16.5105H5.50477H0V3.81859V3.22615V0ZM0 3.81859V22H5.50477C5.48539 21.6189 5.50223 21.2294 5.50228 20.8475L5.50159 20.1114C5.50142 19.7944 5.49201 19.4779 5.57086 19.1679C5.65404 18.841 5.82093 18.5379 6.0442 18.2859C6.45627 17.8208 6.99196 17.6342 7.59675 17.5966C7.65931 17.3348 7.74817 17.0727 7.82272 16.8136L8.29877 15.1586C8.38888 14.8452 8.48744 14.5315 8.56565 14.2151C8.36554 14.1956 8.16269 14.1593 7.96447 14.1248C7.00524 13.958 6.07832 13.6591 5.21409 13.209C2.4247 11.7563 0.929139 9.01579 0.31137 6.02985C0.22296 5.60252 0.154342 5.1694 0.103342 4.73606C0.0850717 4.58081 0.0689159 4.42522 0.0557872 4.26946C0.0448564 4.13978 0.0504771 3.96138 0.00749177 3.83857C0.00514267 3.83186 0.00249725 3.82525 0 3.81859ZM21.9681 3.95376C21.9401 4.49505 21.865 5.04053 21.773 5.57451C21.3614 7.96112 20.3775 10.3254 18.5499 11.9753C17.379 13.0323 15.9649 13.7243 14.4257 14.0559C14.1272 14.1202 13.7529 14.1964 13.4503 14.2168C13.5365 14.5491 13.636 14.8784 13.7308 15.2083C13.9584 16.0005 14.1949 16.7913 14.4131 17.5861C14.5644 17.6063 14.7183 17.6183 14.8675 17.6508C15.3471 17.755 15.779 18.0293 16.0783 18.4186C16.2678 18.6649 16.401 18.9521 16.4652 19.2562C16.5474 19.6452 16.5116 20.1105 16.5113 20.5099C16.511 21.0063 16.5175 21.5037 16.5105 22H22V3.78553C21.9834 3.84227 21.9801 3.89693 21.9681 3.95376ZM2.50959 3.34571C2.44058 3.34675 2.29893 3.33424 2.24936 3.38557C2.21848 3.41755 2.2103 3.47845 2.20782 3.5207C2.20165 3.62557 2.21837 3.73819 2.22691 3.84292C2.24801 4.10153 2.27485 4.36025 2.30902 4.61747C2.61114 6.89189 3.4459 9.25306 5.32748 10.6949C5.68176 10.9664 6.07256 11.2111 6.48029 11.3938C6.56086 11.4294 6.64116 11.4678 6.72388 11.4981C5.43705 9.57357 4.88696 6.86834 4.63663 4.59241C4.59125 4.1802 4.53948 3.76383 4.5198 3.34971C4.13382 3.34077 3.74745 3.34407 3.36139 3.34414C3.07789 3.34419 2.79294 3.33852 2.50959 3.34571ZM17.4964 3.33663C17.4348 3.86069 17.4022 4.38754 17.3363 4.91167C17.0531 7.16091 16.5405 9.57473 15.2866 11.4972C15.7882 11.2816 16.3714 10.9639 16.7803 10.5994C17.0585 10.3879 17.3099 10.136 17.5432 9.87667C18.8373 8.43756 19.4335 6.50848 19.6899 4.62425C19.7162 4.43158 19.8409 3.51906 19.7678 3.39753C19.7469 3.3628 19.6788 3.35313 19.6423 3.34874C19.4622 3.32708 19.2656 3.34272 19.0832 3.34282L17.9668 3.34412C17.8219 3.34446 17.6464 3.36884 17.5063 3.33863C17.503 3.33792 17.4997 3.3373 17.4964 3.33663ZM0 0V3.22615C0.0512712 3.12185 0.0548174 2.98604 0.0859925 2.87296C0.196891 2.4707 0.405548 2.11153 0.7011 1.81695C1.10938 1.41002 1.64464 1.18497 2.2169 1.14281C2.50849 1.12133 2.8075 1.13475 3.10014 1.13481L4.41461 1.13624C4.39815 0.997975 4.40507 0.851155 4.40387 0.711687L4.39918 0H0ZM17.6174 0C17.6121 0.376755 17.6112 0.754183 17.5989 1.13076C18.0589 1.14106 18.5198 1.13542 18.98 1.13525C19.2607 1.13514 19.5484 1.12202 19.8278 1.14669C20.3994 1.19714 20.935 1.44085 21.3344 1.85548C21.6093 2.14081 21.8189 2.50347 21.9171 2.88823C21.9336 2.95316 21.9571 3.03197 21.9566 3.09879C21.9718 3.15753 21.9793 3.22563 22 3.28181V0H17.6174ZM21.9566 3.09879C21.9486 3.2314 21.9617 3.36581 21.9623 3.49883C21.9628 3.62756 21.949 3.75497 21.9621 3.88335C21.9645 3.90677 21.9661 3.93031 21.9681 3.95376C21.9801 3.89693 21.9834 3.84227 22 3.78553V3.28181C21.9793 3.22563 21.9718 3.15753 21.9566 3.09879Z" fill="currentColor"/>
</svg>
