<svg width="12" height="18" viewBox="0 0 12 18" fill="none" xmlns="http://www.w3.org/2000/svg">
<path d="M7.09776 0.566531C7.12701 0.565877 7.15443 0.567737 7.18322 0.57332C7.25322 0.586873 7.31446 0.622451 7.35404 0.682666C7.39349 0.742738 7.40541 0.815329 7.40383 0.886038C7.40056 1.03231 7.3814 1.18158 7.36941 1.32748L7.30353 2.14588L7.0941 4.76667L6.94113 6.67959L6.89729 7.24297C6.8884 7.35874 6.88474 7.47774 6.86376 7.5919C7.25332 7.60888 7.64922 7.5952 8.03938 7.59513L10.2311 7.59531L10.9259 7.59443C11.0547 7.59425 11.1865 7.58849 11.3149 7.59689C11.3732 7.60069 11.4405 7.60803 11.4912 7.63862C11.5582 7.67905 11.6022 7.75326 11.6202 7.82801C11.6389 7.90517 11.6015 7.98677 11.5625 8.0522C11.4626 8.21968 11.3371 8.3794 11.2252 8.53932L10.5689 9.47958L8.44856 12.5216L6.2018 15.7446L5.46334 16.8045C5.34462 16.9748 5.23131 17.1583 5.10236 17.3206C5.05029 17.3861 4.99376 17.4182 4.91392 17.4386C4.89251 17.4385 4.87106 17.4384 4.84969 17.4369C4.77723 17.4318 4.69718 17.3897 4.65141 17.3334C4.6049 17.2762 4.596 17.2134 4.59713 17.1421C4.5991 17.0173 4.61351 16.8914 4.62349 16.7669L4.67514 16.1215L4.83717 14.0957L5.03001 11.6823C5.06368 11.261 5.08144 10.8324 5.13491 10.4134C4.09562 10.399 3.05472 10.4106 2.01522 10.4107L1.15304 10.411C1.00166 10.4113 0.846974 10.4185 0.695872 10.41C0.632697 10.4065 0.567939 10.4008 0.512156 10.3683C0.446136 10.3298 0.396622 10.2624 0.380257 10.1877C0.368058 10.1319 0.378193 10.073 0.399298 10.0207C0.453354 9.88683 0.655759 9.63374 0.745759 9.50299L4.91947 3.51544L6.27306 1.57446L6.68667 0.9796C6.75741 0.877868 6.82515 0.765892 6.90499 0.671501C6.96138 0.604813 7.01472 0.582077 7.09776 0.566531Z" fill="currentColor"/>
</svg>
