<svg width="18" height="18" viewBox="0 0 18 18" fill="none" xmlns="http://www.w3.org/2000/svg">
<path d="M0 0H18V12.2802V13.1099V18H0V13.0585V12.2379V0ZM0 13.0585V18H18V13.1099C17.9717 13.1784 17.9633 13.2663 17.9485 13.3394C17.9245 13.4573 17.8942 13.573 17.8502 13.6851C17.5483 14.4547 16.8894 15.0493 16.1402 15.3747C15.8447 15.5031 15.5109 15.6017 15.1868 15.5949C13.7621 15.5648 12.5391 13.817 11.6187 12.8934C11.3565 12.6303 11.0533 12.3174 10.7016 12.1813C10.631 12.1541 10.5572 12.1351 10.482 12.127C10.3128 12.1088 10.1342 12.1205 9.96381 12.1212L9.08023 12.1225L8.16887 12.1219C7.91863 12.1216 7.60961 12.0914 7.36938 12.1579C6.80878 12.3132 5.92179 13.3861 5.51032 13.8339C5.27913 14.0855 5.04327 14.3334 4.79447 14.5678C4.44365 14.8981 4.04835 15.2136 3.60446 15.4093C3.04239 15.657 2.53736 15.6398 1.97016 15.4177C1.19623 15.1148 0.494304 14.4981 0.179438 13.7197C0.134196 13.6078 0.0941034 13.4914 0.0678976 13.3736C0.0492926 13.2899 0.0415223 13.1455 0.00605032 13.0706C0.00411729 13.0665 0.00201677 13.0625 0 13.0585ZM0 0V12.2379C0.000811874 12.2352 0.00167986 12.2325 0.00243562 12.2298C0.0401498 12.0954 0.0349135 11.7994 0.0416957 11.6523C0.0564427 11.3325 0.0736618 11.0126 0.099739 10.6935C0.203781 9.42029 0.353563 8.15945 0.559012 6.89836L0.698242 6.09307C0.784638 5.61329 0.872923 5.17838 1.08138 4.73302C1.42784 3.99277 1.98065 3.37186 2.68952 2.96156C3.53148 2.47423 4.64217 2.26054 5.59164 2.51437C6.06639 2.64131 6.49902 2.88516 6.966 3.03544C7.66628 3.26077 8.35263 3.22392 9.07724 3.22374C9.42205 3.22365 9.77344 3.23606 10.1172 3.2112C10.5803 3.17772 11.0063 3.06306 11.4344 2.88641C11.7666 2.74935 12.0921 2.59416 12.4417 2.50534C12.856 2.40007 13.272 2.38933 13.6954 2.43716C14.9787 2.58215 16.0961 3.30557 16.7423 4.42536C16.9211 4.7353 17.0601 5.06559 17.1587 5.40953C17.2226 5.63242 17.2604 5.85988 17.3016 6.08773C17.3561 6.38986 17.4085 6.6921 17.4568 6.99529C17.6527 8.22298 17.8038 9.45232 17.9008 10.6918C17.9278 11.0379 17.9465 11.3851 17.9635 11.7318C17.9721 11.9069 17.9591 12.1109 18 12.2802V0H0ZM5.04236 5.05789C4.8272 5.06036 4.65166 5.10813 4.49662 5.26514C4.40916 5.35373 4.34696 5.46476 4.31539 5.5851C4.27992 5.72045 4.28713 5.8622 4.2873 6.00086C4.28766 6.24558 4.30312 6.50085 4.28551 6.74423L3.68177 6.74364C3.36259 6.74269 3.04799 6.71266 2.80396 6.95823C2.66428 7.09879 2.5931 7.28947 2.59568 7.48677C2.59823 7.68087 2.67911 7.86667 2.81881 8.00135C2.90982 8.0891 3.02068 8.15122 3.14332 8.18209C3.3078 8.2235 3.49721 8.2074 3.66638 8.20726L4.28597 8.20673L4.28759 8.78948C4.28709 8.97286 4.26681 9.17845 4.3135 9.35613C4.34718 9.48424 4.41587 9.60212 4.51093 9.69437C4.65318 9.83243 4.82646 9.89026 5.02161 9.89747C5.23143 9.88801 5.41811 9.8157 5.56098 9.65711C5.78415 9.40932 5.75205 9.1086 5.75153 8.7987L5.75286 8.20673L6.34219 8.20677C6.6702 8.20747 6.9821 8.23859 7.23329 7.98616C7.37135 7.84747 7.44462 7.65935 7.44258 7.46423C7.4405 7.26848 7.36035 7.08233 7.21958 6.94631C7.14326 6.87248 7.04391 6.80822 6.94153 6.77802C6.74571 6.72019 6.50577 6.74339 6.3026 6.74385C6.13223 6.74423 5.96137 6.74234 5.79108 6.74599C5.77635 6.74631 5.76183 6.74733 5.74717 6.74835C5.75933 6.58895 5.75181 6.42512 5.75167 6.26498C5.75149 6.05524 5.7754 5.79962 5.72727 5.59705C5.70189 5.49032 5.64687 5.38864 5.57578 5.3055C5.45973 5.1698 5.28307 5.06693 5.10205 5.05765C5.08219 5.05663 5.06222 5.05719 5.04236 5.05789ZM14.3236 5.05835C14.042 5.06261 13.7898 5.16073 13.5926 5.36583C13.3981 5.56812 13.2961 5.8417 13.3043 6.12176C13.3123 6.39749 13.4328 6.66288 13.6355 6.8503C13.8408 7.04021 14.0812 7.1164 14.3562 7.12536C14.6564 7.10726 14.9152 7.00421 15.1188 6.77605C15.3032 6.56933 15.3956 6.29775 15.3783 6.02156C15.3611 5.74798 15.2344 5.48557 15.0272 5.30539C14.829 5.13316 14.5853 5.04745 14.3236 5.05835ZM12.4862 7.83552C12.2335 7.85278 11.9952 7.98402 11.8295 8.17313C11.6478 8.38041 11.5558 8.65965 11.5753 8.93454C11.5948 9.20872 11.7261 9.47113 11.9354 9.64958C12.1679 9.84783 12.4412 9.91318 12.741 9.89051C13.0344 9.84329 13.2829 9.7007 13.4586 9.45798C13.617 9.23913 13.6798 8.95479 13.6354 8.68897C13.5895 8.41373 13.4356 8.16827 13.2067 8.00845C12.9825 7.8519 12.7538 7.8165 12.4862 7.83552Z" fill="currentColor"/>
</svg>
