<svg width="19" height="19" viewBox="0 0 19 19" fill="none" xmlns="http://www.w3.org/2000/svg">
<g clip-path="url(#clip0_1568_544)">
<path d="M0.25 0.25H18.25V7.53016V7.85925V18.25H13.9511H13.5593H8.69457H8.31235H0.25V4.13589V3.86139V0.25ZM0.25 4.13589V18.25H8.31235H8.69457H13.5593H13.9511H18.25V7.85925C18.213 7.95811 18.1981 8.07089 18.1675 8.17306C18.0826 8.45663 17.99 8.73837 17.9011 9.02075L17.0726 11.6508C16.9279 12.1104 16.795 12.5785 16.6355 13.0329C16.4416 13.585 16.0395 14.0373 15.5106 14.289C15.2872 14.3953 15.0464 14.4661 14.7996 14.4886C14.399 14.5253 13.9855 14.5048 13.5832 14.5047L11.505 14.5048L9.04047 14.5052L8.2478 14.5053C8.07789 14.5052 7.90696 14.5095 7.7373 14.4989C7.5143 14.4849 7.29749 14.4495 7.08627 14.3743C6.59377 14.1989 6.17871 13.8559 5.91529 13.4041C5.75688 13.1325 5.68266 12.8122 5.59428 12.5127L5.34839 11.6786L3.96661 6.99585L3.60071 5.75484C3.54172 5.5549 3.48331 5.28318 3.39262 5.10146C3.3237 4.96336 3.1781 4.84489 3.03272 4.79627C2.85557 4.73703 2.65134 4.75218 2.46669 4.75236L1.62471 4.75341C1.37857 4.75373 0.982442 4.78396 0.75734 4.70954C0.570482 4.6478 0.410388 4.50872 0.328036 4.3296C0.300994 4.27079 0.285792 4.20321 0.256017 4.14696C0.254051 4.14327 0.252006 4.13958 0.25 4.13589ZM0.25 0.25V3.86139C0.25276 3.85619 0.255576 3.85102 0.258281 3.84578C0.289271 3.78577 0.305462 3.7176 0.334298 3.65594C0.414287 3.4849 0.570079 3.35367 0.74782 3.2932C0.815773 3.27009 0.886205 3.25694 0.95773 3.25172C1.07532 3.24314 1.19527 3.2479 1.31324 3.24823L1.92532 3.24959L2.53339 3.24894C2.72036 3.24885 2.90736 3.24556 3.09297 3.2721C3.33251 3.30636 3.56488 3.37913 3.78102 3.48796C4.29202 3.74527 4.68517 4.19207 4.86264 4.73699C4.97792 5.09095 5.07614 5.45225 5.18126 5.80943C5.22366 5.95343 5.25906 6.10506 5.31204 6.24509C6.29586 6.25648 7.28065 6.24755 8.26453 6.24745H13.6309L15.8253 6.24734L16.4637 6.24695C16.6465 6.24695 16.8306 6.24203 17.0118 6.27005C17.3258 6.31864 17.6168 6.46932 17.8391 6.69614C17.9939 6.854 18.1196 7.05228 18.1813 7.26546C18.2065 7.35248 18.2219 7.44438 18.25 7.53016V0.25H0.25Z" fill="currentColor"/>
<path d="M8.31099 18.2487L8.3041 18.2461C8.19796 18.208 8.08412 18.1931 7.9776 18.1547C7.61331 18.0234 7.31005 17.7407 7.14338 17.3922C6.97322 17.0366 6.9542 16.6106 7.08801 16.24C7.22121 15.8712 7.49884 15.5589 7.85533 15.3932C8.22042 15.2235 8.63681 15.2025 9.01562 15.3415C9.38803 15.4781 9.6991 15.7666 9.86317 16.1277C10.0246 16.483 10.0412 16.9085 9.90184 17.2738C9.75858 17.6493 9.46696 17.9621 9.09796 18.1239C8.96792 18.1808 8.79934 18.1983 8.69321 18.2487H8.31099Z" fill="currentColor"/>
<path d="M13.5587 18.2487L13.5429 18.2425C13.4471 18.2055 13.3399 18.1967 13.2428 18.1612C12.8684 18.024 12.555 17.7401 12.3873 17.3775C12.2225 17.0214 12.205 16.6045 12.3406 16.2359C12.478 15.8624 12.754 15.5516 13.1184 15.3873C13.4886 15.2202 13.9098 15.2028 14.2895 15.3506C14.6605 15.4949 14.9634 15.7841 15.1228 16.149C15.281 16.5115 15.289 16.9318 15.1429 17.2995C14.9935 17.6757 14.6886 17.982 14.3159 18.1388C14.2038 18.186 14.0418 18.1998 13.9504 18.2487H13.5587Z" fill="currentColor"/>
</g>
<defs>
<clipPath id="clip0_1568_544">
<rect width="18" height="18" fill="white" transform="translate(0.25 0.25)"/>
</clipPath>
</defs>
</svg>
